<svg width="154" height="155" viewBox="0 0 154 155" fill="none" xmlns="http://www.w3.org/2000/svg">
<path d="M78.5528 75.6873L116.43 90.6903C116.43 90.6903 136.434 81.5905 140.369 79.7051L139.959 81.6986L116.347 93.1753L78.4692 77.4347L78.5528 75.6865V75.6873Z" fill="#FFE55D"/>
<path d="M140.368 79.7049C137.006 81.3443 116.429 90.6902 116.429 90.6902L78.5518 75.6872L102.572 66.5874L140.368 79.7049Z" fill="#FFE55D"/>
<path d="M140.368 79.7048C141.433 78.0647 147.422 49.3707 147.422 49.3707L108.968 38.7957L102.574 66.5872L140.368 79.7048Z" fill="#FFE55D"/>
<path d="M147.5 49.0755C106.604 37.812 108.774 38.2728 108.669 38.7244L102.312 66.3565C78.3229 75.4524 78.4103 75.3949 78.3282 75.4893C78.2216 75.6089 78.2516 75.4893 78.1649 77.4215C78.1619 77.4844 78.1783 77.5468 78.2121 77.6001C78.2459 77.6533 78.2953 77.6949 78.3535 77.719L116.347 93.4818L140.092 81.9806C140.278 81.8901 140.22 81.9499 140.663 79.7992C141.827 77.6385 147.476 50.5998 147.717 49.4359C147.733 49.3595 147.72 49.2797 147.679 49.2128C147.639 49.1459 147.575 49.0968 147.5 49.0755ZM102.58 66.9139L139.561 79.7485C134.694 82.0404 118.002 89.6396 116.422 90.3573L79.4024 75.6932L102.58 66.9139ZM116.338 92.8423L78.7875 77.2374L78.8396 76.131L116.43 90.9968C116.634 90.9968 137.407 81.4538 139.943 80.2485L139.687 81.4914L116.338 92.8423ZM140.216 79.3268L102.936 66.3879L109.198 39.176L147.059 49.5908C145.414 57.4645 141.261 76.795 140.214 79.3268H140.216Z" fill="#4B1010"/>
<path d="M144.794 50.0592C108.395 40.0961 110.413 40.4871 110.31 40.9403L104.65 65.6173C104.633 65.6911 104.645 65.7684 104.681 65.8345C104.718 65.9006 104.778 65.9508 104.85 65.9754L138.383 77.5333C138.447 77.5554 138.516 77.5557 138.58 77.534C138.645 77.5124 138.7 77.4701 138.738 77.4137C139.726 75.9308 144.475 53.0227 145.013 50.415C145.029 50.3389 145.014 50.26 144.974 50.194C144.933 50.1279 144.869 50.0798 144.794 50.0592Z" fill="#4B1010"/>
<path d="M133.991 78.7602C104.548 68.5525 104.678 68.5318 104.51 68.5993L93.6088 72.9429C93.5513 72.9661 93.5021 73.0061 93.4676 73.0577C93.4332 73.1092 93.415 73.17 93.4155 73.232C93.4162 73.2941 93.4357 73.3545 93.4716 73.4052C93.5075 73.4559 93.558 73.4945 93.6164 73.5157C122.846 84.3008 122.687 84.3268 122.866 84.2502C122.951 84.2134 131.427 80.5445 134.024 79.3276C134.065 79.3081 134.102 79.2796 134.131 79.2442C134.159 79.2087 134.18 79.1673 134.191 79.123C134.202 79.0786 134.202 79.0323 134.193 78.9876C134.184 78.9429 134.165 78.9008 134.137 78.8645C134.099 78.8164 134.049 78.7801 133.991 78.7602ZM126.036 82.2022L98.4331 71.6801L101.279 70.5468L129.579 80.648C128.388 81.1732 127.143 81.7176 126.036 82.2006V82.2022ZM122.732 83.6391L94.5749 73.2174L97.5958 72.0128L125.235 82.5495L122.732 83.6391ZM130.4 80.2876L102.143 70.201L104.631 69.2104L133.072 79.0884C132.351 79.4173 131.413 79.8337 130.397 80.2861L130.4 80.2876Z" fill="#4B1010"/>
<path d="M104.46 83.7825C104.37 83.7825 104.445 83.8078 93.7741 79.7456C93.7145 79.7233 93.6636 79.6828 93.6284 79.6298C93.6019 79.5903 93.5849 79.5453 93.5787 79.4982C93.5726 79.4511 93.5775 79.4031 93.593 79.3582C93.6086 79.3133 93.6343 79.2727 93.6683 79.2394C93.7022 79.2062 93.7435 79.1812 93.7887 79.1667C100.396 77.0274 99.915 77.1478 100.061 77.2053L110.146 81.1403C110.203 81.1633 110.253 81.2032 110.287 81.2547C110.322 81.3063 110.34 81.3671 110.339 81.4291C110.339 81.4912 110.319 81.5516 110.284 81.6024C110.248 81.6532 110.198 81.692 110.14 81.7138C104.183 83.909 104.54 83.7825 104.46 83.7825ZM94.8069 79.4818L104.461 83.1484L109.168 81.4171L99.9403 77.8133L94.8069 79.4818Z" fill="#4B1010"/>
<path d="M123.301 69.1957C122.152 69.1956 121.023 68.8925 120.029 68.317C119.035 67.7415 118.21 66.914 117.637 65.9179C117.598 65.8467 117.588 65.7626 117.61 65.6841C117.632 65.6056 117.684 65.5391 117.755 65.4992C117.827 65.4594 117.911 65.4494 117.989 65.4716C118.068 65.4937 118.134 65.5461 118.174 65.6173C118.889 66.8533 120.023 67.7927 121.371 68.2657C125.086 69.5024 128.683 66.917 130.599 63.8032C132.823 60.3114 132.922 54.6904 132.036 50.6665C132.027 50.6272 132.027 50.5865 132.034 50.5469C132.041 50.5072 132.056 50.4694 132.077 50.4354C132.099 50.4015 132.127 50.3722 132.16 50.3491C132.193 50.3261 132.23 50.3098 132.27 50.3011C132.309 50.2925 132.35 50.2916 132.389 50.2987C132.429 50.3057 132.467 50.3205 132.501 50.3422C132.535 50.3639 132.564 50.392 132.587 50.425C132.61 50.458 132.626 50.4953 132.635 50.5346C133.478 54.3775 133.591 60.2439 131.119 64.1291C129.439 66.8541 126.527 69.1957 123.301 69.1957Z" fill="white"/>
<path d="M116.619 48.1668C116.786 47.2233 117.147 46.3248 117.679 45.5276C118.21 44.7304 118.901 44.052 119.708 43.5349C119.777 43.4914 119.86 43.4772 119.94 43.4951C120.019 43.5131 120.088 43.5619 120.131 43.6307C120.175 43.6995 120.189 43.7828 120.171 43.8622C120.153 43.9416 120.104 44.0105 120.035 44.054C119.301 44.5256 118.671 45.1442 118.187 45.8709C117.703 46.5976 117.374 47.4166 117.222 48.2764C117.21 48.3348 117.181 48.3883 117.139 48.4305C117.096 48.4726 117.043 48.5016 116.984 48.514C116.926 48.5263 116.865 48.5214 116.81 48.5C116.754 48.4785 116.706 48.4413 116.671 48.393C116.624 48.3274 116.606 48.2461 116.619 48.1668Z" fill="white"/>
<path d="M133.826 68.5151C135.692 66.3962 137.083 63.902 137.905 61.2005C138.726 58.4989 138.959 55.6527 138.588 52.8535C138.426 51.3839 137.937 49.9693 137.157 48.7131C137.121 48.6444 137.112 48.5647 137.132 48.49C137.153 48.4152 137.2 48.3508 137.266 48.3097C137.332 48.2686 137.411 48.2539 137.487 48.2684C137.563 48.2829 137.631 48.3256 137.677 48.388C138.505 49.7203 139.024 51.2209 139.197 52.7799C139.578 55.6653 139.337 58.5988 138.489 61.3832C137.642 64.1676 136.208 66.7382 134.285 68.9223C134.244 68.9661 134.191 68.9972 134.133 69.0115C134.075 69.0259 134.014 69.0229 133.958 69.003C133.902 68.9831 133.852 68.9471 133.816 68.8995C133.78 68.852 133.759 68.7948 133.755 68.7352C133.749 68.6553 133.774 68.5763 133.826 68.5151Z" fill="white"/>
<path d="M130.843 74.3309C132.576 73.7515 134.116 72.7063 135.295 71.3099C136.513 69.8822 137.546 68.3063 138.369 66.6197C138.406 66.5483 138.468 66.4939 138.544 66.4681C138.62 66.4422 138.703 66.4471 138.775 66.4815C138.847 66.5159 138.903 66.5772 138.931 66.6523C138.958 66.7275 138.956 66.8104 138.923 66.8835C138.078 68.6165 137.017 70.2359 135.766 71.7033C134.514 73.1867 132.878 74.2971 131.037 74.9129C130.96 74.9386 130.876 74.9326 130.803 74.8962C130.73 74.8599 130.675 74.7961 130.649 74.7189C130.623 74.6417 130.629 74.5575 130.666 74.4847C130.702 74.412 130.766 74.3566 130.843 74.3309Z" fill="white"/>
<path d="M111.857 49.1884C111.935 47.8393 112.311 46.5241 112.956 45.3367C113.601 44.1492 114.5 43.1189 115.59 42.3191C115.655 42.2711 115.737 42.2511 115.818 42.2637C115.898 42.2762 115.97 42.3201 116.018 42.3858C116.066 42.4515 116.086 42.5335 116.074 42.6139C116.061 42.6943 116.017 42.7664 115.952 42.8144C114.935 43.5609 114.096 44.5228 113.494 45.6313C112.892 46.7398 112.543 47.9675 112.47 49.2267C112.463 49.3061 112.425 49.3795 112.364 49.4313C112.303 49.4831 112.225 49.5092 112.145 49.5043C112.066 49.4993 111.991 49.4636 111.937 49.4046C111.883 49.3457 111.855 49.2681 111.857 49.1884Z" fill="white"/>
<path d="M116.327 69.9479C114.946 68.952 113.972 67.4892 113.587 65.8305C113.579 65.7911 113.578 65.7504 113.586 65.7108C113.593 65.6712 113.608 65.6334 113.63 65.5997C113.652 65.5659 113.681 65.5369 113.714 65.5141C113.747 65.4913 113.785 65.4753 113.824 65.467C113.864 65.4587 113.904 65.4583 113.944 65.4657C113.983 65.4731 114.021 65.4882 114.055 65.5102C114.089 65.5322 114.118 65.5607 114.14 65.5939C114.163 65.6271 114.179 65.6645 114.188 65.704C114.541 67.2185 115.432 68.5534 116.695 69.461C116.751 69.5127 116.785 69.5833 116.792 69.659C116.799 69.7348 116.777 69.8103 116.731 69.871C116.685 69.9316 116.618 69.9731 116.544 69.9873C116.469 70.0015 116.392 69.9875 116.327 69.9479Z" fill="white"/>
<path d="M75.273 107.989C62.9579 112.506 51.1883 118.391 40.185 125.532C39.4474 123.974 14.3601 104.462 6.49023 101.347C16.6558 93.8865 35.9219 87.4098 38.2175 87.1621C38.7911 87.1644 74.6174 108.152 75.273 107.989Z" fill="white"/>
<path d="M40.1854 125.839C40.1272 125.839 40.0701 125.823 40.0209 125.791C39.9717 125.76 39.9325 125.716 39.9079 125.663C39.2247 124.22 14.1275 104.7 6.37792 101.632C6.33985 101.617 6.30519 101.594 6.27598 101.566C6.24678 101.537 6.2236 101.503 6.20782 101.465C6.19204 101.427 6.18397 101.386 6.18408 101.345C6.18419 101.304 6.19248 101.264 6.20847 101.226C6.22994 101.176 6.26465 101.132 6.30891 101.099C16.43 93.6735 35.7574 87.1193 38.185 86.8594C38.921 86.8594 73.5888 107.19 75.2872 107.68C75.3583 107.683 75.4262 107.711 75.4793 107.758C75.5324 107.805 75.5674 107.87 75.5783 107.94C75.5892 108.01 75.5753 108.082 75.5389 108.143C75.5026 108.205 75.4461 108.251 75.3792 108.275C53.3352 116.359 40.8241 125.839 40.1854 125.839ZM7.11323 101.276C15.1373 104.817 37.7617 122.214 40.259 125.122C50.9997 118.175 62.4667 112.422 74.456 107.964C70.1584 105.887 39.8703 88.182 38.1888 87.4797C35.5788 87.8278 17.1799 94.099 7.11323 101.276Z" fill="#4B1010"/>
<path d="M23.4607 102.146C23.3925 102.147 23.3259 102.125 23.2717 102.084C23.2174 102.043 23.1787 101.984 23.1616 101.918C23.1442 101.853 23.1491 101.783 23.1754 101.72C23.2018 101.658 23.2482 101.606 23.3073 101.572C28.4576 98.694 33.8885 96.3508 39.5156 94.5788C39.5925 94.5568 39.6749 94.5655 39.7455 94.6029C39.8162 94.6404 39.8695 94.7038 39.8944 94.7797C39.9188 94.8561 39.9123 94.939 39.8763 95.0107C39.8404 95.0823 39.7778 95.137 39.7019 95.1631C28.7865 98.6449 23.9821 102.146 23.4607 102.146Z" fill="#4B1010"/>
<path d="M28.6258 105.673C28.5582 105.673 28.4924 105.651 28.4386 105.61C28.3849 105.569 28.3463 105.511 28.3288 105.446C28.3113 105.38 28.3159 105.311 28.3419 105.248C28.3679 105.186 28.4138 105.134 28.4725 105.1C32.3406 102.856 36.4644 101.085 40.755 99.825C40.832 99.8058 40.9133 99.8173 40.982 99.8569C41.0506 99.8965 41.1012 99.9612 41.1231 100.037C41.1452 100.114 41.1369 100.195 41.1 100.265C41.0631 100.336 41.0005 100.389 40.9253 100.414C33.5461 102.542 28.9632 105.673 28.6258 105.673Z" fill="#4B1010"/>
<path d="M34.1186 109.853C34.0511 109.853 33.9854 109.831 33.9318 109.79C33.8782 109.749 33.8398 109.691 33.8226 109.626C33.8055 109.561 33.8102 109.492 33.8359 109.429C33.8617 109.367 33.9071 109.315 33.9652 109.281C40.0659 105.739 46.7241 103.26 53.6554 101.948C53.7353 101.934 53.8177 101.951 53.8854 101.996C53.9524 102.042 53.9986 102.112 54.0142 102.192C54.0293 102.272 54.0121 102.355 53.9664 102.422C53.9207 102.489 53.8502 102.536 53.7704 102.551C41.5062 104.887 34.6269 109.853 34.1186 109.853Z" fill="#4B1010"/>
<path d="M39.0975 113.647C44.9486 109.218 52.3431 106.928 58.8681 104.907C58.945 104.885 59.0272 104.895 59.0971 104.933C59.1671 104.971 59.2192 105.036 59.2423 105.112C59.2657 105.188 59.2587 105.27 59.2226 105.341C59.1866 105.412 59.1243 105.466 59.0491 105.492C52.2564 107.595 45.233 109.769 39.4678 114.134C39.4029 114.176 39.3246 114.192 39.2485 114.179C39.1723 114.166 39.104 114.124 39.0569 114.063C39.0103 114.001 38.9886 113.924 38.9961 113.847C39.0036 113.77 39.0398 113.699 39.0975 113.647Z" fill="#4B1010"/>
<path d="M35.3479 91.1009L11.4131 80.1969V81.9474L35.3518 93.671L73.3097 77.9304V76.0979L35.3479 91.1009Z" fill="#FFE55D"/>
<path d="M11.4131 80.1964L35.3518 91.1003L73.3058 76.0973L49.1218 66.9976L11.4131 80.1964Z" fill="#FFE55D"/>
<path d="M11.4135 80.1967C10.3439 78.5574 4.35938 49.8634 4.35938 49.8634L42.8088 39.2876L49.2035 67.0799L11.4135 80.1967Z" fill="#FFE55D"/>
<path d="M73.563 75.9383C73.563 75.9383 73.4864 75.8517 73.4787 75.8448L49.4526 66.7971L43.1078 39.2187C43.0989 39.1778 43.0817 39.1391 43.0573 39.105C43.0329 39.071 43.0018 39.0423 42.9659 39.0208C42.9299 38.9992 42.89 38.9852 42.8484 38.9797C42.8069 38.9742 42.7647 38.9773 42.7244 38.9887L4.27808 49.5675C4.20268 49.5881 4.138 49.6367 4.09725 49.7034C4.05649 49.7701 4.04273 49.8499 4.05879 49.9264C4.30031 51.0841 9.91061 77.9411 11.1029 80.2651V81.9473C11.1032 82.0047 11.1195 82.0609 11.15 82.1095C11.1804 82.1582 11.2239 82.1973 11.2754 82.2226L35.2133 93.9462C35.4135 94.0428 35.2555 94.0482 73.4235 78.214C73.4797 78.191 73.5278 78.1517 73.5615 78.1011C73.5953 78.0506 73.6132 77.9911 73.6129 77.9303C73.6129 75.9582 73.6298 76.0441 73.563 75.9383ZM49.2701 67.3814L72.4543 76.1047L35.3575 90.7672L12.2346 80.2352L49.2701 67.3814ZM42.5818 39.6688L48.8193 66.7787L11.5668 79.8188C10.5163 77.2886 6.36363 57.9573 4.71819 50.0843L42.5818 39.6688ZM72.9995 77.7256L35.359 93.3351L11.7201 81.7556V80.6776L35.2256 91.3837C35.4142 91.4696 35.267 91.4681 73.0033 76.5525L72.9995 77.7256Z" fill="#4B1010"/>
<path d="M47.125 66.0273L41.4702 41.4323C41.3667 40.98 43.1823 40.6564 6.98642 50.5513C6.91119 50.5719 6.84663 50.6204 6.80589 50.6869C6.76515 50.7534 6.75129 50.833 6.76713 50.9094C7.30385 53.5163 12.0577 76.4252 13.043 77.9074C13.0804 77.9642 13.1357 78.0068 13.2002 78.0285C13.2647 78.0502 13.3346 78.0497 13.3987 78.027L46.9271 66.3862C46.9986 66.3613 47.0583 66.3109 47.0948 66.2446C47.1313 66.1784 47.142 66.101 47.125 66.0273Z" fill="#4B1010"/>
<path d="M58.1709 73.4354C47.0845 69.009 47.2217 69.0274 47.0531 69.0857L17.7855 79.2512C17.7278 79.2711 17.6774 79.3078 17.6408 79.3566C17.6041 79.4054 17.583 79.464 17.58 79.525C17.5768 79.5859 17.5919 79.6464 17.6234 79.6987C17.6548 79.751 17.7011 79.7928 17.7564 79.8186C20.3533 81.0362 28.8282 84.7043 28.9133 84.7412C29.0927 84.8178 28.9402 84.791 58.164 74.0067C58.2217 73.9849 58.2716 73.9462 58.307 73.8957C58.3424 73.8451 58.3617 73.7851 58.3625 73.7234C58.3632 73.6617 58.3453 73.6012 58.3111 73.5498C58.277 73.4985 58.2281 73.4586 58.1709 73.4354ZM22.0946 81.0945L50.4965 71.037L53.3412 72.1711L25.7382 82.6932C24.6011 82.1963 23.3199 81.635 22.0946 81.0945ZM47.1435 69.7021L49.6286 70.6928L21.2742 80.7372C20.4152 80.3571 19.5578 79.9737 18.7018 79.5871L47.1435 69.7021ZM29.0483 84.1277L26.5479 83.0413L54.1823 72.5061L57.2018 73.7099L29.0483 84.1277Z" fill="#4B1010"/>
<path d="M47.3181 84.2755C47.2322 84.2755 47.6163 84.4081 41.6372 82.2053C41.5786 82.1836 41.528 82.1446 41.492 82.0936C41.456 82.0425 41.4363 81.9817 41.4356 81.9193C41.435 81.8568 41.4535 81.7957 41.4888 81.7442C41.524 81.6926 41.5742 81.6531 41.6326 81.631C51.9745 77.6293 51.8442 77.6385 52.0014 77.6899L57.982 79.5753C58.0272 79.5898 58.0685 79.6145 58.1026 79.6475C58.1367 79.6806 58.1628 79.7211 58.1786 79.7658C58.1945 79.8106 58.1998 79.8584 58.1942 79.9056C58.1886 79.9527 58.1721 79.9979 58.1461 80.0377C58.1107 80.0906 58.0598 80.1314 58.0004 80.1542C47.328 84.297 47.4093 84.2755 47.3181 84.2755ZM42.6118 81.9116L47.315 83.6406L56.9684 79.8997L51.9193 78.3087L42.6118 81.9116Z" fill="#4B1010"/>
<path d="M28.571 68.5629C25.8874 68.5629 23.4338 66.3953 22.1303 64.1158C19.1936 58.8482 20.9625 51.5641 24.1185 47.383C24.1685 47.321 24.2406 47.2809 24.3197 47.2711C24.3988 47.2614 24.4786 47.2828 24.5421 47.3308C24.6057 47.3788 24.6481 47.4497 24.6603 47.5284C24.6725 47.6071 24.6537 47.6875 24.6077 47.7526C21.569 51.778 19.8538 58.7769 22.6632 63.8145C23.9168 66.0081 26.4571 68.2302 29.0824 67.9227C29.8333 67.8508 30.5553 67.5968 31.1857 67.1825C31.8162 66.7683 32.3359 66.2065 32.6999 65.5458C32.7389 65.4756 32.8038 65.4236 32.8808 65.4008C32.9577 65.3779 33.0405 65.3861 33.1114 65.4237C33.1823 65.4612 33.2357 65.525 33.2602 65.6015C33.2846 65.6779 33.2781 65.7608 33.242 65.8325C32.7811 66.6658 32.1039 67.3592 31.2818 67.8396C30.4597 68.32 29.5231 68.5696 28.571 68.5622V68.5629Z" fill="white"/>
<path d="M34.8874 47.3962C34.7081 46.6384 34.2989 45.9546 33.7158 45.4385C33.1327 44.9224 32.4042 44.5992 31.6303 44.5132C31.5508 44.5031 31.4785 44.4625 31.4284 44.4C31.3784 44.3375 31.3546 44.258 31.3622 44.1783C31.3698 44.0985 31.4081 44.0249 31.469 43.9729C31.5299 43.921 31.6086 43.8947 31.6886 43.8998C32.589 43.9982 33.437 44.3728 34.1162 44.9721C34.7954 45.5715 35.2726 46.3662 35.4824 47.2474C35.5006 47.3258 35.4873 47.4081 35.4453 47.4767C35.4033 47.5453 35.3361 47.5947 35.258 47.6142C35.18 47.6337 35.0974 47.6218 35.0281 47.581C34.9588 47.5402 34.9083 47.4738 34.8874 47.3962Z" fill="white"/>
<path d="M26.3822 72.9596C23.8159 72.6796 21.4154 71.5546 19.5581 69.7615C15.3019 65.6824 14.9178 58.8354 16.3623 54.1965C16.3886 54.1214 16.4431 54.0595 16.5142 54.0238C16.5853 53.9881 16.6675 53.9814 16.7435 54.0052C16.8194 54.029 16.8831 54.0814 16.9212 54.1513C16.9592 54.2212 16.9686 54.3031 16.9474 54.3798C15.558 58.8407 15.9146 65.421 19.9822 69.3161C21.7398 71.015 24.0121 72.082 26.442 72.3493C26.5216 72.3589 26.5944 72.3992 26.6446 72.4617C26.6948 72.5242 26.7186 72.6039 26.7107 72.6837C26.7029 72.7636 26.6642 72.8371 26.6027 72.8887C26.5413 72.9403 26.4622 72.9657 26.3822 72.9596Z" fill="white"/>
<path d="M34.7312 69.806C35.7516 68.8466 36.437 67.585 36.6864 66.2068C36.7006 66.1267 36.7459 66.0555 36.8126 66.0088C36.8792 65.9622 36.9617 65.9439 37.0418 65.958C37.1219 65.9722 37.1932 66.0175 37.2398 66.0842C37.2865 66.1508 37.3048 66.2333 37.2906 66.3134C37.0159 67.8239 36.2633 69.2063 35.1437 70.2568C35.0828 70.3035 35.0066 70.3257 34.9302 70.319C34.8538 70.3122 34.7826 70.2771 34.7308 70.2205C34.679 70.1639 34.6503 70.0899 34.6504 70.0131C34.6505 69.9364 34.6793 69.8625 34.7312 69.806Z" fill="white"/>
<path d="M14.1734 68.9519C12.3312 65.7114 11.4369 62.0183 11.5925 58.2941C11.6953 54.1858 12.5456 51.0728 14.1918 48.7864C14.2392 48.7203 14.3109 48.6758 14.3911 48.6625C14.4714 48.6493 14.5536 48.6685 14.6197 48.7158C15.3864 49.2648 12.4068 50.2608 12.2059 58.3186C12.0557 61.9295 12.9234 65.5099 14.7101 68.6513C14.75 68.7225 14.76 68.8066 14.7378 68.8851C14.7157 68.9636 14.6632 69.0301 14.5921 69.07C14.5209 69.1098 14.4368 69.1198 14.3583 69.0976C14.2798 69.0755 14.2133 69.0231 14.1734 68.9519Z" fill="white"/>
<path d="M78.3067 74.212C74.864 74.212 72.4028 70.6083 71.0103 67.8993C70.3425 66.8805 70.0258 65.6713 70.1086 64.4559C70.4004 63.1414 71.1574 61.9768 72.2402 61.1765C74.2581 59.5518 76.6407 58.4418 79.1827 57.942C81.7247 57.4422 84.3501 57.5675 86.833 58.3073C87.1412 58.3587 87.4272 58.5021 87.6534 58.7175C87.8382 58.9637 87.977 59.2412 88.0628 59.5372C89.6669 63.89 90.8822 64.9044 91.5899 66.1772C91.9993 66.9156 92.099 66.7653 91.5078 67.4884C89.5956 69.8308 86.1559 71.5383 83.4738 72.8173C81.8493 73.5889 80.0989 74.0614 78.3067 74.212Z" fill="white"/>
<path d="M84.701 64.0458C84.8398 64.6376 84.8139 65.2561 84.626 65.8343C84.4381 66.4124 84.0954 66.928 83.6352 67.3251C83.3078 67.7354 82.9796 68.2268 82.6515 68.6363C80.7737 70.7027 74.9456 71.7876 68.7971 69.2113C67.3305 68.6403 65.9506 67.8677 64.6973 66.9157C66.5113 63.096 67.6487 58.9905 68.0587 54.7819C69.8292 53.9243 71.6661 53.2114 73.5517 52.6503C75.8473 52.2409 77.4046 53.0605 79.2908 54.1263C78.3935 54.5467 77.5644 55.0993 76.8311 55.7656C79.3856 56.5161 81.7769 57.7384 83.8813 59.3694C86.4515 60.5409 86.3556 63.7705 84.701 64.0458Z" fill="white"/>
<path d="M64.4521 67.4892C58.0314 67.2324 33.0522 65.5394 30.8394 65.4397C25.1056 65.1828 23.2769 60.7871 24.2806 55.6023C24.664 52.4088 26.2741 48.7706 29.6095 47.4855C31.8124 46.6375 33.957 47.2256 36.1683 47.5676C44.9 48.9186 68.1417 53.2062 68.1417 52.8965C67.9275 57.9625 66.6715 62.9301 64.4521 67.4892Z" fill="#FFE55D"/>
<path d="M86.1321 61.5505C85.7214 60.522 85.0001 59.6472 84.0688 59.0478C82.0844 57.5089 79.8474 56.3268 77.4579 55.5545C79.0765 54.251 79.5802 54.465 79.5971 54.0571C79.5991 54.0009 79.5859 53.9453 79.5589 53.896C79.5319 53.8468 79.4921 53.8057 79.4438 53.7772C77.6657 52.772 75.9735 51.7652 73.4861 52.269C71.6731 52.6833 69.9385 53.3868 68.3489 54.3523C68.3888 53.873 68.4417 53.3954 68.4532 52.9108C68.4551 52.8699 68.4489 52.829 68.4348 52.7905C68.4207 52.7521 68.399 52.7168 68.3711 52.6869C68.3431 52.6569 68.3095 52.6329 68.2721 52.6162C68.2347 52.5994 68.1943 52.5904 68.1534 52.5895C65.7918 52.4845 51.6928 49.8468 35.1954 47.1003C33.3553 46.7936 31.4545 46.477 29.5008 47.2008C25.0997 48.9643 24.1635 54.0479 23.9848 55.543C22.9037 61.1311 25.082 65.4433 30.8334 65.7461C32.6506 65.8136 30.8948 65.7553 64.4577 67.7957C64.7107 67.7957 64.7513 67.5725 64.8732 67.318C68.5697 69.5416 72.1021 71.1456 76.4166 71.1456C78.7077 71.1456 82.9647 70.2554 83.4462 67.7274C84.6515 67.1715 85.5026 65.421 84.7121 64.3254C85.1379 64.208 85.5164 63.9602 85.7943 63.6169C86.0722 63.2735 86.2356 62.8518 86.2617 62.4108C86.2784 62.1182 86.2343 61.8252 86.1321 61.5505ZM64.2637 67.1746C57.8751 66.9124 32.9274 65.2102 30.8557 65.1335C25.4961 64.8513 23.5715 60.8934 24.5852 55.6381C24.9394 52.6869 26.4752 49.0701 29.7163 47.7728C31.4982 47.1134 33.2211 47.394 35.0896 47.7053C49.3795 50.0761 65.5357 53.0281 67.8183 53.1983C67.5739 58.047 66.3655 62.7983 64.2637 67.1746ZM85.2603 63.3179C85.039 63.5386 84.7619 63.6951 84.4586 63.7706C84.1553 63.8461 83.8372 63.8377 83.5382 63.7465C82.0516 63.4274 80.5853 63.0203 79.147 62.5273C79.0708 62.5018 78.9875 62.5073 78.9153 62.5425C78.843 62.5778 78.7875 62.64 78.7606 62.7158C78.7338 62.7916 78.7378 62.8749 78.7718 62.9478C78.8057 63.0207 78.867 63.0773 78.9423 63.1055C80.323 63.5801 81.7297 63.9754 83.1556 64.2893C85.4696 64.8138 84.009 67.0419 82.8527 67.285C82.1082 67.443 79.5465 66.7744 78.0989 66.1426C78.062 66.1262 78.0223 66.1173 77.9819 66.1164C77.9416 66.1154 77.9015 66.1225 77.8639 66.1372C77.8263 66.1519 77.792 66.1739 77.763 66.2019C77.734 66.23 77.7108 66.2635 77.6948 66.3005C77.6632 66.3751 77.662 66.4592 77.6915 66.5347C77.721 66.6102 77.7789 66.6712 77.8528 66.7046C79.0029 67.2076 81.5332 67.9943 82.7554 67.9053C82.6256 68.2452 82.4262 68.5541 82.1698 68.8123C81.9135 69.0705 81.606 69.2721 81.2671 69.4043C79.9385 69.7199 78.5465 69.6383 77.2639 69.1697C77.1879 69.1418 77.104 69.1452 77.0304 69.1789C76.9569 69.2127 76.8997 69.2742 76.8712 69.3499C76.8428 69.4257 76.8455 69.5096 76.8787 69.5835C76.9119 69.6573 76.9729 69.715 77.0484 69.744C77.7377 69.997 78.4616 70.1458 79.1953 70.1841C76.0394 71.0965 71.7862 70.0852 69.5772 69.0953C68.0466 68.4073 66.5591 67.6268 65.1232 66.7583C66.8083 63.0692 67.874 59.1277 68.2776 55.0922C69.9139 54.0532 71.7156 53.3012 73.605 52.8686C75.5218 52.4799 76.9066 53.0794 78.6325 54.0271C77.911 54.4237 77.2377 54.9022 76.626 55.4533C76.585 55.4897 76.5546 55.5364 76.5378 55.5886C76.521 55.6408 76.5185 55.6965 76.5306 55.75C76.5426 55.8034 76.5688 55.8527 76.6063 55.8926C76.6439 55.9325 76.6914 55.9617 76.744 55.977C79.2711 56.72 81.636 57.9315 83.7153 59.5485C84.5438 60.0779 85.187 60.8521 85.5555 61.7636C85.6426 62.0264 85.6612 62.3071 85.6095 62.579C85.5579 62.851 85.4377 63.1053 85.2603 63.3179Z" fill="#4B1010"/>
<path d="M87.2015 55.7027C84.5294 54.7703 78.5817 52.4264 76.339 55.5202C75.1706 57.1642 74.3608 59.0354 73.9621 61.0124C73.7988 61.9149 73.5526 63.3081 74.7005 63.6363C75.3312 63.7167 75.97 63.5714 76.5039 63.226C78.0979 62.4938 79.3775 61.2156 80.1114 59.6223C81.0999 60.6538 82.2321 61.5372 83.4728 62.2454C84.2043 62.6318 85.0241 62.8202 85.8509 62.7919C86.6776 62.7637 87.4826 62.5198 88.186 62.0844C87.5086 60.0259 87.1759 57.8696 87.2015 55.7027Z" fill="white"/>
<path d="M71.4204 69.6206C71.0923 68.8009 70.0273 67.1616 68.7974 67.7351C68.5385 67.9799 68.3383 68.2801 68.212 68.6133C68.0856 68.9465 68.0363 69.3039 68.0678 69.6588C68.0993 70.0137 68.2108 70.3569 68.3938 70.6626C68.5769 70.9683 68.8268 71.2286 69.1248 71.424C69.8448 71.9607 70.9596 72.6025 71.928 72.1478L71.4204 69.6206Z" fill="white"/>
<path d="M75.6662 70.5864C76.2405 69.1932 75.9285 67.2433 74.2094 66.8339C73.914 66.7487 73.5983 66.7673 73.315 66.8866C73.0316 67.0059 72.7977 67.2187 72.6522 67.4895C71.6684 68.8834 70.6847 70.9329 72.1599 72.4089C72.6948 72.8363 73.3183 73.139 73.9849 73.295C74.6516 73.451 75.3446 73.4563 76.0136 73.3106L75.6662 70.5864Z" fill="white"/>
<path d="M91.5882 68.2266C102.222 65.7247 121.072 65.4034 124.788 64.7839C129.203 63.5226 129.619 51.4908 125.117 47.6494C123.343 46.1373 120.936 47.4032 118.968 47.8135C104.673 50.7915 103.639 51.0338 96.8328 52.486C93.719 53.1493 90.274 53.6361 87.2408 54.6996C86.9088 59.5984 88.4644 64.4385 91.5882 68.2266Z" fill="#FFE55D"/>
<path d="M80.2747 68.1451C79.8526 67.8188 79.3322 67.6455 78.7988 67.6536C77.6486 67.7356 75.9296 69.457 75.6835 70.5228C75.4608 71.0467 75.4043 71.6264 75.5215 72.1835C75.6388 72.7406 75.9241 73.2483 76.339 73.6381C76.9294 74.0728 77.6586 74.2768 78.3885 74.2124L79.6153 71.7526C80.4388 70.8509 81.4854 69.0728 80.2747 68.1451Z" fill="white"/>
<path d="M125.313 47.4119C123.421 45.8017 120.899 47.0983 118.907 47.5131C87.7006 54.0151 86.9745 54.1171 86.9339 54.6799C86.9208 54.8785 86.9155 55.077 86.9078 55.2756C83.4183 54.0327 78.2604 52.342 76.0851 55.3439C74.8697 57.0119 74.0402 58.9293 73.6568 60.9572C73.4935 61.8551 73.1899 63.5251 74.6582 63.9407C75.3467 64.0311 76.0452 63.8764 76.6311 63.5036C78.1483 62.7986 79.3967 61.6215 80.1895 60.1483C81.1336 61.067 82.1898 61.8628 83.3332 62.5168C84.4972 63.1163 85.8448 63.2533 87.1056 62.9002C87.1636 62.8828 87.2151 62.8487 87.2538 62.8022C87.2925 62.7556 87.3166 62.6987 87.3231 62.6385C87.3295 62.5783 87.3181 62.5176 87.2902 62.4639C87.2623 62.4102 87.2191 62.3659 87.1662 62.3366C87.1309 62.3173 87.0922 62.3051 87.0522 62.3008C87.0122 62.2964 86.9717 62.3 86.9331 62.3113C85.8289 62.623 84.6476 62.5041 83.6276 61.9785C80.4878 60.0946 80.5062 59.242 80.0592 59.3156C80.0092 59.3238 79.962 59.3443 79.9218 59.3752C79.8817 59.4061 79.8498 59.4465 79.8292 59.4928C79.1135 61.0307 77.8734 62.2634 76.3313 62.97C75.8735 63.269 75.3261 63.3993 74.7824 63.3403C73.962 63.1064 74.0686 62.1311 74.2603 61.0746C74.6279 59.1357 75.4211 57.3026 76.5828 55.7073C78.5702 52.9654 83.7611 54.8194 86.8955 55.9235C86.8749 60.1039 88.2035 64.1794 90.684 67.5444C87.5894 70.5784 82.5887 73.7152 78.3532 73.9084C76.2408 74.1384 74.8085 71.8044 76.5268 69.5885C77.0719 68.7992 77.8745 68.224 78.7971 67.9615C79.547 67.9615 80.4433 68.3809 80.5185 69.1269C80.4496 70.0444 80.0483 70.9051 79.3898 71.5476C79.336 71.6077 79.3082 71.6868 79.3125 71.7674C79.3168 71.848 79.3529 71.9237 79.4128 71.9777C79.4726 72.0319 79.5513 72.0604 79.6319 72.0571C79.7125 72.0538 79.7886 72.019 79.8437 71.9601C80.6267 71.1952 81.0866 70.1593 81.1288 69.0656C81.0199 67.9784 79.8713 67.3489 78.7795 67.3489C77.7555 67.5829 76.8467 68.1701 76.2124 69.0073C76.2188 68.4374 76.0309 67.8823 75.6797 67.4334C75.3285 66.9845 74.8349 66.6686 74.2802 66.5376C73.9249 66.4348 73.5451 66.4556 73.2032 66.5967C72.8612 66.7378 72.5773 66.9908 72.3978 67.3144C72.0206 67.8357 71.7039 68.3993 71.4547 68.9935C70.8268 67.8626 69.7978 66.9179 68.6116 67.4915C68.3144 67.7649 68.0832 68.1022 67.9355 68.4781C67.7879 68.854 67.7275 69.2585 67.7592 69.6611C67.7908 70.0637 67.9135 70.4538 68.118 70.802C68.3225 71.1502 68.6036 71.4474 68.9398 71.671C69.794 72.312 70.8206 72.8349 71.8304 72.5037C72.7116 73.2933 73.8531 73.7301 75.0362 73.7305C75.339 73.7285 75.6408 73.6962 75.9372 73.6339C76.2077 73.9224 76.5351 74.1517 76.8986 74.3074C77.2622 74.4631 77.6541 74.5419 78.0495 74.5387C82.4775 74.5387 87.844 71.165 91.0559 68.0343C91.2951 68.341 91.391 68.5902 91.6563 68.5266C102.339 66.0132 121.035 65.7257 124.873 65.0762C129.702 63.6999 129.777 51.2195 125.313 47.4119ZM69.2894 71.1696C69.0386 71.0016 68.8272 70.7812 68.67 70.5234C68.5128 70.2657 68.4135 69.9769 68.379 69.677C68.3445 69.3771 68.3756 69.0733 68.4702 68.7866C68.5648 68.4999 68.7206 68.2372 68.9268 68.0167C69.0424 67.9607 69.1686 67.9301 69.297 67.9269C69.4254 67.9237 69.5531 67.9481 69.6713 67.9983C70.3864 68.4197 70.9238 69.0869 71.1833 69.8753C71.0116 70.5851 71.1082 71.3333 71.4547 71.9762C70.6572 71.989 69.8842 71.701 69.2894 71.1696ZM75.5323 73.0864C74.4038 73.2144 73.2701 72.8945 72.3748 72.1955C71.3374 71.1573 71.5138 69.6345 72.9047 67.6632C73.0148 67.4441 73.1989 67.2709 73.4244 67.1744C73.6499 67.0779 73.9022 67.0642 74.1368 67.1357C75.4625 67.4516 75.8582 68.841 75.4794 70.1498C75.2539 70.6082 75.1411 71.1138 75.1503 71.6245C75.1595 72.1353 75.2905 72.6365 75.5323 73.0864ZM124.738 64.4812C121.052 65.0946 102.392 65.4174 91.703 67.8848C88.7473 64.2359 87.2605 59.6147 87.5342 54.9268C89.7912 54.2213 92.0938 53.6708 94.4258 53.279C95.2631 53.1188 119.916 47.898 120.379 47.7661C121.979 47.306 123.657 46.8107 124.913 47.8826C129.234 51.56 128.802 63.315 124.738 64.4812Z" fill="#4B1010"/>
<path d="M109.706 117.942C109.071 117.774 108.483 117.466 107.984 117.04C107.421 116.628 106.994 116.057 106.758 115.4C106.212 112.942 109.358 108.47 114.382 108.185C117.088 108.032 120.367 109.005 119.875 112.449C119.013 115.884 113.962 119.359 109.706 117.942Z" fill="#FFE55D"/>
<path d="M144.273 86.6749C141.201 85.2184 137.998 84.0575 134.706 83.2076C134.648 83.1934 134.586 83.1968 134.529 83.2172C134.472 83.2376 134.422 83.2743 134.385 83.3226C134.361 83.3551 134.344 83.3921 134.335 83.4315C134.324 83.4706 134.322 83.5113 134.328 83.5512C134.334 83.5911 134.348 83.6294 134.369 83.6638C134.39 83.6984 134.417 83.7285 134.449 83.7525C134.482 83.7764 134.519 83.7937 134.558 83.8034C137.813 84.6422 140.98 85.7893 144.017 87.2292C146.919 88.5795 149.734 90.6029 149.741 93.7918C148.943 99.383 141.682 101.064 136.2 102.391C130.146 103.84 124.291 106.025 118.767 108.896C117.454 108.077 115.906 107.719 114.366 107.876C109.222 108.147 105.861 112.796 106.469 115.505C107.969 119.509 115.335 119.982 119.289 114.445C119.729 113.868 120.032 113.199 120.177 112.488C120.291 111.927 120.269 111.347 120.112 110.797C119.955 110.246 119.668 109.742 119.275 109.325C124.689 106.533 130.42 104.405 136.344 102.987C142.159 101.579 149.501 99.8369 150.349 93.8355C150.348 90.3384 147.448 88.1532 144.273 86.6749ZM118.605 109.536C117.578 109.2 116.461 109.278 115.492 109.754C114.853 109.251 114.128 108.867 113.353 108.62C115.034 108.308 117.285 108.448 118.605 109.536ZM109.807 117.649L109.784 117.643C109.187 117.484 108.635 117.192 108.167 116.789C107.663 116.422 107.278 115.916 107.058 115.332C106.938 114.617 107.045 113.882 107.365 113.231C107.831 112.236 108.491 111.344 109.308 110.608C110.124 109.872 111.08 109.308 112.119 108.949C112.146 108.964 112.176 108.974 112.206 108.98C113.742 109.202 115.139 109.991 116.123 111.191C117.106 112.392 117.604 113.917 117.519 115.466C117.52 115.483 117.523 115.5 117.527 115.517C115.501 117.392 112.562 118.568 109.803 117.649H109.807ZM119.378 110.595C119.606 111.159 119.675 111.774 119.579 112.373C119.356 113.34 118.854 114.22 118.134 114.903C118.073 113.119 117.316 111.43 116.024 110.197C116.572 109.984 117.164 109.909 117.747 109.979C118.331 110.048 118.889 110.26 119.372 110.595H119.378Z" fill="#4B1010"/>
<path d="M81.1159 42.4765C81.2002 39.5513 79.1369 36.045 76.1458 36.5572C73.7014 36.9275 71.7876 39.993 70.8905 42.5064C70.8631 42.583 70.8063 42.6456 70.7327 42.6804C70.6591 42.7152 70.5746 42.7194 70.498 42.6919C70.4213 42.6645 70.3587 42.6077 70.3239 42.5341C70.2891 42.4604 70.285 42.376 70.3124 42.2993C71.267 39.628 73.3418 36.3609 76.0485 35.9514C79.4597 35.3664 81.8236 39.2032 81.7293 42.4933C81.7221 42.5711 81.6856 42.6432 81.6271 42.695C81.5687 42.7468 81.4928 42.7744 81.4147 42.7723C81.3366 42.7701 81.2623 42.7383 81.2068 42.6834C81.1513 42.6285 81.1188 42.5545 81.1159 42.4765Z" fill="#FFE55D"/>
<path d="M80.6301 35.8222C79.4546 29.9404 75.9721 28.9943 73.2325 30.8506C71.505 32.1073 70.8701 34.0226 69.799 35.8344C69.7785 35.8691 69.7513 35.8994 69.7191 35.9236C69.6869 35.9478 69.6503 35.9655 69.6113 35.9755C69.5722 35.9855 69.5316 35.9878 69.4917 35.9821C69.4519 35.9765 69.4135 35.963 69.3788 35.9425C69.3441 35.922 69.3138 35.8949 69.2896 35.8627C69.2654 35.8305 69.2477 35.7938 69.2377 35.7548C69.2277 35.7158 69.2254 35.6752 69.2311 35.6353C69.2367 35.5954 69.2502 35.557 69.2707 35.5224C70.3272 33.7351 71.0112 31.7062 72.8798 30.3468C75.9782 28.2482 79.9622 29.3577 81.2312 35.7002C81.2418 35.7592 81.235 35.82 81.2116 35.8752C81.1882 35.9304 81.1492 35.9775 81.0994 36.0109C81.0496 36.0443 80.9911 36.0624 80.9312 36.063C80.8713 36.0637 80.8125 36.0469 80.7619 36.0146C80.6943 35.9703 80.6469 35.9012 80.6301 35.8222Z" fill="#FFE55D"/>
<path d="M75.3004 86.2329C74.3809 86.225 73.4912 85.9056 72.7767 85.3268C72.0621 84.7481 71.5649 83.9441 71.3662 83.0463C71.3556 82.9876 71.3624 82.9271 71.3856 82.8721C71.4088 82.8171 71.4476 82.7701 71.4971 82.7368C71.5466 82.7034 71.6047 82.6852 71.6644 82.6844C71.7241 82.6835 71.7827 82.7001 71.8331 82.732C71.9006 82.7757 71.9482 82.8431 71.9666 82.9214C72.1566 83.7924 72.6792 84.5549 73.4231 85.0464C74.1669 85.5379 75.0732 85.7196 75.9491 85.5528C76.6324 85.3771 77.2616 85.0347 77.7801 84.5561C78.3305 83.8728 78.7432 83.0893 78.9954 82.2489C79.0059 82.2101 79.024 82.1736 79.0487 82.1418C79.0733 82.1099 79.104 82.0832 79.139 82.0632C79.1739 82.0432 79.2125 82.0303 79.2524 82.0252C79.2924 82.0201 79.333 82.0229 79.3718 82.0335C79.4107 82.044 79.4471 82.0622 79.479 82.0868C79.5108 82.1114 79.5375 82.1421 79.5575 82.1771C79.5775 82.212 79.5905 82.2506 79.5956 82.2905C79.6007 82.3305 79.5979 82.3711 79.5873 82.4099C79.3068 83.3477 78.8426 84.2203 78.2217 84.977C77.4402 85.7477 76.3973 86.196 75.3004 86.2329Z" fill="#FFE55D"/>
<path d="M74.9423 92.9229C72.1314 92.9229 69.9362 89.9732 69.158 87.2489C69.136 87.1706 69.1459 87.0866 69.1855 87.0155C69.2252 86.9444 69.2913 86.8919 69.3696 86.8694C69.4479 86.8481 69.5315 86.858 69.6027 86.897C69.638 86.9164 69.6691 86.9427 69.6941 86.9743C69.7191 87.0059 69.7376 87.0422 69.7483 87.081C70.3924 89.3368 72.0655 91.818 74.3488 92.275C75.5735 92.4331 76.8109 92.1001 77.7908 91.3488C78.7509 90.5165 79.5557 89.5203 80.1677 88.4067C80.1878 88.3717 80.2147 88.3411 80.2467 88.3164C80.2787 88.2918 80.3152 88.2737 80.3542 88.2632C80.3932 88.2527 80.4338 88.25 80.4739 88.2552C80.5139 88.2605 80.5525 88.2735 80.5875 88.2936C80.6225 88.3138 80.6532 88.3406 80.6778 88.3726C80.7024 88.4046 80.7205 88.4411 80.731 88.4801C80.7415 88.5191 80.7442 88.5598 80.739 88.5998C80.7338 88.6398 80.7207 88.6784 80.7006 88.7134C80.0495 89.8947 79.1926 90.9503 78.1703 91.8303C77.2449 92.5417 76.1096 92.926 74.9423 92.9229Z" fill="#FFE55D"/>
<path d="M92.4076 95.1995L92.7358 97.331L62.4016 102.578C61.1902 102.78 60.76 100.733 61.9914 100.528L92.4076 95.1995Z" fill="#FFE55D"/>
<path d="M95.6681 95.8959L95.5914 95.5785C95.5274 95.2639 95.3439 94.9864 95.0795 94.8043C94.8151 94.6223 94.4904 94.5499 94.1737 94.6024C89.5962 95.3822 66.5247 99.462 61.9487 100.244C60.4383 100.503 60.814 102.878 62.2554 102.878C62.7423 102.878 92.2499 97.7407 94.6843 97.3389C95.005 97.2759 95.288 97.0892 95.4721 96.8191C95.6562 96.5491 95.7266 96.2174 95.6681 95.8959ZM62.3551 102.294C61.5194 102.43 61.1973 100.954 62.0423 100.812L91.52 95.6475C91.664 95.7109 91.7896 95.8099 91.8849 95.9352C91.9803 96.0605 92.0423 96.2079 92.0651 96.3636C92.089 96.5192 92.0731 96.6784 92.0188 96.8261C91.9645 96.9739 91.8736 97.1055 91.7546 97.2086L62.3551 102.294Z" fill="#4B1010"/>
<path d="M61.9506 100.46L57.9336 102.263L62.36 102.592C62.6169 102.512 62.8355 102.341 62.9738 102.11C63.1122 101.88 63.1607 101.606 63.11 101.342C63.0593 101.078 62.9129 100.842 62.699 100.68C62.4851 100.517 62.2186 100.439 61.9506 100.46Z" fill="white"/>
<path d="M57.9105 102.569C57.8598 102.565 57.8108 102.549 57.7679 102.522C57.7251 102.494 57.6898 102.456 57.6653 102.412C57.6407 102.367 57.6277 102.317 57.6274 102.266C57.6272 102.216 57.6396 102.165 57.6636 102.121C57.6952 102.06 57.7459 102.012 57.8078 101.984C62.1062 100.057 61.8501 100.16 61.9268 100.154C62.2687 100.128 62.6082 100.229 62.881 100.437C63.1537 100.644 63.3407 100.945 63.4066 101.282C63.472 101.619 63.4115 101.968 63.2365 102.263C63.0615 102.558 62.7843 102.779 62.4574 102.883C62.3707 102.913 62.6222 102.92 57.9105 102.569ZM59.1642 102.047L62.3163 102.281C62.4863 102.213 62.6273 102.088 62.7148 101.927C62.8023 101.766 62.8309 101.58 62.7956 101.4C62.7603 101.221 62.6634 101.059 62.5215 100.943C62.3797 100.827 62.2018 100.765 62.0188 100.766L59.1642 102.047Z" fill="#4B1010"/>
</svg>
