<svg width="154" height="155" viewBox="0 0 154 155" fill="none" xmlns="http://www.w3.org/2000/svg">
<path d="M104.544 107.95C97.6812 106.533 91.3128 103.334 86.0787 98.6758C86.0483 98.6491 86.0235 98.6167 86.0058 98.5804C85.988 98.544 85.9776 98.5046 85.9752 98.4642C85.9727 98.4239 85.9783 98.3834 85.9916 98.3452C86.0049 98.3071 86.0257 98.2719 86.0526 98.2418C86.0793 98.2114 86.1117 98.1866 86.148 98.1688C86.1844 98.1511 86.2238 98.1407 86.2642 98.1382C86.3045 98.1358 86.345 98.1414 86.3831 98.1547C86.4213 98.168 86.4565 98.1887 86.4866 98.2157C91.6397 102.803 97.9102 105.952 104.667 107.346C104.708 107.353 104.747 107.368 104.782 107.39C104.818 107.412 104.848 107.441 104.871 107.475C104.895 107.509 104.912 107.548 104.92 107.589C104.928 107.63 104.928 107.672 104.92 107.712C104.912 107.753 104.895 107.792 104.871 107.826C104.848 107.86 104.817 107.889 104.782 107.911C104.747 107.933 104.708 107.948 104.667 107.955C104.626 107.961 104.584 107.96 104.544 107.95Z" fill="#4B1010"/>
<path d="M146.753 130.161C145.166 129.819 143.514 129.933 141.988 130.49C143.385 129.586 144.863 128.025 144.452 126.464C144.124 125.149 142.645 124.327 141.33 123.998C139.407 123.471 137.394 123.36 135.425 123.672C133.455 123.983 131.575 124.711 129.909 125.806C130.299 125.265 130.48 124.602 130.42 123.938C130.36 123.273 130.062 122.653 129.581 122.191C128.526 121.359 127.227 120.898 125.884 120.877C123.61 120.779 121.348 121.259 119.311 122.273C117.894 122.883 116.753 123.995 116.106 125.395C115.901 126.101 115.908 126.852 116.127 127.554C116.347 128.255 116.768 128.877 117.339 129.34C113.93 128.348 110.288 128.521 106.988 129.833C103.615 130.796 102.234 135.112 106.166 136.323C108.266 137.023 110.803 137.138 113.089 137.566C112.939 137.606 112.8 137.678 112.682 137.777C112.563 137.876 112.468 138 112.403 138.14C112.338 138.281 112.305 138.434 112.307 138.588C112.308 138.743 112.344 138.895 112.411 139.034C112.627 139.367 112.918 139.644 113.26 139.843C113.603 140.043 113.987 140.16 114.383 140.184C118.815 141.162 123.434 140.848 127.693 139.28C128.322 139.02 128.987 138.854 129.665 138.787C130.979 138.787 132.705 139.691 134.102 140.02C136.238 140.513 138.374 140.924 140.511 140.102C141.332 139.774 142.154 139.198 142.154 138.376C142.154 137.637 141.497 137.144 141.004 136.733C143.49 136.738 145.941 136.146 148.151 135.008C148.694 134.764 149.152 134.364 149.466 133.858C150.323 132.144 148.676 130.51 146.753 130.161Z" fill="white"/>
<path d="M114.315 140.484C112.789 140.335 111.359 138.983 112.287 137.735C110.188 137.524 108.109 137.149 106.069 136.613C101.859 135.319 103.21 130.593 106.903 129.537C109.917 128.334 113.224 128.071 116.39 128.782C116.041 128.283 115.809 127.713 115.709 127.113C115.609 126.513 115.644 125.898 115.812 125.313C116.487 123.823 117.693 122.638 119.195 121.989C121.274 120.961 123.578 120.472 125.896 120.569C127.303 120.591 128.664 121.076 129.769 121.949C130.17 122.337 130.462 122.823 130.615 123.36C130.768 123.896 130.778 124.463 130.642 125.005C133.922 123.171 137.791 122.703 141.413 123.701C144.72 124.528 146.101 127.186 143.36 129.799C144.506 129.596 145.679 129.617 146.817 129.859C148.987 130.253 150.68 132.112 149.74 133.993C149.394 134.559 148.887 135.009 148.283 135.284C146.27 136.319 144.058 136.911 141.798 137.019C143.096 138.307 142.391 139.678 140.624 140.385C138.443 141.224 136.262 140.832 134.03 140.317C132.696 140.004 130.882 139.09 129.659 139.09C129.023 139.157 128.4 139.314 127.808 139.558C123.492 141.152 118.809 141.474 114.315 140.484ZM113.071 137.869C112.887 137.954 112.742 138.108 112.669 138.297C112.595 138.487 112.599 138.698 112.678 138.885C112.874 139.171 113.131 139.409 113.431 139.581C113.732 139.754 114.067 139.857 114.412 139.882C118.798 140.853 123.371 140.545 127.587 138.995C128.239 138.726 128.928 138.554 129.63 138.485C131.01 138.464 132.774 139.393 134.171 139.724C136.384 140.234 138.381 140.595 140.399 139.818C140.831 139.645 141.846 139.156 141.846 138.379C141.846 137.831 141.344 137.417 140.902 137.052L140.806 136.975C140.758 136.934 140.724 136.88 140.707 136.819C140.691 136.759 140.693 136.695 140.714 136.635C140.736 136.576 140.775 136.525 140.827 136.489C140.878 136.452 140.94 136.433 141.002 136.433C143.437 136.415 145.835 135.837 148.009 134.742C150.486 133.515 149.356 130.951 146.699 130.468C145.166 130.138 143.571 130.247 142.098 130.783C142.027 130.809 141.949 130.808 141.879 130.78C141.809 130.753 141.751 130.7 141.718 130.632C141.684 130.565 141.676 130.487 141.696 130.414C141.716 130.342 141.762 130.279 141.825 130.238C143.191 129.354 144.522 127.92 144.161 126.547C143.861 125.351 142.466 124.604 141.26 124.302C139.379 123.782 137.409 123.67 135.481 123.974C133.553 124.279 131.713 124.992 130.083 126.066C130.022 126.105 129.95 126.122 129.878 126.114C129.806 126.105 129.739 126.071 129.69 126.018C129.641 125.965 129.612 125.896 129.608 125.824C129.605 125.751 129.627 125.68 129.671 125.623C130.017 125.14 130.176 124.55 130.119 123.96C130.063 123.369 129.795 122.819 129.365 122.411C128.374 121.625 127.149 121.193 125.884 121.185C123.659 121.071 121.442 121.541 119.453 122.547C118.097 123.128 117.005 124.19 116.386 125.528C116.206 126.17 116.218 126.851 116.421 127.486C116.625 128.121 117.011 128.683 117.531 129.1C117.587 129.144 117.626 129.206 117.642 129.276C117.657 129.346 117.648 129.418 117.616 129.482C117.583 129.546 117.53 129.596 117.464 129.624C117.399 129.653 117.326 129.657 117.257 129.637C113.913 128.658 110.338 128.828 107.102 130.12C103.959 131.023 102.635 134.919 106.259 136.033C108.291 136.71 110.831 136.837 113.07 137.248C113.271 137.224 113.473 137.271 113.643 137.38C113.704 137.418 113.75 137.476 113.772 137.545C113.795 137.613 113.792 137.687 113.765 137.754C113.739 137.821 113.689 137.876 113.626 137.91C113.563 137.945 113.489 137.955 113.419 137.94L113.071 137.869Z" fill="#4B1010"/>
<path d="M97.8673 133.283L61.5518 121.288V123.008L97.8673 135.414L140.263 121.591L140.838 119.645L97.8673 133.283Z" fill="white"/>
<path d="M97.8673 133.283L61.4697 121.205L106.988 109.785L140.921 119.644L97.8673 133.283Z" fill="white"/>
<path d="M141.006 119.35L106.913 109.487L61.3946 120.908C61.3433 120.919 61.296 120.944 61.2574 120.979C61.2189 121.015 61.1905 121.06 61.1753 121.11C61.1601 121.161 61.1585 121.214 61.1708 121.265C61.183 121.316 61.2087 121.363 61.2451 121.401V123.011C61.2449 123.075 61.2649 123.137 61.3022 123.189C61.3395 123.241 61.3922 123.28 61.4529 123.301L97.7684 135.708C97.9217 135.761 97.8389 135.793 140.358 121.885C140.564 121.818 140.517 121.819 141.087 119.886C141.137 119.856 141.177 119.812 141.202 119.76C141.226 119.707 141.235 119.648 141.226 119.591C141.218 119.533 141.192 119.48 141.153 119.437C141.114 119.394 141.063 119.364 141.006 119.35ZM106.982 110.103L139.823 119.645L97.8696 132.961L62.5669 121.246L106.982 110.103ZM140.015 121.349L97.8696 135.091L61.8585 122.789V121.715L97.7722 133.578C97.9363 133.631 97.7899 133.633 140.372 120.143L140.015 121.349Z" fill="#4B1010"/>
<path d="M92.445 119.458C92.3684 119.458 92.4289 119.458 84.6342 117.145C84.5699 117.126 84.5137 117.086 84.4742 117.032C84.4347 116.977 84.4141 116.912 84.4156 116.844C84.4171 116.777 84.4405 116.713 84.4824 116.66C84.5242 116.608 84.5821 116.57 84.6472 116.554C95.305 113.881 95.2 113.892 95.3219 113.927L103.456 116.227C103.522 116.245 103.58 116.285 103.62 116.339C103.661 116.394 103.682 116.46 103.68 116.528C103.679 116.596 103.655 116.662 103.612 116.715C103.57 116.768 103.511 116.805 103.445 116.821L92.445 119.458ZM85.8832 116.877L92.4535 118.834L102.161 116.499L95.2337 114.54L85.8832 116.877Z" fill="#4B1010"/>
<path d="M122.028 123.295C103.315 117.747 103.428 117.753 103.294 117.786L78.8104 124.196C78.7624 124.208 78.7182 124.232 78.6815 124.265C78.6447 124.298 78.6166 124.339 78.5994 124.386C78.5823 124.432 78.5767 124.482 78.5832 124.531C78.5896 124.58 78.6078 124.627 78.6363 124.667C78.6739 124.721 78.7276 124.762 78.7904 124.783C98.686 131.395 98.5496 131.405 98.7006 131.357L122.034 123.881C122.096 123.86 122.151 123.821 122.189 123.768C122.227 123.715 122.247 123.651 122.247 123.585C122.247 123.52 122.225 123.456 122.186 123.404C122.146 123.351 122.091 123.313 122.028 123.295ZM114.395 121.671L91.3398 128.32L85.7425 126.454L109.604 120.251L114.395 121.671ZM103.367 118.401L108.459 119.911L84.676 126.098L79.9643 124.528L103.367 118.401ZM98.6086 130.746L92.3803 128.67L115.487 121.999L120.9 123.604L98.6086 130.746Z" fill="#4B1010"/>
<path d="M106.103 90.5785L148.91 78.9116L140.858 119.582L97.9692 133.22L106.103 90.5785Z" fill="white"/>
<path d="M97.9692 133.528C97.924 133.528 97.8792 133.518 97.8382 133.499C97.7972 133.48 97.761 133.452 97.7322 133.417C97.7033 133.382 97.6826 133.341 97.6715 133.298C97.6603 133.254 97.6591 133.208 97.6679 133.164L105.802 90.5208C105.812 90.4643 105.838 90.4118 105.877 90.3696C105.917 90.3274 105.967 90.2972 106.022 90.2823L148.829 78.6155C148.88 78.601 148.933 78.5999 148.984 78.6123C149.035 78.6247 149.082 78.6501 149.12 78.686C149.158 78.7217 149.187 78.7665 149.203 78.8163C149.219 78.866 149.222 78.9191 149.213 78.9705L141.162 119.641C141.151 119.695 141.126 119.744 141.089 119.785C141.053 119.825 141.006 119.855 140.954 119.871L97.9692 133.528ZM106.368 90.8237L98.3672 132.772L140.592 119.344L148.513 79.337L106.368 90.8237Z" fill="#4B1010"/>
<path d="M26.7977 37.131C26.5983 37.131 26.7325 37.1961 19.5135 29.8921C19.4852 29.8635 19.4628 29.8295 19.4475 29.7922C19.4323 29.7549 19.4246 29.7149 19.4248 29.6746C19.425 29.6343 19.4332 29.5945 19.4488 29.5573C19.4644 29.5202 19.4872 29.4865 19.5158 29.4581C19.5445 29.4298 19.5784 29.4073 19.6157 29.3921C19.6531 29.3769 19.693 29.3692 19.7333 29.3694C19.7736 29.3696 19.8135 29.3778 19.8506 29.3934C19.8878 29.409 19.9215 29.4318 19.9498 29.4604L27.0154 36.6088C27.0579 36.6518 27.0867 36.7064 27.0982 36.7658C27.1097 36.8251 27.1035 36.8865 27.0802 36.9423C27.0569 36.9981 27.0177 37.0458 26.9674 37.0793C26.9172 37.1129 26.8581 37.1309 26.7977 37.131Z" fill="#4B1010"/>
<path d="M53.6861 29.426L53.8501 15.5402C53.8506 15.4999 53.8591 15.4601 53.875 15.4231C53.8908 15.3861 53.9138 15.3526 53.9427 15.3244C53.9715 15.2963 54.0056 15.2742 54.043 15.2592C54.0804 15.2443 54.1204 15.2368 54.1607 15.2373C54.201 15.2378 54.2407 15.2463 54.2778 15.2621C54.3148 15.278 54.3483 15.301 54.3764 15.3299C54.4045 15.3587 54.4267 15.3928 54.4417 15.4302C54.4566 15.4676 54.464 15.5076 54.4635 15.5479L54.2995 29.4337C54.299 29.474 54.2905 29.5137 54.2746 29.5508C54.2588 29.5878 54.2358 29.6213 54.2069 29.6494C54.1781 29.6776 54.144 29.6997 54.1066 29.7147C54.0692 29.7296 54.0292 29.7371 53.9889 29.7366C53.9486 29.736 53.9089 29.7276 53.8718 29.7117C53.8348 29.6959 53.8013 29.6728 53.7732 29.644C53.7451 29.6152 53.7229 29.5811 53.7079 29.5437C53.693 29.5063 53.6856 29.4663 53.6861 29.426Z" fill="#4B1010"/>
<path d="M85.0429 36.1585L91.7803 26.2981C91.8158 26.2509 91.8641 26.2149 91.9195 26.1944C91.9749 26.1739 92.0351 26.1698 92.0927 26.1826C92.1504 26.1954 92.2032 26.2245 92.2447 26.2664C92.2863 26.3084 92.3148 26.3615 92.327 26.4193C92.3431 26.4968 92.3286 26.5776 92.2864 26.6447L85.549 36.5043C85.5017 36.5679 85.4317 36.6108 85.3535 36.6239C85.2754 36.637 85.1952 36.6193 85.1298 36.5746C85.0643 36.5299 85.0187 36.4616 85.0026 36.3841C84.9864 36.3065 85.0008 36.2257 85.0429 36.1585Z" fill="#4B1010"/>
<path d="M100.415 53.3171C100.346 53.3172 100.279 53.2942 100.225 53.2516C100.171 53.2091 100.133 53.1495 100.117 53.0826C100.1 53.0156 100.107 52.9452 100.136 52.8826C100.165 52.82 100.213 52.7689 100.275 52.7375L112.763 46.3267C112.799 46.3083 112.838 46.2971 112.878 46.2938C112.918 46.2905 112.959 46.2951 112.997 46.3074C113.035 46.3197 113.071 46.3395 113.102 46.3655C113.132 46.3916 113.158 46.4235 113.176 46.4593C113.195 46.4952 113.206 46.5343 113.209 46.5745C113.212 46.6146 113.208 46.6551 113.195 46.6934C113.183 46.7318 113.163 46.7674 113.137 46.7981C113.111 46.8289 113.079 46.8542 113.043 46.8726C100.433 53.3524 100.532 53.3171 100.415 53.3171Z" fill="#4B1010"/>
<path d="M106.495 72.2967C106.414 72.2979 106.335 72.2666 106.277 72.2099C106.219 72.1532 106.185 72.0756 106.184 71.9943C106.183 71.9129 106.214 71.8345 106.271 71.7761C106.328 71.7178 106.405 71.6845 106.487 71.6833L112.32 71.5193C112.381 71.517 112.441 71.5329 112.492 71.565C112.544 71.5972 112.585 71.6439 112.61 71.6994C112.643 71.7741 112.645 71.8587 112.615 71.9348C112.586 72.0108 112.528 72.0721 112.453 72.1058C112.417 72.1224 112.377 72.1315 112.337 72.1327L106.495 72.2967Z" fill="#4B1010"/>
<path d="M41.4639 126.682L44.1751 119.452C44.2042 119.376 44.262 119.314 44.3361 119.281C44.4101 119.247 44.4944 119.244 44.5707 119.272C44.6467 119.301 44.7081 119.359 44.7415 119.433C44.775 119.507 44.7778 119.592 44.7494 119.668L42.0382 126.9C42.0168 126.957 41.9789 127.006 41.9294 127.042C41.8799 127.077 41.821 127.097 41.7601 127.099C41.6993 127.101 41.6393 127.084 41.5877 127.052C41.5362 127.019 41.4955 126.972 41.4708 126.917C41.4374 126.843 41.435 126.758 41.4639 126.682Z" fill="#4B1010"/>
<path d="M5.763 73.8576C5.68166 73.8599 5.60276 73.8297 5.54366 73.7738C5.48456 73.7178 5.45011 73.6407 5.44787 73.5594C5.44563 73.478 5.4758 73.3991 5.53174 73.34C5.58767 73.2809 5.66479 73.2465 5.74614 73.2442L16.0206 72.6692C16.1019 72.6647 16.1817 72.6927 16.2424 72.7471C16.3031 72.8014 16.3397 72.8777 16.3441 72.959C16.3486 73.0403 16.3206 73.1201 16.2662 73.1808C16.2119 73.2415 16.1356 73.2781 16.0543 73.2826L5.763 73.8576Z" fill="#4B1010"/>
<path d="M74.9446 14.4758C75.1095 15.5611 75.4413 16.6143 75.9284 17.598C76.0807 18.122 76.3977 18.5831 76.8324 18.913C77.1989 19.094 77.5845 19.232 77.9825 19.324C78.9747 19.5463 80.0366 19.817 81.0227 19.9811C79.6947 20.2358 78.4178 20.7078 77.2433 21.3781C75.6002 22.4462 75.3533 23.7604 74.7783 26.3075C74.2852 21.707 71.9029 21.2953 68.9448 20.4741C70.1226 20.244 71.2789 19.9149 72.4013 19.4904C72.6899 19.3742 72.9494 19.196 73.1614 18.9683C73.3734 18.7407 73.5328 18.4692 73.6281 18.1731C74.2113 16.9969 74.6532 15.7559 74.9446 14.4758Z" fill="#FFE55D"/>
<path d="M74.4751 26.3399C74.035 22.2362 72.2515 21.7072 68.864 20.7694C68.7981 20.7509 68.7403 20.7109 68.6997 20.6558C68.6592 20.6006 68.6382 20.5335 68.6403 20.465C68.6423 20.3966 68.6672 20.3308 68.7109 20.2782C68.7546 20.2255 68.8148 20.189 68.8816 20.1744C70.0394 19.9367 71.1781 19.6116 72.2868 19.2007C72.5302 19.1002 72.7494 18.9491 72.93 18.7574C73.1106 18.5657 73.2483 18.3378 73.3342 18.0889C73.9142 16.9136 74.355 15.6746 74.6476 14.397C74.6657 14.3289 74.7066 14.2691 74.7636 14.2276C74.8206 14.1862 74.8901 14.1656 74.9605 14.1694C75.0308 14.1732 75.0978 14.2011 75.15 14.2484C75.2022 14.2957 75.2365 14.3595 75.2472 14.4292C75.4067 15.4836 75.7296 16.5067 76.2041 17.4617C76.3386 17.9441 76.627 18.3695 77.0253 18.6731C78.3432 19.1251 79.6981 19.4612 81.0745 19.6776C81.1457 19.6896 81.2105 19.7263 81.2575 19.7812C81.3044 19.8362 81.3306 19.9059 81.3313 19.9781C81.3322 20.0503 81.3075 20.1204 81.2616 20.1761C81.2157 20.2318 81.1516 20.2695 81.0806 20.2825C79.7873 20.5309 78.5438 20.991 77.4002 21.6443C75.7747 22.7016 75.5746 24.1914 75.0823 26.3751C75.0685 26.4483 75.0284 26.514 74.9697 26.5598C74.911 26.6057 74.8376 26.6286 74.7632 26.6242C74.6888 26.6199 74.6186 26.5887 74.5656 26.5363C74.5125 26.484 74.4804 26.4142 74.4751 26.3399ZM70.1859 20.4988C72.2952 21.1022 74.0879 21.8613 74.8224 24.7619C75.4082 22.4034 76.1106 21.1083 79.6054 20.0195C78.6026 19.8724 77.6239 19.5927 76.6948 19.1876C76.1847 18.8168 75.8116 18.2876 75.6336 17.6825C75.3261 17.0699 75.0815 16.4276 74.9037 15.7656C74.6566 16.6475 74.3197 17.5018 73.8985 18.3151C73.7854 18.6416 73.6037 18.9401 73.3656 19.1906C73.1276 19.4411 72.8387 19.6377 72.5183 19.7673C71.7554 20.0556 70.9772 20.3002 70.1859 20.4988Z" fill="#4B1010"/>
<path d="M113.729 60.0769C112.74 59.9864 110.676 59.9626 109.867 60.5691C109.17 61.4783 108.59 62.4723 108.142 63.5273C108.223 62.4529 108.14 61.3724 107.896 60.323C107.403 58.8439 106.499 58.3509 104.691 57.3649C108.306 58.0228 109.128 56.2148 110.442 54.1606C110.359 55.1176 110.359 56.0798 110.442 57.0367C110.522 57.5267 110.787 57.9676 111.181 58.2689C111.941 58.9894 112.799 59.5981 113.729 60.0769Z" fill="#FFE55D"/>
<path d="M107.831 63.5017C107.91 62.4584 107.83 61.4091 107.592 60.3902C107.145 59.053 106.328 58.6083 104.54 57.6299C104.492 57.6035 104.453 57.5651 104.425 57.5186C104.397 57.4721 104.382 57.419 104.382 57.3649C104.381 57.3107 104.395 57.2573 104.422 57.2102C104.448 57.163 104.487 57.1237 104.534 57.0963C104.596 57.0598 104.67 57.0468 104.741 57.0595C107.891 57.6314 108.734 56.2927 109.9 54.4341L110.179 53.9909C110.216 53.933 110.271 53.8891 110.336 53.8663C110.401 53.8435 110.471 53.8431 110.536 53.8651C110.601 53.887 110.657 53.9302 110.694 53.9876C110.732 54.0451 110.749 54.1135 110.743 54.1818C110.663 55.1217 110.663 56.0667 110.743 57.0065C110.815 57.4129 111.039 57.7771 111.369 58.0256C112.116 58.7317 112.958 59.3299 113.871 59.8029C113.933 59.8367 113.981 59.8908 114.008 59.9562C114.035 60.0215 114.039 60.0941 114.018 60.1617C113.998 60.2293 113.954 60.2878 113.896 60.3272C113.837 60.3666 113.767 60.3845 113.696 60.3779C112.656 60.2836 110.738 60.2921 110.046 60.8104C109.396 61.6904 108.849 62.6423 108.417 63.6474C108.388 63.7129 108.336 63.7661 108.271 63.7975C108.207 63.8289 108.133 63.8366 108.063 63.8193C107.994 63.8019 107.932 63.7606 107.89 63.7026C107.847 63.6445 107.827 63.5734 107.831 63.5017ZM106.1 57.8086C107.716 58.7915 108.332 59.7178 108.46 62.179C108.763 61.5144 109.162 60.8982 109.645 60.3503C110.531 59.8952 111.519 59.6763 112.514 59.7147C111.955 59.3592 111.434 58.9465 110.96 58.4833C110.519 58.1378 110.224 57.6383 110.135 57.0848C110.084 56.494 110.063 55.9011 110.073 55.3082C109.181 56.6853 108.234 57.804 106.1 57.8101V57.8086Z" fill="#4B1010"/>
<path d="M18.5583 115.458L25.6239 110.034C25.6558 110.01 25.6923 109.992 25.7312 109.981C25.7702 109.971 25.8108 109.968 25.8508 109.973C25.8908 109.978 25.9294 109.992 25.9643 110.012C25.9992 110.032 26.0297 110.059 26.0541 110.091C26.0786 110.123 26.0966 110.16 26.107 110.199C26.1174 110.237 26.1201 110.278 26.1148 110.318C26.1095 110.358 26.0965 110.397 26.0763 110.431C26.0561 110.466 26.0293 110.497 25.9973 110.521L18.9317 115.948C18.8668 115.997 18.7848 116.019 18.7038 116.008C18.6229 115.997 18.5496 115.954 18.5 115.889C18.4505 115.824 18.4289 115.742 18.4398 115.661C18.4507 115.58 18.4934 115.507 18.5583 115.458Z" fill="#4B1010"/>
<path d="M57.4429 44.3004C48.6901 44.2951 40.2618 47.6136 33.8623 53.585C38.4166 51.2096 43.728 50.7407 48.6281 52.2814C53.5281 53.8222 57.6154 57.2464 59.9908 61.8007C62.3662 66.355 62.8351 71.6664 61.2943 76.5665C59.7536 81.4665 56.3294 85.5538 51.7751 87.9292C39.3537 94.4113 24.3454 85.8352 23.5112 72.0713C23.0486 74.3418 22.8283 76.655 22.8541 78.972C22.8536 84.1017 23.9914 89.1675 26.1854 93.8043C28.3793 98.4412 31.5748 102.533 35.5415 105.786C39.5081 109.038 44.1471 111.37 49.1239 112.613C54.1006 113.856 59.2912 113.98 64.3214 112.974C71.0499 111.63 77.2283 108.32 82.0743 103.462C86.9203 98.6045 90.216 92.4182 91.5441 85.6864C92.538 80.6538 92.4028 75.4633 91.1481 70.4893C89.8934 65.5153 87.5505 60.8817 84.2884 56.9227C81.0262 52.9636 76.9262 49.7779 72.2839 47.5952C67.6416 45.4125 62.5727 44.2871 57.4429 44.3004Z" fill="#FFE55D"/>
<path d="M57.5265 113.954C48.2528 113.942 39.3622 110.253 32.8048 103.696C26.2474 97.1382 22.5586 88.2475 22.5474 78.9738C22.5217 76.6352 22.7442 74.3004 23.2114 72.0087C23.2266 71.9358 23.2678 71.8709 23.3273 71.8262C23.3868 71.7814 23.4606 71.7598 23.5349 71.7655C23.6091 71.7711 23.6788 71.8035 23.7309 71.8568C23.783 71.91 23.8139 71.9803 23.8179 72.0547C24.0996 76.1484 25.6955 80.0418 28.3682 83.1554C31.0408 86.2691 34.6473 88.4367 38.651 89.3355C42.6548 90.2344 46.8417 89.8166 50.5889 88.1442C54.336 86.4719 57.4431 83.6343 59.4477 80.0539C61.4523 76.4735 62.2473 72.3415 61.7145 68.2729C61.1816 64.2042 59.3494 60.4163 56.4904 57.4729C53.6313 54.5294 49.8984 52.5877 45.847 51.9367C41.7955 51.2857 37.6422 51.9602 34.0049 53.8597C33.939 53.8948 33.8625 53.9046 33.7898 53.8872C33.7171 53.8699 33.6533 53.8266 33.6102 53.7655C33.5672 53.7044 33.548 53.6297 33.5561 53.5554C33.5643 53.4812 33.5993 53.4124 33.6545 53.3621C40.1021 47.3241 48.6104 43.9736 57.4437 43.994C62.0373 43.9886 66.587 44.8879 70.8331 46.6408C75.0791 48.3937 78.9383 50.9657 82.1903 54.2101C85.4423 57.4544 88.0235 61.3075 89.7864 65.5494C91.5494 69.7912 92.4595 74.3388 92.465 78.9324C92.4704 83.5261 91.571 88.0758 89.8181 92.3218C88.0652 96.5678 85.4932 100.427 82.2489 103.679C79.0045 106.931 75.1514 109.512 70.9096 111.275C66.6677 113.038 62.1201 113.948 57.5265 113.954ZM23.4529 74.2062C22.4766 81.1464 23.6441 88.2192 26.7993 94.4774C29.9544 100.736 34.9465 105.88 41.1068 109.222C47.2672 112.564 54.3017 113.944 61.2681 113.177C68.2346 112.41 74.8003 109.533 80.086 104.931C85.3716 100.328 89.1248 94.2208 90.8428 87.4261C92.5608 80.6314 92.1616 73.4739 89.6986 66.9124C87.2357 60.3509 82.8266 54.6986 77.0619 50.7126C71.2972 46.7266 64.4522 44.5972 57.4437 44.6097C49.4688 44.5907 41.7397 47.3691 35.6021 52.4612C39.377 50.9723 43.5199 50.6872 47.4631 51.6451C51.4064 52.603 54.9569 54.757 57.628 57.8118C60.2991 60.8665 61.9601 64.6727 62.3833 68.7084C62.8066 72.7442 61.9714 76.8121 59.9921 80.3546C58.0129 83.8971 54.9866 86.7408 51.3279 88.4959C47.6692 90.2511 43.5572 90.8318 39.5556 90.1584C35.5539 89.4851 31.8585 87.5906 28.9757 84.7347C26.0929 81.8789 24.1638 78.2013 23.4529 74.2062Z" fill="#4B1010"/>
<path d="M83.4545 83.776C83.591 80.1478 80.1353 77.0731 75.7372 76.9083C71.3391 76.7434 67.6633 79.5497 67.5269 83.178C67.3904 86.8055 70.8453 89.8801 75.2442 90.0458C79.6423 90.2106 83.318 87.4035 83.4545 83.776Z" fill="white"/>
<path d="M100.554 84.7138C100.678 81.4038 97.6906 78.6044 93.8821 78.4618C90.0729 78.3184 86.8848 80.8862 86.7606 84.1963C86.6364 87.5063 89.6228 90.305 93.4321 90.4484C97.2405 90.591 100.429 88.0239 100.554 84.7138Z" fill="white"/>
<path d="M81.4855 94.7652C80.9951 94.7837 80.5075 94.6845 80.0633 94.4759C79.6191 94.2674 79.2313 93.9554 78.9324 93.5663C78.6335 93.1771 78.4321 92.722 78.3451 92.2391C78.2581 91.7561 78.288 91.2594 78.4323 90.7903C78.4453 90.7522 78.4653 90.7168 78.4914 90.6861C78.5453 90.6255 78.6206 90.5881 78.7015 90.5818C78.7416 90.5785 78.7821 90.5835 78.8203 90.5964C78.8586 90.6094 78.8939 90.6293 78.9246 90.6554C78.9854 90.7092 79.0231 90.7845 79.0296 90.8655C79.0323 90.9057 79.027 90.9461 79.0143 90.9843C78.8633 91.4139 78.845 91.8789 78.9616 92.319C79.0782 92.7592 79.3245 93.1541 79.6683 93.4525C81.1719 94.7253 83.0282 94.2829 85.5025 92.0555C85.5475 92.0145 85.6037 91.9878 85.6639 91.979C85.7241 91.9701 85.7856 91.9794 85.8406 92.0056C85.8955 92.0319 85.9413 92.0739 85.9722 92.1264C86.0031 92.1788 86.0176 92.2393 86.0139 92.3001C86.0096 92.3812 85.9732 92.4574 85.9127 92.5117C85.1927 93.1596 83.4093 94.7644 81.4855 94.7652Z" fill="#4B1010"/>
<path d="M80.111 81.6891C80.0762 81.5024 79.9887 81.3296 79.8588 81.1912C79.7289 81.0527 79.562 80.9543 79.3779 80.9077C79.1938 80.862 79.0004 80.8699 78.8206 80.9307C78.6408 80.9914 78.4822 81.1024 78.3635 81.2505C77.3468 82.2473 77.4986 84.3941 78.7224 84.3941C79.7207 84.3972 80.4621 82.8108 80.111 81.6891Z" fill="#4B1010"/>
<path d="M90.7608 82.7026C90.726 82.516 90.6385 82.3432 90.5086 82.2047C90.3787 82.0662 90.2119 81.9679 90.0278 81.9213C89.8435 81.8749 89.6497 81.8826 89.4696 81.9435C89.2896 82.0044 89.1309 82.116 89.0126 82.2648C87.9967 83.2616 88.1477 85.4085 89.3715 85.4085C90.3713 85.4115 91.1097 83.8259 90.7608 82.7026Z" fill="#4B1010"/>
<path d="M98.9024 80.1765C95.0847 76.5996 88.1679 77.9598 86.6988 82.7704C86.5347 82.576 86.327 82.4231 86.0927 82.3241C85.8583 82.2251 85.6039 82.1828 85.3501 82.2007C84.7675 82.1938 84.1922 82.3302 83.6748 82.5979C83.1166 79.3453 79.8226 76.7553 75.7489 76.6019C72.2747 76.4754 69.2315 78.1523 67.9158 80.632L66.5877 80.4847L61.2259 76.9922C61.1578 76.9516 61.0767 76.939 60.9995 76.9569C60.9223 76.9749 60.8551 77.022 60.8118 77.0884C60.7686 77.1548 60.7528 77.2354 60.7677 77.3132C60.7825 77.391 60.8269 77.4601 60.8916 77.5059C66.6836 81.2799 66.3409 81.0744 66.4474 81.0859L67.6413 81.2193C65.8509 85.6664 69.828 90.1488 75.2321 90.352C79.7298 90.5123 83.9792 87.5281 83.7484 83.2657C84.2263 82.9617 84.7829 82.8045 85.3493 82.8134C85.583 82.8133 85.8131 82.8701 86.02 82.9786C86.2269 83.0872 86.4043 83.2444 86.537 83.4367C85.8753 87.2398 89.17 90.5959 93.4201 90.7561C99.8823 90.9869 103.267 84.2656 98.9024 80.1765ZM75.2558 89.7394C71.3362 89.5922 67.6942 86.884 67.8329 83.1898C67.9625 79.7395 71.5064 77.0558 75.7259 77.2153C79.9453 77.3748 83.2783 80.3122 83.1488 83.7649C83.0192 87.2176 79.4783 89.8973 75.2558 89.7394ZM93.4431 90.1427C89.959 90.0124 86.9442 87.4783 87.0661 84.2081C87.1872 80.9946 90.3309 78.6323 93.8702 78.768C97.3689 78.8991 100.37 81.4455 100.247 84.7026C100.13 87.8394 97.0806 90.2869 93.4431 90.1427Z" fill="#4B1010"/>
<path d="M98.4391 119.585C97.6578 117.613 95.5738 116.497 93.946 115.905C91.9187 115.167 89.6913 114.959 87.4892 114.095C87.1491 113.899 86.7681 113.784 86.3761 113.759C85.9841 113.734 85.5917 113.801 85.2296 113.953C84.2184 114.503 83.4003 115.349 82.8856 116.379C78.6283 115.192 74.7358 112.959 71.5628 109.883C68.3898 106.806 66.0373 102.984 64.7198 98.7658C64.693 98.6915 64.6386 98.6303 64.5678 98.5951C64.497 98.5599 64.4154 98.5534 64.3399 98.5769C64.2644 98.6004 64.201 98.6522 64.1627 98.7214C64.1245 98.7906 64.1145 98.8719 64.1348 98.9483C65.4786 103.252 67.8754 107.153 71.1079 110.297C74.3404 113.44 78.3064 115.728 82.6464 116.951C82.2385 118.152 82.2591 119.457 82.7047 120.645C82.812 120.947 82.9868 121.221 83.2153 121.445C83.4473 121.633 83.7149 121.772 84.002 121.854C84.2891 121.936 84.5898 121.959 84.8861 121.922C85.4078 121.909 85.9297 121.937 86.4472 122.004C87.2908 122.002 88.1325 122.084 88.9598 122.249C89.2655 122.285 89.5608 122.382 89.8286 122.534C90.0964 122.686 90.3312 122.889 90.5194 123.133C90.7287 123.622 90.2939 124.351 90.7264 125.094C90.8513 125.251 91.0101 125.378 91.191 125.464C91.3718 125.551 91.57 125.596 91.7707 125.596C92.1642 125.556 92.5342 125.39 92.8255 125.123C93.1169 124.855 93.3138 124.501 93.387 124.112C93.5504 123.702 93.6362 123.264 93.64 122.823C93.7106 123.178 93.7328 123.54 93.7067 123.901C94.018 125.301 96.3689 124.624 96.3651 122.083C96.2669 120.9 95.7885 120.387 96.1488 120.821C96.4601 121.209 96.6541 121.853 97.3281 122.141C98.9068 122.871 99.0747 120.098 98.4391 119.585Z" fill="#4B1010"/>
<path d="M62.5374 111.347C61.8473 109.883 60.4013 109.128 58.9222 108.553C54.6276 106.968 49.9448 106.767 45.5302 107.978C46.2956 107.402 46.8644 106.603 47.1585 105.691C47.4526 104.779 47.4578 103.799 47.1733 102.884C45.9227 98.7749 38.9929 96.8066 34.5986 97.0504C32.8697 97.0414 31.1892 97.6209 29.8333 98.6936C28.6003 99.8437 28.2722 102.063 29.4223 103.294C27.2711 101.896 24.8488 100.969 22.3142 100.572C19.7796 100.176 17.1898 100.32 14.7145 100.994C9.33348 102.532 9.39328 106.646 13.8113 109.456C11.8573 108.771 9.7483 108.657 7.73174 109.128C6.60105 109.309 5.56153 109.858 4.77362 110.689C4.37908 111.094 4.11987 111.612 4.03159 112.171C3.94331 112.731 4.0303 113.303 4.2806 113.811C4.69167 114.468 5.29356 114.984 6.00579 115.29C8.8335 116.862 12.0679 117.549 15.2903 117.262C14.5504 117.837 13.7292 118.494 13.7292 119.398C13.6464 120.548 14.7973 121.287 15.7834 121.698C18.4946 122.766 21.3699 122.273 24.0819 121.616C25.8891 121.205 28.1073 120.055 29.8325 120.055C30.6805 120.158 31.5102 120.38 32.2968 120.712C37.7996 122.695 43.7425 123.122 49.472 121.945C50.4535 121.758 51.5261 121.37 51.9371 120.466C52.0068 120.285 52.0394 120.091 52.033 119.896C52.0265 119.702 51.9812 119.511 51.8997 119.334C51.8181 119.157 51.702 118.999 51.5582 118.868C51.4143 118.737 51.2457 118.636 51.0623 118.571C53.9797 118.076 57.2729 117.946 59.9887 117.015C62.7015 116.112 63.7918 114.004 62.5374 111.347Z" fill="white"/>
<path d="M32.1939 121C31.432 120.676 30.6282 120.461 29.8063 120.36C28.2199 120.36 25.9142 121.515 24.153 121.915C21.5637 122.542 18.5558 123.118 15.6743 121.983C14.1262 121.339 13.3511 120.438 13.427 119.377C13.4507 119.037 13.5459 118.706 13.7063 118.406C13.8667 118.106 14.0887 117.843 14.3578 117.634C11.3956 117.708 8.46701 116.994 5.87143 115.564C5.10795 115.233 4.46286 114.678 4.02126 113.972C3.73567 113.406 3.63389 112.764 3.73009 112.136C3.82628 111.509 4.11567 110.927 4.55798 110.471C5.39135 109.592 6.49231 109.012 7.68939 108.823C9.22368 108.465 10.8167 108.439 12.362 108.746C8.96679 105.756 9.6952 102.108 14.6323 100.695C19.3264 99.4142 24.3364 100.036 28.5749 102.426C28.3721 101.733 28.3627 100.997 28.5479 100.299C28.733 99.6013 29.1056 98.9672 29.6253 98.4657C31.0407 97.3445 32.7943 96.7361 34.6 96.7398C39.11 96.4868 46.1633 98.5179 47.4637 102.79C47.7048 103.572 47.7498 104.401 47.595 105.204C47.4402 106.008 47.0902 106.761 46.5758 107.397C50.7225 106.485 55.0439 106.786 59.0248 108.262C60.582 108.867 62.1148 109.642 62.8148 111.218C64.1328 113.852 63.1391 116.285 60.0844 117.303C57.584 118.16 54.6014 118.343 51.8902 118.742C52.8716 119.905 52.3448 121.773 49.5217 122.244C43.7455 123.492 37.7327 123.061 32.1939 121ZM29.8362 119.748C30.7241 119.851 31.592 120.08 32.4155 120.428C37.8476 122.448 43.7445 122.87 49.409 121.645C51.8518 121.237 52.134 119.791 51.3381 119.051C51.2562 118.971 51.1562 118.912 51.0467 118.879L50.5982 118.956C50.5264 118.969 50.4522 118.957 50.3889 118.92C50.3255 118.884 50.2772 118.826 50.2527 118.757C50.2281 118.689 50.2288 118.613 50.2548 118.545C50.2807 118.477 50.3302 118.42 50.3942 118.385C50.5936 118.275 50.8213 118.228 51.0475 118.252C53.9543 117.765 57.2359 117.631 59.8904 116.719C62.4399 115.869 63.488 113.928 62.2627 111.477C61.6493 110.091 60.2401 109.388 58.8124 108.832C54.581 107.263 49.963 107.065 45.6128 108.266C45.5438 108.285 45.4704 108.279 45.4053 108.25C45.3401 108.22 45.2873 108.169 45.256 108.105C45.2247 108.04 45.2169 107.967 45.2339 107.898C45.2509 107.828 45.2916 107.767 45.349 107.724C46.065 107.187 46.5968 106.441 46.8715 105.589C47.1461 104.736 47.1499 103.82 46.8825 102.966C46.4225 101.442 45.0891 100.123 42.9307 99.0431C40.3457 97.7948 37.4895 97.2129 34.6222 97.3501C32.9586 97.3416 31.3411 97.8967 30.0332 98.925C28.9506 99.9371 28.614 101.965 29.6498 103.078C29.7009 103.133 29.7303 103.204 29.7324 103.279C29.7346 103.354 29.7094 103.427 29.6615 103.484C29.6137 103.542 29.5465 103.58 29.4727 103.591C29.3988 103.603 29.3233 103.587 29.2603 103.546C27.145 102.173 24.7637 101.262 22.2721 100.872C19.7806 100.482 17.2347 100.622 14.801 101.283C9.70824 102.74 9.76114 106.507 13.9798 109.191C14.0442 109.231 14.0915 109.293 14.1126 109.366C14.1337 109.439 14.1271 109.517 14.094 109.585C14.061 109.654 14.0038 109.707 13.9336 109.736C13.8633 109.764 13.785 109.766 13.7137 109.74C11.8156 109.078 9.76851 108.966 7.80977 109.42C6.73424 109.588 5.74496 110.109 4.99657 110.899C4.64677 111.261 4.41756 111.722 4.3404 112.22C4.26324 112.717 4.34193 113.226 4.56565 113.676C4.94516 114.266 5.49234 114.728 6.13672 115.003L6.15896 115.014C8.93189 116.556 12.1041 117.231 15.2649 116.951C15.3311 116.943 15.3979 116.958 15.455 116.993C15.512 117.027 15.5562 117.079 15.5808 117.141C15.6055 117.203 15.6095 117.271 15.5922 117.335C15.5749 117.399 15.5373 117.456 15.4849 117.497C14.8424 117.998 14.0427 118.62 14.0427 119.392C13.9721 120.389 15.018 121.039 15.9074 121.409C19.0327 122.636 22.9975 121.754 26.1657 120.642C27.3345 120.153 28.5733 119.851 29.8362 119.748Z" fill="#4B1010"/>
</svg>
