<svg width="155" height="155" viewBox="0 0 155 155" fill="none" xmlns="http://www.w3.org/2000/svg">
<path d="M20.1317 44.1033H109.479C109.932 44.1049 110.366 44.2854 110.686 44.6054C111.006 44.9254 111.186 45.359 111.188 45.8116V109.022C111.186 109.475 111.006 109.909 110.686 110.229C110.366 110.549 109.932 110.729 109.479 110.731H20.131C19.6784 110.729 19.245 110.548 18.925 110.228C18.6049 109.908 18.4241 109.475 18.4219 109.022V45.8139C18.4371 45.3652 18.6222 44.939 18.9396 44.6215C19.2569 44.304 19.683 44.1187 20.1317 44.1033Z" fill="#FFE55D"/>
<path d="M109.479 43.8064H20.1309C19.6031 43.8209 19.1009 44.037 18.7275 44.4104C18.3542 44.7838 18.138 45.2859 18.1235 45.8137V109.025C18.1237 109.557 18.3353 110.067 18.7117 110.444C19.0881 110.82 19.5986 111.032 20.1309 111.032H109.479C110.012 111.031 110.522 110.82 110.898 110.444C111.275 110.067 111.486 109.557 111.487 109.025V45.8137C111.486 45.2816 111.274 44.7713 110.898 44.395C110.522 44.0187 110.012 43.807 109.479 43.8064ZM110.889 109.025C110.889 109.398 110.74 109.757 110.475 110.021C110.345 110.152 110.189 110.255 110.019 110.326C109.848 110.397 109.664 110.434 109.479 110.434H20.1309C19.7572 110.433 19.3989 110.285 19.1345 110.021C18.8702 109.756 18.7214 109.398 18.7208 109.025V45.8444C18.7298 45.4707 18.8806 45.1144 19.1426 44.8477C19.4046 44.581 19.7582 44.424 20.1317 44.4083H109.479C109.853 44.4083 110.212 44.5568 110.476 44.8211C110.74 45.0854 110.889 45.4438 110.889 45.8176V109.025Z" fill="#4B1010"/>
<path d="M106.917 47.8218H22.6936C22.6143 47.8218 22.5382 47.8533 22.4821 47.9094C22.426 47.9655 22.3945 48.0415 22.3945 48.1208V106.718C22.3945 106.884 22.5287 107.017 22.6936 107.017H106.917C106.996 107.017 107.072 106.986 107.129 106.93C107.185 106.873 107.216 106.797 107.216 106.718V48.1201C107.216 48.0408 107.185 47.9647 107.129 47.9086C107.072 47.8526 106.996 47.821 106.917 47.821V47.8218Z" fill="#4B1010"/>
<path d="M124.684 133.369H5.78006C5.58148 133.368 5.38688 133.313 5.21646 133.211C5.04603 133.109 4.906 132.964 4.81089 132.789C4.71537 132.615 4.66787 132.419 4.67326 132.221C4.67865 132.022 4.73674 131.829 4.84156 131.661L17.7383 111.5C17.9068 111.246 18.134 111.035 18.4009 110.886C18.6678 110.738 18.9664 110.655 19.2718 110.646H110.164C110.46 110.657 110.75 110.732 111.015 110.864C111.281 110.996 111.515 111.183 111.702 111.413L125.625 131.572C125.742 131.745 125.81 131.945 125.822 132.153C125.833 132.361 125.789 132.568 125.692 132.752C125.596 132.936 125.451 133.091 125.273 133.2C125.096 133.308 124.892 133.367 124.684 133.369Z" fill="#FFE55D"/>
<path d="M125.87 131.405L111.934 111.229C111.719 110.964 111.45 110.748 111.145 110.597C110.839 110.445 110.505 110.361 110.164 110.35H19.2764C18.9205 110.36 18.5722 110.456 18.2608 110.628C17.9494 110.801 17.684 111.046 17.4868 111.342L4.57399 131.527C4.30486 132.064 4.3708 132.14 4.37386 134.608C4.32366 134.987 4.42548 135.37 4.65707 135.674C4.88865 135.978 5.2312 136.179 5.60986 136.231H124.599C124.972 136.226 125.327 136.076 125.59 135.812C125.854 135.549 126.004 135.193 126.009 134.821V132.804C126.106 132.578 126.144 132.331 126.119 132.086C126.095 131.842 126.009 131.607 125.87 131.405ZM17.9883 111.667C18.1297 111.453 18.3205 111.276 18.5446 111.15C18.7688 111.025 19.0197 110.955 19.2764 110.947H110.164C110.412 110.956 110.655 111.018 110.878 111.129C111.1 111.239 111.297 111.395 111.455 111.586L125.375 131.742C125.437 131.874 125.464 132.02 125.455 132.165C125.446 132.31 125.401 132.451 125.323 132.574C125.246 132.697 125.139 132.8 125.013 132.871C124.887 132.943 124.745 132.983 124.599 132.986H5.78008C5.67687 132.989 5.57407 132.972 5.47777 132.934C5.38148 132.897 5.29365 132.841 5.2195 132.769C5.14535 132.697 5.08638 132.611 5.04609 132.516C5.0058 132.421 4.98502 132.319 4.98496 132.215C4.98496 132.077 5.021 131.943 5.09001 131.823L17.9883 111.667Z" fill="#4B1010"/>
<path d="M76.422 131.703H48.063C48.0143 131.704 47.9662 131.692 47.9232 131.669C47.8801 131.647 47.8433 131.613 47.8161 131.573C47.6873 131.384 47.5439 131.899 50.4322 124.547C50.4544 124.491 50.4928 124.443 50.5426 124.409C50.5923 124.375 50.6511 124.357 50.7113 124.357H75.2266C75.2969 124.357 75.3649 124.382 75.4187 124.427C75.4726 124.472 75.5088 124.535 75.521 124.604L76.7172 131.351C76.7288 131.416 76.7186 131.483 76.6881 131.542C76.6576 131.601 76.6085 131.647 76.5485 131.675C76.5089 131.694 76.4657 131.703 76.422 131.703ZM48.5016 131.105H76.0654L74.9759 124.955H50.9145L48.5016 131.105Z" fill="#4B1010"/>
<path d="M113.755 123.056L108.118 113.147C108.092 113.101 108.054 113.062 108.008 113.035C107.963 113.008 107.911 112.994 107.858 112.994C20.3103 112.994 20.4414 112.906 20.3011 113.14L14.4071 123.049C14.013 123.711 8.40573 123.501 113.495 123.501C113.534 123.501 113.573 123.494 113.609 123.479C113.645 123.464 113.678 123.442 113.706 123.415C113.733 123.387 113.755 123.355 113.77 123.318C113.785 123.282 113.793 123.244 113.792 123.205C113.793 123.153 113.78 123.101 113.755 123.056ZM18.9976 116.499H109.336L110.988 119.403H17.2732L18.9984 116.499H18.9976ZM20.7251 113.594H107.684L108.996 115.901H19.3564L20.7251 113.594ZM15.1869 122.905L16.9143 120.001H111.33L112.982 122.905H15.1869Z" fill="#4B1010"/>
<path d="M137.754 135.248C137.061 134.506 136.432 133.706 135.875 132.857C134.508 130.466 134.741 127.775 137.327 126.365C139.105 125.396 141.595 125.699 143.477 126.109C145.278 126.448 146.919 127.366 148.152 128.721C149.385 130.077 150.143 131.798 150.311 133.623C150.4 134.52 150.283 135.426 149.969 136.271C148.34 139.532 142.521 140.014 137.754 135.248Z" fill="#FFE55D"/>
<path d="M150.61 133.609C150.439 131.719 149.657 129.935 148.382 128.529C147.107 127.123 145.409 126.171 143.544 125.817C141.25 125.296 138.845 125.246 137.122 126.123C135.439 125.512 133.888 124.586 132.553 123.393C130.379 121.763 133.634 120.127 133.525 117.971C133.448 116.946 132.673 116.059 131.225 115.334C127.706 113.62 123.815 113.141 120.446 112.828C117.657 112.55 115.146 112.312 112.653 112.229C112.576 112.229 112.501 112.259 112.446 112.313C112.39 112.367 112.358 112.441 112.356 112.518C112.353 112.595 112.381 112.671 112.432 112.728C112.484 112.786 112.556 112.821 112.633 112.826C115.108 112.908 117.609 113.145 120.389 113.423C123.707 113.73 127.534 114.201 130.96 115.87C132.207 116.494 132.869 117.215 132.931 118.01C133.007 119.604 130.651 120.968 131.339 122.826C131.537 123.23 131.824 123.582 132.178 123.858C133.446 124.988 134.9 125.89 136.477 126.522C134.801 127.763 134.058 130.279 135.633 133.029C136.202 133.893 136.843 134.706 137.55 135.461C139.946 137.857 143.649 139.735 146.871 138.874C147.588 138.748 148.267 138.458 148.854 138.026C149.44 137.594 149.92 137.033 150.254 136.385C150.584 135.499 150.705 134.55 150.61 133.609ZM145.027 126.914C144.046 126.906 143.071 127.048 142.133 127.336C141.295 126.735 140.345 126.309 139.339 126.083C141.274 125.924 143.219 126.208 145.027 126.912V126.914ZM136.133 132.709C135.437 131.612 135.205 130.284 135.488 129.017C135.642 128.501 135.899 128.021 136.244 127.607C136.591 127.194 137.017 126.855 137.498 126.612C138.882 126.463 140.275 126.806 141.432 127.581C138.77 128.634 136.659 130.922 136.939 133.831C136.666 133.461 136.398 133.087 136.135 132.709H136.133ZM149.7 136.14C148.55 138.431 145.444 138.913 142.972 138.125C140.959 137.475 139.147 136.319 137.707 134.768C137.506 134.056 137.466 133.309 137.59 132.579C137.713 131.85 137.998 131.157 138.423 130.551C141.19 126.859 146.217 127.613 146.294 127.59C147.117 128.107 147.844 128.763 148.441 129.529C149.169 130.447 149.665 131.528 149.884 132.68C150.104 133.831 150.041 135.018 149.702 136.14H149.7Z" fill="#4B1010"/>
<path d="M60.9606 82.3745H83.4263C86.8356 87.5709 91.5478 91.7827 97.0929 94.5896C88.8074 87.4144 88.9784 82.3745 88.9784 82.3745H113.494C114.504 82.3788 115.506 82.1828 116.441 81.798C117.376 81.4131 118.225 80.847 118.94 80.1322C119.654 79.4174 120.22 78.5682 120.605 77.6335C120.99 76.6988 121.186 75.6971 121.182 74.6863V49.3177C121.186 48.3069 120.989 47.3054 120.605 46.3709C120.22 45.4363 119.654 44.5871 118.939 43.8722C118.225 43.1573 117.375 42.5909 116.441 42.206C115.506 41.8211 114.504 41.6251 113.494 41.6295H60.9606C59.9496 41.6249 58.9477 41.8206 58.0127 42.2054C57.0777 42.5901 56.2282 43.1562 55.5132 43.871C54.7982 44.5858 54.2319 45.4351 53.8469 46.37C53.4619 47.3048 53.2658 48.3066 53.2701 49.3177V74.6863C53.2655 75.6974 53.4613 76.6994 53.8462 77.6344C54.2311 78.5694 54.7975 79.4188 55.5125 80.1337C56.2276 80.8486 57.0772 81.4146 58.0123 81.7993C58.9474 82.1839 59.9495 82.3794 60.9606 82.3745Z" fill="white"/>
<path d="M96.9584 94.8556C91.4187 92.0445 86.7014 87.8468 83.2658 82.6712H60.9611C58.8442 82.6679 56.8149 81.8257 55.3179 80.3289C53.8209 78.8322 52.9783 76.8031 52.9746 74.6862V49.3176C52.9768 47.2 53.8189 45.1697 55.3162 43.6722C56.8134 42.1747 58.8435 41.3322 60.9611 41.3296H113.494C115.612 41.3322 117.642 42.1747 119.139 43.6722C120.637 45.1697 121.479 47.1999 121.481 49.3176V74.6862C121.479 76.8036 120.636 78.8334 119.139 80.3303C117.641 81.8273 115.611 82.6691 113.494 82.6712H89.2963C89.4182 83.8282 90.3429 88.3451 97.2896 94.3602C97.3462 94.4076 97.3831 94.4743 97.3931 94.5473C97.4003 94.6017 97.3925 94.657 97.3706 94.7072C97.3486 94.7575 97.3134 94.8008 97.2687 94.8325C97.2239 94.8642 97.1714 94.8831 97.1167 94.8872C97.0621 94.8912 97.0073 94.8803 96.9584 94.8556ZM60.9611 41.9284C59.002 41.9305 57.1237 42.7096 55.7384 44.0949C54.3531 45.4802 53.5739 47.3585 53.5719 49.3176V74.6862C53.5741 76.6453 54.3534 78.5234 55.7386 79.9087C57.1239 81.2939 59.002 82.0732 60.9611 82.0754H83.4268C83.4765 82.0751 83.5254 82.0872 83.5691 82.1108C83.6128 82.1344 83.6498 82.1686 83.6768 82.2103C86.5973 86.6542 90.4831 90.3817 95.0446 93.115C88.6108 86.843 88.6737 82.5584 88.6806 82.3645C88.6832 82.2869 88.7158 82.2134 88.7716 82.1594C88.8274 82.1055 88.902 82.0754 88.9796 82.0754H113.495C115.454 82.0736 117.332 81.2945 118.718 79.9091C120.103 78.5238 120.882 76.6454 120.884 74.6862V49.3176C120.882 47.3585 120.103 45.4803 118.718 44.0952C117.332 42.71 115.454 41.931 113.495 41.9292L60.9611 41.9284Z" fill="#4B1010"/>
<path d="M74.6283 56.4486C75.6902 56.4486 76.5505 55.0531 76.5505 53.3317C76.5505 51.6096 75.6902 50.2141 74.6283 50.2141C73.5671 50.2141 72.7061 51.6096 72.7061 53.3317C72.7061 55.0531 73.5671 56.4493 74.6283 56.4493V56.4486Z" fill="#4B1010"/>
<path d="M99.4852 56.4486C100.547 56.4486 101.407 55.0531 101.407 53.3317C101.407 51.6096 100.547 50.2141 99.4852 50.2141C98.4233 50.2141 97.563 51.6096 97.563 53.3317C97.563 55.0531 98.4233 56.4493 99.4852 56.4493V56.4486Z" fill="#4B1010"/>
<path d="M96.3247 58.7126C95.584 62.2297 93.0798 66.5335 89.5773 66.8279C88.0307 66.8378 86.5155 66.3922 85.2206 65.5467C83.6833 64.6925 82.2303 63.6674 80.6968 62.9842C83.4148 64.0464 86.4028 64.2045 89.2177 63.4351C92.0327 62.6657 94.5248 61.0097 96.3247 58.7126Z" fill="#FFE55D"/>
<path d="M89.5988 67.126C87.9864 67.1364 86.4063 66.6736 85.0543 65.7949C83.5714 64.9745 82.0931 63.9333 80.5711 63.257C80.5348 63.2416 80.502 63.2192 80.4745 63.1911C80.4469 63.1629 80.4253 63.1296 80.4107 63.093C80.3962 63.0564 80.389 63.0173 80.3897 62.9779C80.3904 62.9386 80.3989 62.8997 80.4147 62.8637C80.43 62.8274 80.4523 62.7946 80.4804 62.7671C80.5084 62.7396 80.5417 62.7179 80.5782 62.7033C80.6148 62.6888 80.6538 62.6816 80.6931 62.6823C80.7324 62.683 80.7712 62.6915 80.8072 62.7073C83.4656 63.7459 86.3878 63.9002 89.1407 63.1472C91.8936 62.3942 94.3305 60.774 96.0901 58.5269C96.1322 58.4745 96.1906 58.4377 96.2561 58.4224C96.3216 58.4071 96.3903 58.4142 96.4512 58.4426C96.512 58.4712 96.5614 58.5194 96.5915 58.5795C96.6215 58.6396 96.6305 58.708 96.6168 58.7738C95.844 62.4458 93.3007 66.817 89.5988 67.126ZM83.2455 64.0261C83.9532 64.4524 84.6387 64.8818 85.3656 65.2851C86.6175 66.1024 88.0815 66.5348 89.5766 66.5287C92.5983 66.2757 94.8625 62.7793 95.7274 59.858C94.1516 61.5278 92.1875 62.782 90.0098 63.5092C87.8321 64.2364 85.5084 64.414 83.2455 64.0261Z" fill="#4B1010"/>
<path d="M71.65 47.8609C72.1769 47.1222 72.8926 46.5385 73.7223 46.171C74.5519 45.8034 75.4651 45.6655 76.3663 45.7715C77.4665 46.0123 78.5208 46.4317 79.4862 47.0129C79.533 47.0461 79.5694 47.092 79.591 47.1452C79.6126 47.1985 79.6185 47.2567 79.6082 47.3132C79.5978 47.3697 79.5714 47.422 79.5323 47.464C79.4932 47.506 79.4428 47.536 79.3872 47.5504C79.3119 47.5685 79.2325 47.5567 79.1657 47.5174C78.2668 46.978 77.2869 46.587 76.2635 46.3596C75.4739 46.2725 74.6753 46.3978 73.9502 46.7225C73.2252 47.0472 72.6 47.5596 72.1392 48.2067C72.0919 48.2679 72.0228 48.3085 71.9464 48.32C71.8699 48.3315 71.7919 48.313 71.7288 48.2684C71.6656 48.2237 71.6222 48.1564 71.6075 48.0805C71.5928 48.0046 71.608 47.9259 71.65 47.8609Z" fill="#4B1010"/>
<path d="M96.3664 48.9293C96.2905 48.9152 96.2229 48.8721 96.1781 48.8092C96.1333 48.7462 96.1148 48.6683 96.1264 48.5919C96.1375 48.5155 96.1779 48.4463 96.239 48.3991C96.3001 48.3519 96.3771 48.3303 96.4538 48.3389C99.2629 48.7534 102.126 48.6099 104.88 47.9164C104.918 47.9069 104.957 47.9049 104.996 47.9107C105.035 47.9165 105.072 47.9299 105.106 47.9501C105.14 47.9704 105.169 47.997 105.193 48.0286C105.216 48.0602 105.233 48.096 105.242 48.1341C105.252 48.1722 105.254 48.2119 105.248 48.2507C105.242 48.2896 105.229 48.3269 105.209 48.3606C105.188 48.3942 105.162 48.4236 105.13 48.447C105.099 48.4704 105.063 48.4873 105.025 48.4968C102.195 49.2081 99.2529 49.3551 96.3664 48.9293Z" fill="#4B1010"/>
<path d="M140.999 47.5228C140.25 47.0237 138.818 47.7406 138.085 48.2612C138.63 47.8594 139.167 47.3833 139.72 46.9255C141.1 45.7831 140.097 44.909 138.78 45.4733C137.779 45.8688 136.896 46.5158 136.218 47.3518L137.499 45.7294C138.478 44.7502 138.014 43.6783 136.987 44.0211C135.287 44.6142 133.881 45.8373 133.057 47.4377C132.881 46.8531 132.557 46.3238 132.117 45.9004C131.897 45.6943 131.607 45.5796 131.306 45.5796C131.005 45.5796 130.714 45.6943 130.495 45.9004C129.856 46.753 130.576 47.8939 130.837 48.548C131.264 49.9151 130.58 51.3673 129.811 52.4775C129.025 53.2642 134.719 56.4102 136.389 54.4419C136.816 53.9298 136.731 52.7336 137.072 52.1356C137.563 51.2022 138.343 50.453 139.295 50.0002C139.878 49.8018 140.425 49.5136 140.919 49.146C141.341 48.7189 141.512 47.8648 140.999 47.5228Z" fill="#FFE55D"/>
<path d="M141.166 47.2735C140.81 47.0829 140.403 47.0134 140.005 47.0756C141.511 45.7837 140.292 44.4994 138.664 45.1971C138.465 45.2799 138.273 45.3681 138.089 45.4624C138.74 44.3721 138.025 43.3592 136.886 43.7372C135.319 44.28 133.985 45.3435 133.106 46.7505C132.9 46.3495 132.63 45.9844 132.307 45.6694C132.024 45.4115 131.653 45.2728 131.27 45.2822C130.888 45.2917 130.524 45.4485 130.254 45.72C129.52 46.6992 130.227 47.8508 130.55 48.6337C130.87 49.6611 130.539 50.8956 129.598 52.2627C129.525 52.3374 129.472 52.4302 129.445 52.5317C129.418 52.6333 129.418 52.7401 129.445 52.8416C129.739 53.5777 131.223 54.5177 132.742 55.0207C132.33 56.8871 131.571 58.6597 130.506 60.2468C127.69 64.2707 122.974 64.5199 121.48 63.0255C121.453 62.9969 121.42 62.974 121.383 62.9582C121.347 62.9424 121.308 62.934 121.268 62.9336C121.228 62.9332 121.189 62.9407 121.152 62.9557C121.115 62.9706 121.082 62.9928 121.054 63.0209C121.026 63.049 121.003 63.0824 120.988 63.1192C120.973 63.156 120.966 63.1954 120.966 63.2351C120.967 63.2748 120.975 63.314 120.991 63.3504C121.007 63.3869 121.03 63.4198 121.058 63.4473C122.848 65.2399 127.977 64.9041 130.996 60.5896C132.099 58.9496 132.886 57.1178 133.316 55.1886C134.461 55.4784 135.857 55.5336 136.613 54.6312C137.119 54.03 137.012 52.8331 137.33 52.2757C137.783 51.4123 138.497 50.7144 139.371 50.2822C140.001 50.0685 140.593 49.7544 141.123 49.3521C141.691 48.7916 141.843 47.7251 141.166 47.2735ZM140.748 48.8967C140.268 49.2548 139.735 49.5353 139.167 49.7278C138.16 50.2082 137.333 51.0006 136.811 51.9874C136.638 52.3566 136.528 52.752 136.485 53.1575C136.457 53.5409 136.345 53.9135 136.158 54.2493C134.863 55.769 130.381 53.6543 130.055 52.6468C131.141 51.0804 131.499 49.6711 131.113 48.4366C130.868 47.8293 130.219 46.7712 130.705 46.1111C130.868 45.9606 131.082 45.8771 131.305 45.8771C131.527 45.8771 131.741 45.9606 131.905 46.1111C132.915 47.1216 132.595 47.6906 133.025 47.7343C133.084 47.7402 133.144 47.7283 133.197 47.7002C133.249 47.6721 133.292 47.629 133.32 47.5763C134.105 46.0432 135.451 44.8714 137.077 44.3046C137.822 44.0531 138.013 44.7831 137.26 45.5437L135.982 47.1707C135.947 47.2171 135.927 47.2724 135.924 47.33C135.92 47.3876 135.934 47.4449 135.962 47.495C135.991 47.5452 136.033 47.586 136.084 47.6125C136.135 47.639 136.193 47.6502 136.251 47.6446C136.328 47.6376 136.399 47.601 136.449 47.5426C137.097 46.7449 137.94 46.1279 138.897 45.7515C139.817 45.3581 140.684 45.7407 139.524 46.7015C138.623 47.4475 138.697 47.426 137.745 48.1414C137.682 48.1887 137.639 48.259 137.627 48.3372C137.615 48.4153 137.634 48.4951 137.681 48.5593C137.704 48.591 137.733 48.6179 137.766 48.6383C137.8 48.6587 137.837 48.6724 137.876 48.6784C137.915 48.6845 137.954 48.6828 137.993 48.6736C138.031 48.6643 138.067 48.6476 138.099 48.6245C138.77 48.1406 140.164 47.331 140.834 47.7749C141.159 47.9896 140.996 48.6367 140.748 48.8967Z" fill="#4B1010"/>
<path d="M62.6703 55.298H41.3156C38.0929 60.2514 33.612 64.2597 28.3314 66.9127C36.1906 60.0794 36.0196 55.298 36.0196 55.298H12.7871C10.8388 55.298 8.97026 54.524 7.59258 53.1463C6.21489 51.7686 5.44092 49.9001 5.44092 47.9517V23.7762C5.44082 22.8114 5.63076 21.8561 5.99991 20.9648C6.36906 20.0734 6.91017 19.2635 7.59235 18.5814C8.27453 17.8992 9.08441 17.3581 9.97574 16.9889C10.8671 16.6198 11.8224 16.4298 12.7871 16.4299H62.7562C63.7209 16.4298 64.6762 16.6198 65.5675 16.9889C66.4587 17.3581 67.2686 17.8992 67.9507 18.5814C68.6328 19.2636 69.1739 20.0735 69.5429 20.9648C69.912 21.8561 70.1018 22.8114 70.1016 23.7762V47.9494C70.0686 49.9024 69.2725 51.7649 67.8836 53.1382C66.4948 54.5116 64.6235 55.2868 62.6703 55.298Z" fill="#FFE55D"/>
<path d="M28.1349 66.6872C34.689 60.9887 35.5815 56.7156 35.7019 55.5947H12.7869C10.76 55.5924 8.81684 54.7863 7.38358 53.3532C5.95032 51.9201 5.14404 49.977 5.1416 47.9502V23.7753C5.14404 21.7485 5.95032 19.8054 7.38358 18.3723C8.81684 16.9392 10.76 16.1331 12.7869 16.1309H62.7559C64.7826 16.1333 66.7256 16.9395 68.1587 18.3726C69.5918 19.8057 70.3979 21.7486 70.4004 23.7753V47.9486C70.3571 49.9774 69.5261 51.9097 68.0833 53.3366C66.6405 54.7635 64.6991 55.573 62.67 55.5939H41.4763C38.2277 60.5284 33.7414 64.5243 28.4653 67.1825C28.3998 67.2179 28.3234 67.2275 28.2512 67.2095C28.1789 67.1916 28.1159 67.1473 28.0746 67.0853C28.0333 67.0234 28.0166 66.9482 28.0277 66.8746C28.0388 66.801 28.0771 66.7342 28.1349 66.6872ZM12.7869 16.7305C10.9184 16.7323 9.12697 17.4753 7.80576 18.7965C6.48455 20.1178 5.74149 21.9092 5.73967 23.7776V47.9494C5.74149 49.8179 6.48455 51.6093 7.80576 52.9305C9.12697 54.2517 10.9184 54.9948 12.7869 54.9966H36.0193C36.097 54.9966 36.1715 55.0267 36.2273 55.0806C36.2831 55.1346 36.3158 55.2081 36.3184 55.2857C36.3245 55.4697 36.3912 59.5243 30.3285 65.4773C34.6421 62.8837 38.3122 59.3466 41.063 55.1315C41.0903 55.0902 41.1274 55.0562 41.1711 55.0327C41.2147 55.0091 41.2634 54.9967 41.313 54.9966H62.67C64.542 54.9771 66.3329 54.23 67.6638 52.9135C68.9946 51.5969 69.761 49.8141 69.8008 47.9425V23.7769C69.7987 21.9089 69.0559 20.1181 67.7352 18.7971C66.4145 17.4761 64.6238 16.7329 62.7559 16.7305H12.7869Z" fill="#4B1010"/>
<path d="M26.1109 29.6274C24.9853 29.6274 24.1035 30.9969 24.1035 32.745C24.1035 34.4932 24.9853 35.8626 26.1109 35.8626C27.2365 35.8626 28.122 34.4932 28.122 32.745C28.122 30.9969 27.2365 29.6274 26.1109 29.6274Z" fill="#4B1010"/>
<path d="M50.9711 29.6274C49.893 29.6274 49.0488 30.9969 49.0488 32.745C49.0488 34.4932 49.8923 35.8626 50.9711 35.8626C52.0499 35.8626 52.8879 34.4932 52.8879 32.745C52.8879 30.9969 52.0445 29.6274 50.9711 29.6274Z" fill="#4B1010"/>
<path d="M42.258 48.8036C44.7346 47.0953 46.2697 43.9347 46.6968 41.0311C45.7575 41.7978 43.9625 42.1321 42.7679 42.3123C38.2786 42.987 33.8292 41.2557 30.4677 38.2976C30.2912 40.4842 30.6426 42.6812 31.4921 44.7038C33.2119 48.8312 38.1667 51.2204 42.258 48.8036Z" fill="white"/>
<path d="M31.216 44.8189C30.3503 42.7527 29.9912 40.5094 30.1687 38.2762C30.1727 38.2207 30.1921 38.1675 30.2248 38.1225C30.2575 38.0775 30.3022 38.0425 30.3537 38.0215C30.4052 38.0006 30.4616 37.9944 30.5164 38.0038C30.5712 38.0131 30.6224 38.0377 30.664 38.0746C33.9917 41.0028 38.4495 42.6919 42.7203 42.018C44.5697 41.7542 45.8418 41.3447 46.5065 40.8011C46.5532 40.7629 46.6103 40.7397 46.6704 40.7346C46.7305 40.7294 46.7907 40.7425 46.8432 40.7722C46.8957 40.8019 46.938 40.8467 46.9645 40.9009C46.9911 40.955 47.0006 41.016 46.9919 41.0756C46.4628 44.6793 44.4394 47.823 42.4067 49.0628C38.2839 51.5808 33.0593 49.2407 31.216 44.8189ZM30.7284 38.9157C30.659 40.8597 31.0125 42.7956 31.7643 44.5896C33.4711 48.6856 38.2502 50.8133 42.0901 48.553C44.4816 46.8991 45.7919 44.023 46.2788 41.6568C45.1818 42.1636 44.0084 42.4851 42.8062 42.6083C38.5347 43.2839 34.1021 41.6898 30.7284 38.9157Z" fill="#4B1010"/>
<path d="M22.3008 28.0173C24.7835 25.2854 27.9816 25.3498 29.4998 27.1739C29.5506 27.2349 29.5752 27.3136 29.568 27.3927C29.5608 27.4718 29.5225 27.5448 29.4615 27.5956C29.4005 27.6464 29.3218 27.671 29.2427 27.6638C29.1636 27.6566 29.0906 27.6183 29.0397 27.5573C27.7562 26.0161 24.976 25.9647 22.7424 28.4214C22.7094 28.458 22.6677 28.4858 22.6212 28.5024C22.5747 28.519 22.5249 28.5238 22.4761 28.5163C22.4273 28.5089 22.3811 28.4894 22.3417 28.4597C22.3023 28.4301 22.2708 28.3911 22.2502 28.3462C22.2252 28.2925 22.2166 28.2326 22.2257 28.1741C22.2347 28.1156 22.2608 28.061 22.3008 28.0173Z" fill="#4B1010"/>
<path d="M54.3838 29.7982C53.9437 29.7982 54.1661 29.1925 53.4637 28.3191C52.8769 27.5659 52.015 27.0763 51.0675 26.958C50.1199 26.8397 49.1642 27.1023 48.4101 27.6881C48.3787 27.7117 48.3429 27.7288 48.3049 27.7386C48.2668 27.7483 48.2273 27.7505 48.1884 27.7449C48.1495 27.7394 48.1121 27.7262 48.0783 27.7062C48.0445 27.6862 48.015 27.6597 47.9914 27.6283C47.9679 27.5969 47.9507 27.5611 47.941 27.5231C47.9313 27.4851 47.9291 27.4455 47.9346 27.4066C47.9402 27.3677 47.9534 27.3303 47.9734 27.2965C47.9934 27.2627 48.0198 27.2332 48.0513 27.2097C48.931 26.5296 50.0445 26.226 51.1477 26.3654C52.2509 26.5049 53.2539 27.0759 53.9368 27.9534C54.2663 28.3882 54.513 28.88 54.6645 29.4041C54.6795 29.4488 54.6837 29.4965 54.6767 29.5432C54.6698 29.5898 54.6519 29.6342 54.6245 29.6726C54.5972 29.7111 54.5611 29.7425 54.5193 29.7643C54.4774 29.7861 54.431 29.7977 54.3838 29.7982Z" fill="#4B1010"/>
<path d="M48.7837 36.1509C50.4184 35.3412 52.2994 35.1822 54.0467 35.7061C54.0937 35.7207 54.1364 35.7467 54.1709 35.7818C54.2055 35.8169 54.2307 35.86 54.2445 35.9072C54.2582 35.9545 54.26 36.0044 54.2497 36.0526C54.2395 36.1007 54.2174 36.1456 54.1855 36.1831C54.1475 36.2282 54.097 36.2611 54.0404 36.2776C53.9838 36.2941 53.9236 36.2935 53.8673 36.2758C52.2678 35.7977 50.5464 35.944 49.0506 36.6853C48.9803 36.7161 48.9008 36.7188 48.8287 36.6927C48.7565 36.6666 48.6971 36.6137 48.6628 36.545C48.6286 36.4764 48.622 36.3972 48.6445 36.3238C48.667 36.2504 48.7169 36.1885 48.7837 36.1509Z" fill="#4B1010"/>
<path d="M27.8325 36.4159C27.3445 36.1 26.7908 35.8999 26.2137 35.8308C25.6365 35.7617 25.0512 35.8255 24.5025 36.0172C24.4277 36.0439 24.3453 36.0397 24.2736 36.0056C24.2018 35.9715 24.1465 35.9103 24.1199 35.8355C24.0932 35.7607 24.0974 35.6783 24.1315 35.6066C24.1656 35.5348 24.2268 35.4795 24.3016 35.4529C24.9346 35.2305 25.6101 35.1558 26.2764 35.2345C26.9427 35.3131 27.5823 35.5431 28.1461 35.9068C28.212 35.9491 28.2586 36.0156 28.276 36.092C28.2934 36.1684 28.2801 36.2485 28.239 36.3152C28.1979 36.3819 28.1323 36.4298 28.0563 36.4486C27.9803 36.4675 27.8999 36.4557 27.8325 36.4159Z" fill="#4B1010"/>
<path d="M25.6839 53.8413C26.479 52.9035 27.335 52.0191 28.2464 51.1938C28.8751 50.7743 30.8403 50.0375 30.6379 49.2286C30.5527 48.8874 30.1257 48.7164 29.6986 48.7164C29.0478 48.6914 28.4101 48.904 27.9044 49.3145L29.6127 47.781C29.7793 47.6823 29.9202 47.5458 30.0241 47.3825C30.1281 47.2191 30.192 47.0336 30.2108 46.8409C30.1257 46.499 29.8696 46.1585 29.5276 46.1585C29.1777 46.0886 28.8144 46.1486 28.5055 46.3272C27.8499 46.5946 27.2438 46.9699 26.7121 47.4375C28.4258 45.4378 28.5914 45.3297 28.5914 44.9609C28.5664 44.8113 28.4953 44.6733 28.3881 44.5661C28.2809 44.4589 28.1429 44.3878 27.9933 44.3628C27.702 44.3781 27.4144 44.4356 27.1392 44.533C25.7594 45.1584 24.6414 46.2462 23.9786 47.6084C24.0571 47.2031 24.0276 46.7843 23.893 46.394C23.7584 46.0037 23.5235 45.6557 23.2119 45.3849C23.0813 45.2253 22.9014 45.1136 22.7005 45.0673C22.4996 45.021 22.2889 45.0426 22.1016 45.1288C21.6746 45.3849 21.7597 46.068 21.7597 46.581C22.0149 48.0999 21.6788 49.6588 20.8204 50.9377C20.7302 51.0315 20.6706 51.1505 20.6494 51.2789C20.6494 51.3647 20.7345 51.4499 20.7345 51.535C21.1841 52.4394 21.8995 53.1848 22.7848 53.6711C23.4158 53.9947 25.2698 54.2577 25.6839 53.8413Z" fill="white"/>
<path d="M30.9278 49.1587C30.7645 48.5047 30.0001 48.3728 29.3292 48.4364L29.7846 48.0262C29.9827 47.9054 30.1504 47.7409 30.2751 47.5453C30.3997 47.3497 30.478 47.1281 30.5038 46.8976C30.5598 46.6154 30.1435 45.8479 29.5991 45.8655C29.1311 45.7842 28.6494 45.8705 28.2388 46.1094C28.6061 45.6807 28.8875 45.4193 28.8776 44.8879C28.8349 44.6746 28.7262 44.4801 28.5669 44.332C28.4075 44.1839 28.2055 44.0898 27.9897 44.0629C26.631 44.0629 25.0607 45.3993 24.2479 46.564C24.1325 46.0374 23.8508 45.5619 23.4444 45.2077C23.2681 44.9907 23.0236 44.8397 22.7506 44.7791C22.4777 44.7186 22.1923 44.752 21.9408 44.8741C21.4248 45.1847 21.4393 45.8402 21.4508 46.367L21.4585 46.6323C21.6987 48.0567 21.3928 49.5194 20.602 50.7283C20.4743 50.8432 20.39 50.9987 20.3635 51.1685C20.337 51.3384 20.3697 51.5121 20.4563 51.6606C20.74 52.2664 21.151 52.8031 21.6617 53.234C20.5466 54.3334 19.3462 55.3428 18.0718 56.2527C16.3849 57.5201 15.0186 58.0507 13.6752 57.9886C10.9847 57.6528 9.38143 55.19 8.89071 52.5838C8.13623 49.1457 8.73046 45.4661 9.23651 41.926C9.2477 41.8474 9.2272 41.7676 9.17953 41.7041C9.13187 41.6406 9.06093 41.5986 8.98233 41.5875C8.90374 41.5763 8.82392 41.5968 8.76043 41.6444C8.69695 41.6921 8.655 41.763 8.64381 41.8416C8.12473 45.4454 7.52896 49.1672 8.30491 52.7011C8.83167 55.5135 10.5952 58.2064 13.6231 58.5828C15.3906 58.5468 17.0895 57.8924 18.4245 56.7334C19.7434 55.7922 20.9842 54.746 22.1348 53.6051C22.295 53.7201 22.4645 53.8313 22.6447 53.9386C23.3347 54.2821 25.3367 54.6134 25.8934 54.0536C26.6791 53.1335 27.5197 52.2617 28.4106 51.4429C29.1321 50.9644 31.1985 50.2444 30.9278 49.1587ZM29.8659 49.9255C29.2686 50.3518 28.6322 50.5734 28.0456 50.9721C27.1322 51.8025 26.2727 52.6905 25.4724 53.6304C25.2225 53.8804 23.5724 53.7339 22.9329 53.4157C22.0494 52.9548 21.3471 52.2095 20.9394 51.3002C21.9114 49.9327 22.3104 48.2393 22.0512 46.5817C22.0405 45.8517 22.0343 45.5136 22.2275 45.3963C22.3636 45.3403 22.5144 45.3312 22.6562 45.3705C22.798 45.4098 22.9226 45.4952 23.0104 45.6133C23.2812 45.8492 23.4855 46.1519 23.6031 46.4913C23.7206 46.8307 23.7473 47.1949 23.6805 47.5478C23.6671 47.6184 23.6796 47.6915 23.7157 47.7537C23.7518 47.8158 23.8091 47.8629 23.8771 47.8863C23.9451 47.9096 24.0192 47.9077 24.0859 47.8809C24.1526 47.8541 24.2074 47.8042 24.2403 47.7402C25.2033 45.8157 26.9193 44.7315 27.9153 44.651C28.1453 44.7085 28.2373 44.7982 28.2864 44.9577C28.2864 45.1877 28.1783 45.2644 26.4799 47.2403C26.4322 47.2973 26.4074 47.3701 26.4105 47.4444C26.4135 47.5187 26.4441 47.5892 26.4963 47.6421C26.5484 47.6951 26.6185 47.7267 26.6927 47.7308C26.767 47.7349 26.8401 47.7112 26.8978 47.6643C27.4114 47.2103 27.9987 46.8472 28.6345 46.5909C28.9037 46.4349 29.2217 46.3857 29.5255 46.4529C29.6842 46.4529 29.8322 46.643 29.9004 46.847C29.885 46.9822 29.8388 47.1122 29.7655 47.2269C29.6921 47.3416 29.5935 47.438 29.4771 47.5087C29.4005 47.5478 29.4587 47.5087 27.7029 49.0912C27.6445 49.1436 27.6091 49.2167 27.6041 49.2949C27.5991 49.3731 27.625 49.4502 27.6763 49.5094C27.7275 49.5687 27.8 49.6055 27.8781 49.6119C27.9562 49.6183 28.0337 49.5938 28.0939 49.5436C28.9105 48.8628 30.2462 48.8996 30.3459 49.3006C30.3604 49.3558 30.3635 49.5536 29.8659 49.9308V49.9255Z" fill="#4B1010"/>
</svg>
