<svg width="154" height="155" viewBox="0 0 154 155" fill="none" xmlns="http://www.w3.org/2000/svg">
<path d="M102.801 93.5621L54.2403 111.753L25.4121 93.0231L73.7418 79.0713L102.801 93.5621Z" fill="#FFE55D"/>
<path d="M73.7579 79.0756L25.4282 93.0273L26.8927 51.7126L75.7622 42.1543L73.7579 79.0756Z" fill="#FFE55D"/>
<path d="M102.938 93.2881L74.0748 78.8954L76.0684 42.1681C76.0707 42.1216 76.0625 42.0752 76.0442 42.0323C76.026 41.9894 75.9982 41.9513 75.9631 41.9207C75.9279 41.8901 75.8863 41.8679 75.8413 41.8558C75.7963 41.8437 75.7492 41.8419 75.7034 41.8507L26.8339 51.4113C26.7661 51.4247 26.7049 51.4607 26.66 51.5133C26.6152 51.5659 26.5895 51.6321 26.587 51.7011C25.1233 93.7826 25.1946 92.0191 25.0297 93.7957C25.0244 93.8507 25.0341 93.9062 25.0579 93.9562C25.0817 94.0062 25.1186 94.0487 25.1647 94.0793L53.9178 113.35C54.1302 113.491 53.9661 113.474 102.836 94.5739C102.889 94.5542 102.936 94.5199 102.97 94.475C103.005 94.4301 103.026 94.3764 103.031 94.3201C103.101 93.6515 103.188 93.4123 102.938 93.2881ZM27.1912 51.9664L75.4351 42.5308L73.4645 78.8326L25.7505 92.6057L27.1912 51.9664ZM54.2774 111.412L26.1523 93.1378L73.7237 79.4053L102.034 93.5227L54.2774 111.412Z" fill="#4B1010"/>
<path d="M71.599 76.9946L28.2041 89.0196L29.5145 53.4854L73.4507 44.9292L71.6006 76.9946H71.599Z" fill="white"/>
<path d="M73.3932 44.6276L29.4585 53.1837C29.3905 53.197 29.3291 53.2329 29.2841 53.2855C29.2392 53.3381 29.2133 53.4044 29.2108 53.4735L27.8997 89.0078C27.8977 89.056 27.9072 89.104 27.9274 89.1479C27.9476 89.1918 27.9779 89.2303 28.0159 89.2602C28.0538 89.2901 28.0982 89.3106 28.1456 89.3201C28.193 89.3295 28.2419 89.3276 28.2884 89.3145L71.6864 77.2895C71.7482 77.2726 71.8031 77.2367 71.8434 77.1869C71.8837 77.1371 71.9074 77.0759 71.9111 77.012L73.7558 44.9465C73.7585 44.9001 73.7506 44.8536 73.7326 44.8107C73.7146 44.7677 73.6871 44.7294 73.6522 44.6987C73.6173 44.668 73.5758 44.6456 73.5309 44.6333C73.486 44.6209 73.4389 44.619 73.3932 44.6276ZM71.3076 76.7543L28.5284 88.6083L29.8112 53.7388L73.121 45.3046L71.3084 76.7543H71.3076Z" fill="#4B1010"/>
<path d="M70.6584 101.655C70.5426 101.655 70.9851 101.885 64.4225 98.3034C64.3829 98.2822 64.3485 98.2525 64.3218 98.2164C64.295 98.1804 64.2766 98.1389 64.2677 98.0948C64.2589 98.0508 64.2598 98.0054 64.2705 97.9618C64.2812 97.9182 64.3014 97.8775 64.3297 97.8426C64.3669 97.7955 64.4174 97.7605 64.4746 97.7422C73.9255 94.6752 73.7799 94.6691 73.9508 94.7519L80.117 97.6808C80.1716 97.7071 80.2173 97.7488 80.2485 97.8007C80.2797 97.8526 80.295 97.9125 80.2926 97.973C80.2899 98.0335 80.2692 98.0919 80.2331 98.1407C80.1971 98.1894 80.1473 98.2264 80.0902 98.2467C70.6669 101.673 70.7435 101.655 70.6584 101.655ZM65.3418 98.1049L70.6837 101.012L79.1946 97.9193L73.8006 95.3568L65.3418 98.1049Z" fill="#4B1010"/>
<path d="M56.4151 75.6843C58.7277 74.0664 60.5004 71.1375 61.3484 68.4385C59.422 68.9287 57.3954 68.8552 55.5096 68.2266C53.6238 67.5981 51.9583 66.441 50.7113 64.8931C49.7858 67.4371 49.0804 71.1421 50.0174 73.7574C51.0747 76.7094 53.6748 77.6027 56.4151 75.6843Z" fill="#FFE55D"/>
<path d="M61.2726 68.1414C59.4032 68.615 57.4371 68.5425 55.6076 67.9326C53.7781 67.3226 52.1619 66.2008 50.9506 64.7002C50.9166 64.6577 50.8718 64.6251 50.8209 64.6057C50.7701 64.5862 50.715 64.5807 50.6613 64.5896C50.6076 64.5985 50.5572 64.6215 50.5154 64.6563C50.4735 64.6911 50.4417 64.7364 50.4231 64.7876C49.4708 67.416 48.7807 71.18 49.7292 73.8621C50.3748 75.6356 52.0294 77.2488 53.8972 76.9912C57.4611 76.6952 60.5381 72.0403 61.6414 68.5309C61.6579 68.4787 61.6601 68.423 61.6479 68.3697C61.6356 68.3164 61.6093 68.2673 61.5717 68.2275C61.5341 68.1878 61.4865 68.1588 61.4339 68.1437C61.3813 68.1285 61.3256 68.1277 61.2726 68.1414ZM53.8298 76.3839C52.2464 76.604 50.8586 75.174 50.3066 73.6566C49.4723 71.2935 49.9999 67.9888 50.8249 65.5022C52.0656 66.8877 53.6458 67.9261 55.41 68.515C57.1741 69.1039 59.0612 69.223 60.8854 68.8606C59.8219 71.8701 57.0133 76.1155 53.8298 76.3831V76.3839Z" fill="#4B1010"/>
<path d="M84.8231 88.6627C71.681 82.1867 71.8282 82.1921 71.6503 82.2458L35.8838 92.8829C35.8275 92.8999 35.7774 92.9326 35.7391 92.9771C35.7008 93.0217 35.676 93.0762 35.6675 93.1344C35.6593 93.1927 35.6681 93.2521 35.6929 93.3056C35.7176 93.3591 35.7573 93.4042 35.8071 93.4357C48.8127 101.64 48.6501 101.635 48.8648 101.563L84.7855 89.2301C84.8435 89.2109 84.8944 89.1748 84.9317 89.1264C84.9691 89.0781 84.9912 89.0197 84.9951 88.9588C84.9991 88.8978 84.9847 88.8371 84.9539 88.7843C84.9231 88.7316 84.8773 88.6892 84.8223 88.6627H84.8231ZM36.7065 93.2785L71.7063 82.8684L74.5778 84.2868L39.6255 95.1248L36.7065 93.2785ZM75.3767 84.6817L79.317 86.627L44.3648 98.1228L40.3056 95.5557L75.3767 84.6817ZM48.8073 100.937L45.0365 98.5514L80.106 87.0203L83.8915 88.8904L48.8073 100.937Z" fill="#4B1010"/>
<path d="M77.9175 52.7529C77.8951 52.5703 77.8342 52.3946 77.7389 52.2374C77.6437 52.0801 77.5161 51.9448 77.3647 51.8404C77.2136 51.7358 77.0422 51.6641 76.8616 51.6302C76.681 51.5962 76.4953 51.6007 76.3165 51.6434L35.7808 60.1198C35.4415 60.189 35.1376 60.3756 34.9224 60.6469C34.7073 60.9181 34.5947 61.2566 34.6046 61.6027L35.3859 71.529C35.4759 71.8217 35.6559 72.0786 35.9002 72.2631C36.1445 72.4477 36.4408 72.5506 36.7469 72.5572C36.9578 72.5572 36.7584 72.5818 52.9199 68.9719C53.2079 68.9148 53.4701 68.7674 53.6685 68.551C53.867 68.3347 53.9912 68.0607 54.0233 67.7689L54.6367 60.0868C54.6556 59.9243 54.7249 59.7717 54.8349 59.6506C54.9449 59.5294 55.0901 59.4458 55.2501 59.4113C60.1051 58.4767 60.1274 58.2535 60.4893 58.5679C60.5677 58.6381 60.6303 58.7242 60.673 58.8204C60.7157 58.9166 60.7375 59.0208 60.7369 59.1261C60.9072 65.9502 61.0352 65.7485 61.0567 65.8252C61.1575 66.1721 61.3872 66.4674 61.6986 66.6506C62.0101 66.8337 62.3798 66.8909 62.732 66.8105L75.6318 63.7964C75.9023 63.7231 76.1459 63.5732 76.3331 63.3646C76.5203 63.1561 76.6432 62.8978 76.6868 62.6209C78.1475 52.7981 77.9175 53.4092 77.9175 52.7521V52.7529Z" fill="#4B1010"/>
<path d="M39.3799 67.6662C39.3216 67.6664 39.2644 67.6501 39.215 67.619C39.1657 67.5879 39.1262 67.5434 39.1013 67.4907C39.0763 67.438 39.0669 67.3792 39.0742 67.3214C39.0814 67.2635 39.105 67.2089 39.1422 67.1639L43.8454 61.4609C43.8983 61.4022 43.9717 61.3661 44.0505 61.3602C44.1293 61.3543 44.2073 61.3791 44.2683 61.4293C44.3293 61.4795 44.3685 61.5513 44.3779 61.6298C44.3873 61.7082 44.366 61.7872 44.3185 61.8504C39.1759 68.0856 39.5869 67.6662 39.3799 67.6662Z" fill="white"/>
<path d="M46.3166 66.9722C46.2588 66.9722 46.2021 66.9557 46.1532 66.9249C46.1043 66.894 46.0651 66.8499 46.0402 66.7977C46.0153 66.7455 46.0056 66.6874 46.0123 66.6299C46.019 66.5725 46.0419 66.5181 46.0782 66.4731L49.3169 62.4653C49.3696 62.4083 49.442 62.3735 49.5195 62.3678C49.5969 62.3621 49.6736 62.386 49.7341 62.4346C49.7946 62.4832 49.8344 62.553 49.8455 62.6299C49.8566 62.7067 49.8381 62.7849 49.7938 62.8487C46.2898 67.1885 46.5267 66.9722 46.3166 66.9722Z" fill="white"/>
<path d="M65.5874 61.3461C65.5295 61.3462 65.4728 61.3299 65.4237 61.299C65.3747 61.2682 65.3354 61.2242 65.3104 61.1719C65.2854 61.1197 65.2756 61.0615 65.2823 61.004C65.289 60.9465 65.3118 60.892 65.3482 60.8469L69.8183 55.298C69.8701 55.2374 69.9434 55.1993 70.0227 55.1918C70.102 55.1843 70.1812 55.208 70.2433 55.2578C70.3055 55.3076 70.3459 55.3797 70.3558 55.4587C70.3658 55.5378 70.3446 55.6176 70.2968 55.6813C65.4478 61.6996 65.8021 61.3461 65.5874 61.3461Z" fill="white"/>
<path d="M71.2144 62.1163C71.1586 62.1162 71.104 62.1009 71.0563 62.0721C71.0086 62.0433 70.9697 62.0021 70.9437 61.9528C70.9177 61.9035 70.9056 61.8481 70.9087 61.7925C70.9118 61.7369 70.93 61.6831 70.9613 61.6371L73.7362 57.5518C73.7819 57.4845 73.8526 57.4382 73.9325 57.4229C74.0125 57.4077 74.0952 57.4248 74.1625 57.4706C74.2298 57.5163 74.2762 57.5869 74.2914 57.6669C74.3067 57.7468 74.2895 57.8296 74.2438 57.8969C71.2458 62.3111 71.4467 62.1163 71.2144 62.1163Z" fill="white"/>
<path d="M39.988 55.528C41.1945 54.0244 42.9484 53.0611 44.8646 52.8496C46.7808 52.6381 48.7026 53.1958 50.208 54.4002C50.2395 54.4253 50.2657 54.4565 50.2852 54.4918C50.3047 54.5271 50.317 54.5659 50.3215 54.606C50.326 54.6461 50.3225 54.6867 50.3113 54.7254C50.3002 54.7642 50.2814 54.8003 50.2563 54.8318C50.2311 54.8634 50.2 54.8896 50.1646 54.9091C50.1293 54.9286 50.0905 54.9409 50.0504 54.9454C50.0103 54.9499 49.9698 54.9464 49.931 54.9352C49.8923 54.924 49.8561 54.9053 49.8246 54.8801C48.4466 53.7773 46.6872 53.2665 44.9329 53.4598C43.1785 53.6532 41.5727 54.5349 40.4679 55.9114C40.4301 55.9591 40.379 55.9944 40.321 56.0129C40.263 56.0314 40.2008 56.0322 40.1424 56.0153C40.0839 55.9984 40.0318 55.9644 39.9927 55.9178C39.9536 55.8712 39.9293 55.814 39.9228 55.7535C39.9138 55.6727 39.9372 55.5916 39.988 55.528Z" fill="#4B1010"/>
<path d="M63.2409 54.4135C64.521 54.282 65.7572 53.874 66.8641 53.2178C67.971 52.5615 68.9221 51.6727 69.6517 50.6127C69.6746 50.5795 69.7037 50.5512 69.7375 50.5293C69.7713 50.5074 69.8091 50.4924 69.8488 50.4851C69.8884 50.4778 69.9291 50.4783 69.9685 50.4868C70.0079 50.4952 70.0452 50.5113 70.0784 50.5341C70.1116 50.557 70.1399 50.5862 70.1618 50.62C70.1837 50.6538 70.1988 50.6916 70.2061 50.7312C70.2134 50.7708 70.2128 50.8115 70.2044 50.8509C70.1959 50.8903 70.1798 50.9277 70.157 50.9608C69.3782 52.0936 68.3626 53.0436 67.1806 53.7453C65.9985 54.447 64.6781 54.8835 63.3107 55.0246C63.2706 55.0292 63.2299 55.0258 63.1911 55.0147C63.1523 55.0036 63.116 54.9849 63.0844 54.9598C63.0528 54.9346 63.0264 54.9035 63.0069 54.8682C62.9873 54.8329 62.9748 54.7941 62.9702 54.7539C62.9657 54.7138 62.969 54.6732 62.9802 54.6343C62.9913 54.5955 63.0099 54.5593 63.0351 54.5277C63.0602 54.496 63.0913 54.4697 63.1266 54.4501C63.162 54.4305 63.2008 54.4181 63.2409 54.4135Z" fill="#4B1010"/>
<path d="M38.8251 74.2689L32.1958 81.5914C31.9658 81.8981 30.8847 81.6681 30.6547 81.3614L20.7881 68.3328C20.7136 68.2188 20.6738 68.0856 20.6738 67.9494C20.6738 67.8132 20.7136 67.68 20.7881 67.566L25.2583 60.7052C25.4883 60.3985 27.1859 60.8585 27.4941 61.0885L38.8251 73.4209C38.9008 73.5494 38.9407 73.6958 38.9407 73.8449C38.9407 73.994 38.9008 74.1404 38.8251 74.2689Z" fill="white"/>
<path d="M39.0501 73.2132L27.6777 60.8424C27.1655 60.4591 25.0876 59.9446 24.35 60.6822L18.6217 67.1896C18.5116 67.3582 18.4542 67.5558 18.4566 67.7572C18.4591 67.9585 18.5213 68.1546 18.6355 68.3206L29.0632 81.5278C29.3653 81.8299 32.0045 82.3613 32.4208 81.7969L39.0494 74.4745C39.175 74.2882 39.2423 74.0687 39.2424 73.8439C39.2425 73.6192 39.1756 73.3996 39.0501 73.2132ZM38.5824 74.0834L31.9654 81.3959C31.7652 81.4402 31.5573 81.4347 31.3598 81.38C31.1622 81.3254 30.9811 81.2232 30.8321 81.0823L37.0673 74.1946C37.1927 74.0227 37.2603 73.8155 37.2603 73.6027C37.2603 73.3899 37.1927 73.1826 37.0673 73.0108L25.9633 60.9299C26.4126 60.9912 26.8512 61.1146 27.2667 61.2956L38.5686 73.5904C38.6097 73.6657 38.6324 73.7496 38.6348 73.8353C38.6371 73.921 38.6192 74.006 38.5824 74.0834Z" fill="#4B1010"/>
<path d="M32.9087 81.4656C32.8914 81.2027 32.8131 80.9474 32.68 80.7199C32.5469 80.4925 32.3627 80.2992 32.142 80.1552C31.6764 79.8448 31.1513 79.6346 30.6 79.538C30.4848 79.5187 30.378 79.4653 30.2933 79.3847C30.2933 78.1763 31.0731 77.5483 31.6037 76.5324C32.7193 74.3977 29.6569 73.256 27.8275 76.4557C27.8237 75.6369 27.98 74.8253 28.2875 74.0665C28.5942 73.2185 28.9776 71.8314 27.9041 71.3691C26.9795 71.0624 25.9773 72.0591 25.5916 72.6794C25.257 73.3143 24.9996 73.9869 24.8249 74.683L24.7482 72.602C24.7482 71.8353 24.5182 70.9834 23.8227 70.8293C23.5798 70.7996 23.3334 70.8419 23.1142 70.951C22.8951 71.06 22.7127 71.231 22.5898 71.4427C21.0509 73.5972 21.7832 76.4074 23.3566 78.4569C24.2716 79.8483 25.4911 81.0135 26.9227 81.8643C25.9259 84.8477 26.0548 84.3754 26.0548 84.7013C26.0548 85.0962 29.4108 87.4348 32.0668 85.238C32.3061 84.9988 32.2708 85.1652 32.0231 82.8688C32.2602 82.7093 32.4614 82.5021 32.6138 82.2606C32.7663 82.019 32.8668 81.7482 32.9087 81.4656Z" fill="#FFE55D"/>
<path d="M32.3046 79.8997C31.7917 79.5477 31.2058 79.3163 30.5909 79.2226C30.6905 78.5709 30.9627 77.9575 31.3806 77.4476C31.8269 76.9337 32.0911 76.2868 32.132 75.6074C32.1095 75.2269 31.9482 74.8679 31.6787 74.5983C31.4093 74.3287 31.0503 74.1673 30.6698 74.1445C30.1954 74.1539 29.7291 74.2689 29.3047 74.4811C28.8803 74.6933 28.5085 74.9974 28.2162 75.3713C28.2915 74.9591 28.409 74.5557 28.5667 74.1675C29.1609 72.5335 28.9746 71.4954 27.9901 71.0744C26.9166 70.7163 25.8048 71.7384 25.3064 72.5381C25.2298 72.6984 25.1408 72.8732 25.0565 73.0588L25.0396 72.5987C25.0396 71.4631 24.6026 70.6887 23.8511 70.5223C23.552 70.4819 23.2475 70.5307 22.9759 70.6626C22.7044 70.7945 22.4778 71.0037 22.3246 71.2638C20.7082 73.5265 21.4374 76.4815 23.0913 78.6246C23.9835 79.9873 25.1627 81.1387 26.5463 81.9983L25.7542 84.3752C25.7127 84.5191 25.7149 84.6721 25.7605 84.8147C25.8061 84.9574 25.8931 85.0833 26.0103 85.1765C26.8996 85.9041 27.9855 86.3504 29.1294 86.4585C28.8611 87.5319 28.4056 89.0324 27.3023 88.945C26.3538 88.8722 26.0364 87.5258 25.9605 87.1148C25.9426 87.0381 25.8958 86.9711 25.8299 86.9279C25.764 86.8847 25.684 86.8686 25.6065 86.8828C25.529 86.897 25.4599 86.9405 25.4136 87.0042C25.3673 87.068 25.3473 87.1471 25.3578 87.2252C25.4529 87.7451 25.8692 89.4488 27.2547 89.5569C28.7882 89.675 29.4016 87.9621 29.7589 86.4623C30.6828 86.4056 31.5642 86.0544 32.2739 85.4601C32.343 85.4059 32.4003 85.3381 32.4423 85.261C32.4844 85.1839 32.5103 85.0991 32.5185 85.0116L32.326 83.0296C32.8166 82.6462 33.1353 82.084 33.2124 81.4662C33.1954 81.1519 33.1043 80.8462 32.9466 80.5739C32.7888 80.3017 32.5688 80.0706 32.3046 79.8997ZM31.8621 85.0055C29.6232 86.8556 26.5049 85.1765 26.3523 84.5209L27.0868 82.3165C28.1373 82.8892 29.2671 83.3026 30.4391 83.5433C30.8869 83.5863 31.3385 83.5238 31.7579 83.3608C31.9549 85.1619 31.9434 84.8989 31.8621 85.0055ZM30.6698 82.9352L30.5012 82.9414C29.0987 82.6575 27.7662 82.0992 26.5802 81.2987C25.3942 80.4981 24.3782 79.471 23.5905 78.2765C22.0984 76.3351 21.3669 73.676 22.839 71.6058C22.9273 71.4473 23.0598 71.318 23.2203 71.2335C23.3808 71.1491 23.5625 71.1133 23.743 71.1304C24.2483 71.2431 24.4285 71.9654 24.4285 72.6156L24.5052 74.6965C24.5081 74.7709 24.5379 74.8418 24.5892 74.8958C24.6405 74.9498 24.7097 74.9833 24.7838 74.99C24.858 74.9968 24.9321 74.9763 24.9923 74.9325C25.0524 74.8886 25.0946 74.8244 25.1109 74.7517C25.2796 74.0893 25.525 73.4483 25.8432 72.8433C26.2265 72.2299 27.1114 71.4332 27.7746 71.6525C28.1672 71.8212 28.618 72.2437 27.9962 73.9528C27.6737 74.7479 27.5091 75.5982 27.5116 76.4562C27.5114 76.5239 27.5336 76.5897 27.5748 76.6434C27.6159 76.6972 27.6736 76.7358 27.739 76.7533C27.8043 76.7708 27.8737 76.7662 27.9361 76.7402C27.9986 76.7142 28.0507 76.6683 28.0844 76.6096C28.3131 76.1073 28.668 75.6727 29.1145 75.3482C29.561 75.0237 30.0839 74.8203 30.6323 74.7579C30.8575 74.7705 31.0708 74.8634 31.2335 75.0196C31.3962 75.1759 31.4976 75.3852 31.5194 75.6097C31.5194 76.7384 30.0956 77.6094 29.9782 79.1552C29.9782 79.3545 29.9545 79.4902 30.0679 79.603C30.4682 80.0047 30.7933 79.6712 31.9772 80.4195C32.1513 80.5327 32.2978 80.6835 32.406 80.8607C32.5141 81.038 32.5811 81.2373 32.6021 81.4439C32.5197 81.8863 32.2769 82.2827 31.9204 82.5571C31.5638 82.8316 31.1186 82.9649 30.6698 82.9314V82.9352Z" fill="#4B1010"/>
<path d="M15.3313 64.66L4.23798 62.0316C4.19876 62.0223 4.16176 62.0054 4.12909 61.9818C4.09643 61.9581 4.06873 61.9283 4.04758 61.894C4.02643 61.8597 4.01225 61.8215 4.00585 61.7817C3.99945 61.7419 4.00095 61.7013 4.01026 61.6621C4.01957 61.6228 4.03652 61.5858 4.06013 61.5532C4.08375 61.5205 4.11356 61.4928 4.14788 61.4717C4.1822 61.4505 4.22035 61.4363 4.26015 61.4299C4.29994 61.4235 4.34061 61.425 4.37983 61.4343L15.4026 64.0551C15.4757 64.0726 15.5397 64.1163 15.5827 64.1779C15.6257 64.2394 15.6446 64.3147 15.6358 64.3892C15.627 64.4638 15.5911 64.5326 15.535 64.5825C15.4789 64.6324 15.4064 64.66 15.3313 64.66Z" fill="#4B1010"/>
<path d="M17.4891 58.3394C17.3357 58.3394 17.4523 58.3862 7.2913 50.9579C7.25877 50.9342 7.23125 50.9042 7.2103 50.8698C7.18934 50.8354 7.17537 50.7973 7.16918 50.7575C7.16298 50.7177 7.16469 50.677 7.1742 50.6379C7.1837 50.5987 7.20083 50.5619 7.22459 50.5293C7.24835 50.4968 7.27829 50.4693 7.31269 50.4483C7.34709 50.4274 7.38528 50.4134 7.42508 50.4072C7.46488 50.401 7.50551 50.4027 7.54465 50.4122C7.5838 50.4217 7.62068 50.4389 7.6532 50.4626L17.6738 57.7858C17.726 57.8243 17.7647 57.8783 17.7843 57.9401C17.8039 58.0019 17.8034 58.0684 17.7828 58.1299C17.7623 58.1914 17.7228 58.2448 17.67 58.2824C17.6172 58.3201 17.5539 58.34 17.4891 58.3394Z" fill="#4B1010"/>
<path d="M21.7291 52.2502C21.5114 52.2502 21.8541 52.6082 17.5549 47.0439C17.5069 46.9795 17.4861 46.8987 17.497 46.819C17.5079 46.7393 17.5497 46.6671 17.6133 46.6179C17.677 46.5688 17.7574 46.5466 17.8373 46.5561C17.9171 46.5657 17.99 46.6062 18.0403 46.669L21.9714 51.7564C22.0063 51.8017 22.0278 51.8559 22.0335 51.9129C22.0393 51.9698 22.0289 52.0272 22.0037 52.0786C21.9785 52.1299 21.9394 52.1732 21.8909 52.2036C21.8424 52.2339 21.7863 52.25 21.7291 52.2502Z" fill="#4B1010"/>
<path d="M144.518 79.9231L118.157 94.1846C118.617 80.8432 118.567 75.4583 120.084 60.0382C141.198 54.7591 134.524 55.5565 147.106 51.5833C146.506 59.628 142.624 70.6109 144.518 79.9231Z" fill="#FFE55D"/>
<path d="M85.7061 79.1527C96.883 83.3921 108.137 87.863 118.08 94.4149C119.544 82.8523 120.855 71.2138 121.472 59.5745C118.58 59.2678 119.839 59.5347 92.2587 52.7144C91.952 52.6378 88.5591 51.5582 88.5591 51.7123C88.5591 55.566 88.5952 59.4948 88.3291 63.3516C88.2363 64.6604 86.0143 79.3068 85.7061 79.1527Z" fill="white"/>
<path d="M134.887 51.249C129.338 50.8511 123.656 50.3558 118.623 47.781C118.469 47.7044 118.392 47.6277 118.239 47.6277C117.793 47.6277 118.251 47.827 113.923 49.1689C105.468 51.7919 97.9793 52.8883 88.7178 51.7896C97.25 55.9697 106.257 59.1017 115.542 61.1171C120.74 62.5509 124.346 61.857 128.722 60.115C135.068 57.6428 141.246 54.7588 147.216 51.4814C146.603 51.7881 144.981 51.4814 144.287 51.4814C140.597 51.4814 138.644 51.5197 134.887 51.2498V51.249Z" fill="#FFE55D"/>
<path d="M96.2671 66.7428L93.9546 65.8948C92.9515 66.7569 92.1603 67.8384 91.6421 69.0553C92.4901 69.2087 93.3374 69.4387 94.1854 69.6687C94.3016 69.06 94.5477 68.4835 94.907 67.9786C95.2662 67.4736 95.7301 67.0521 96.2671 66.7428Z" fill="#FFE55D"/>
<path d="M103.358 81.3109C104.668 81.8032 106.006 82.215 107.366 82.5438C107.435 80.6694 108.142 78.8746 109.37 77.4565C108.445 77.2264 107.675 76.8431 106.75 76.6897C105.825 76.5364 105.748 76.153 105.208 76.8431C104.656 77.5843 104.19 78.3861 103.82 79.233C103.82 79.3841 103.204 81.2335 103.358 81.3109Z" fill="#FFE55D"/>
<path d="M104.299 68.9171C96.8681 66.5348 100.619 67.767 91.8129 64.9085C91.7746 64.8962 91.7342 64.8915 91.694 64.8948C91.6538 64.8981 91.6147 64.9093 91.5789 64.9277C91.543 64.9461 91.5111 64.9714 91.4851 65.0021C91.459 65.0328 91.4392 65.0684 91.4269 65.1067C91.4146 65.1451 91.4099 65.1855 91.4132 65.2257C91.4165 65.2658 91.4276 65.305 91.446 65.3408C91.4644 65.3767 91.4897 65.4085 91.5204 65.4346C91.5512 65.4607 91.5867 65.4805 91.6251 65.4928L93.3365 66.0418C92.496 66.8676 91.8249 67.8495 91.3606 68.9324C91.3427 68.975 91.3343 69.0209 91.3362 69.067C91.338 69.1132 91.35 69.1583 91.3713 69.1993C91.4917 69.4293 91.379 69.2238 94.1048 69.966C94.1457 69.9773 94.1886 69.9801 94.2306 69.974C94.2726 69.9679 94.313 69.9531 94.349 69.9306C94.3851 69.9081 94.416 69.8784 94.44 69.8433C94.4639 69.8082 94.4803 69.7685 94.4881 69.7268C94.5961 69.1666 94.822 68.6358 95.1507 68.1695C95.4795 67.7033 95.9036 67.3123 96.395 67.0225C104.199 69.5274 104.131 69.5144 104.207 69.5144C104.28 69.5128 104.349 69.4859 104.403 69.4384C104.458 69.3909 104.494 69.3258 104.505 69.2545C104.516 69.1831 104.501 69.1102 104.463 69.0485C104.426 68.9869 104.368 68.9404 104.299 68.9171ZM95.5938 66.8223C94.7901 67.4416 94.2143 68.3099 93.9568 69.2913C93.3434 69.1241 92.7139 68.9593 92.0844 68.8312C92.5484 67.8565 93.1997 66.9827 94.0012 66.2595C94.472 66.4068 94.1331 66.2871 95.5938 66.8223Z" fill="#4B1010"/>
<path d="M114.551 78.7837L98.0561 73.4648C98.0177 73.4524 97.9773 73.4477 97.9371 73.4509C97.8969 73.4542 97.8578 73.4653 97.8219 73.4837C97.786 73.502 97.7541 73.5273 97.728 73.558C97.7018 73.5887 97.682 73.6243 97.6696 73.6626C97.6572 73.701 97.6525 73.7414 97.6558 73.7816C97.659 73.8218 97.6701 73.8609 97.6885 73.8968C97.7069 73.9327 97.7321 73.9646 97.7628 73.9907C97.7935 74.0169 97.8291 74.0367 97.8674 74.0491L105.18 76.4068C104.51 77.2241 103.958 78.1316 103.541 79.1027C103.505 79.1794 103.551 79.1027 103.371 79.7353C102.969 81.1438 102.916 81.4328 103.218 81.5847C104.572 82.0914 105.957 82.5141 107.363 82.8506C107.442 82.8505 107.518 82.8199 107.575 82.7652C107.632 82.7105 107.666 82.6359 107.67 82.5569C107.738 80.8146 108.374 79.1424 109.481 77.7946L114.361 79.3672C114.399 79.3799 114.44 79.3849 114.48 79.3819C114.52 79.3788 114.559 79.3679 114.595 79.3497C114.631 79.3314 114.663 79.3062 114.69 79.2756C114.716 79.2449 114.736 79.2093 114.748 79.1709C114.773 79.0935 114.766 79.0093 114.729 78.9367C114.693 78.8642 114.628 78.8092 114.551 78.7837ZM107.083 82.1636C105.923 81.8635 104.778 81.5052 103.654 81.0901C103.725 80.6799 104.082 79.5152 104.114 79.3151C104.469 78.5046 104.916 77.7374 105.446 77.0286C105.694 76.7081 105.694 76.7081 106.023 76.8155C106.47 76.9619 106.042 76.7695 108.827 77.6236C107.823 78.9388 107.218 80.5145 107.083 82.1636Z" fill="#4B1010"/>
<path d="M108.291 75.4516L94.6426 71.5083C94.6038 71.4971 94.5676 71.4785 94.5361 71.4533C94.5045 71.4282 94.4783 71.397 94.4588 71.3617C94.4394 71.3263 94.4271 71.2875 94.4227 71.2473C94.4183 71.2072 94.4219 71.1667 94.4333 71.1279C94.4443 71.0892 94.4629 71.053 94.488 71.0215C94.5131 70.9899 94.5442 70.9637 94.5794 70.9442C94.6147 70.9247 94.6535 70.9125 94.6936 70.9081C94.7336 70.9037 94.7742 70.9073 94.8128 70.9186L108.376 74.8497C108.447 74.8701 108.509 74.9155 108.549 74.9776C108.59 75.0397 108.607 75.1144 108.597 75.1879C108.586 75.2612 108.549 75.3281 108.493 75.3765C108.436 75.4249 108.365 75.4515 108.291 75.4516Z" fill="#4B1010"/>
<path d="M119.036 66.8915C115.481 66.3495 111.965 65.5742 108.511 64.5706C103.958 63.2671 102.193 63.3154 98.9374 62.176C98.8619 62.1483 98.8004 62.092 98.7662 62.0192C98.7321 61.9464 98.728 61.863 98.7549 61.7873C98.7818 61.7118 98.837 61.6497 98.9088 61.6142C98.9807 61.5787 99.0636 61.5725 99.1398 61.5971C102.59 62.8032 103.664 62.5479 108.681 63.9817C112.108 64.9777 115.597 65.7475 119.125 66.285C119.203 66.2994 119.273 66.3435 119.319 66.4081C119.365 66.4726 119.385 66.5526 119.373 66.6311C119.361 66.7097 119.32 66.7807 119.257 66.8293C119.194 66.8778 119.115 66.9001 119.036 66.8915Z" fill="#4B1010"/>
<path d="M118.929 69.8244C118.41 69.8244 110.841 68.2434 108.608 67.7358C108.529 67.7178 108.46 67.669 108.416 67.6001C108.373 67.5313 108.359 67.448 108.377 67.3685C108.395 67.2891 108.444 67.2201 108.512 67.1767C108.581 67.1333 108.665 67.119 108.744 67.137C118.843 69.4326 119.341 68.9588 119.23 69.5729C119.217 69.6435 119.18 69.7073 119.125 69.7532C119.07 69.7992 119 69.8244 118.929 69.8244Z" fill="#4B1010"/>
<path d="M147.078 51.2063C146.436 51.3397 145.775 51.3482 145.129 51.2324C143.772 51.133 142.409 51.1135 141.049 51.1741C139.004 51.1741 136.995 51.0936 134.905 50.9441C129.73 50.573 123.834 50.2256 118.756 47.5075C117.817 47.0045 118.424 47.5244 113.822 48.8777C105.764 51.6088 97.1967 52.4997 88.7493 51.4846C88.6156 51.4986 88.4914 51.5607 88.4001 51.6595C88.3088 51.7583 88.2566 51.8869 88.2532 52.0214C88.2609 55.8781 88.3131 59.6889 88.0232 63.3348C87.9527 64.5278 85.9177 77.8309 85.4929 78.9358C85.4584 78.9701 85.4324 79.0121 85.4171 79.0583C85.4018 79.1045 85.3976 79.1537 85.4048 79.2018C85.4118 79.2502 85.4305 79.2961 85.4593 79.3356C85.488 79.3751 85.5258 79.4071 85.5696 79.4288C87.613 80.4509 104.555 85.8695 117.911 94.6725C117.958 94.7048 118.013 94.7231 118.07 94.7254C118.126 94.7276 118.182 94.7147 118.232 94.6879C118.282 94.6601 118.323 94.6194 118.35 94.57C118.378 94.5207 118.392 94.4646 118.39 94.408L144.665 80.1948C145.383 79.8053 143.266 78.2235 145.053 66.0191C145.792 60.9755 147.012 56.7875 147.403 51.7246C147.45 51.6907 147.487 51.644 147.509 51.5901C147.53 51.5361 147.536 51.4772 147.525 51.4201C147.515 51.3629 147.488 51.3101 147.448 51.2676C147.409 51.2251 147.358 51.1948 147.301 51.1802C147.226 51.1604 147.147 51.1697 147.078 51.2063ZM102.391 52.0934C107.713 51.4064 112.926 50.0495 117.908 48.055C118.008 47.9941 118.119 47.9528 118.234 47.9331C118.261 47.9331 118.275 47.94 118.355 47.986C123.071 50.6941 129.876 51.2063 134.861 51.5552C138.501 51.8258 140.651 51.7852 144.286 51.7852C144.609 51.7852 145.259 51.8688 145.811 51.9033C140.239 54.8919 134.492 57.5395 128.6 59.8315C124.172 61.595 120.663 62.2084 115.603 60.816C106.921 58.9293 98.4811 56.0643 90.4446 52.2759C94.4226 52.6242 98.4258 52.563 102.391 52.0934H102.391ZM117.837 93.8889C108.14 87.577 97.2832 83.2196 86.0795 78.9665C86.2099 78.5394 86.367 77.837 86.5396 76.9606C90.1786 77.8969 93.7613 79.0399 97.2702 80.3842C97.3406 80.3823 97.4082 80.3564 97.4618 80.3107C97.5153 80.2651 97.5517 80.2025 97.5648 80.1333C97.5779 80.0642 97.5669 79.9926 97.5336 79.9306C97.5004 79.8685 97.447 79.8197 97.3822 79.7922C93.8817 78.4237 90.2988 77.2761 86.6546 76.3564C87.5103 71.7268 88.6289 63.4797 88.6351 63.3754C88.9241 59.7556 88.8766 56.0284 88.8651 52.2046C97.3309 56.3192 106.257 59.41 115.454 61.4117C117.263 61.9101 119.13 62.1632 121.006 62.1624C121.085 62.1624 120.332 74.1359 117.837 93.8889H117.837ZM144.538 65.3114C140.514 67.5961 136.236 69.4006 131.791 70.6879C131.713 70.7108 131.647 70.7639 131.608 70.8354C131.569 70.9068 131.56 70.9909 131.583 71.0689C131.606 71.147 131.659 71.2128 131.731 71.2518C131.802 71.2907 131.886 71.2997 131.964 71.2767C136.3 70.0175 140.479 68.2733 144.424 66.0774C143.823 69.5632 143.604 73.1039 143.77 76.6371C138.135 80.2484 132.06 83.1202 125.693 85.1817C125.654 85.194 125.619 85.2137 125.588 85.2399C125.557 85.2661 125.532 85.2981 125.514 85.3342C125.495 85.3702 125.484 85.4095 125.481 85.4499C125.479 85.4902 125.484 85.5306 125.497 85.5689C125.522 85.6458 125.577 85.7097 125.649 85.7468C125.685 85.7652 125.724 85.7764 125.764 85.7795C125.804 85.7827 125.845 85.7778 125.883 85.7652C132.202 83.738 138.232 80.9031 143.825 77.331C143.902 78.1445 144.016 78.9557 144.171 79.7623L118.485 93.6589C119.077 88.9687 119.687 83.912 120.234 78.659C124.24 77.4829 128.192 76.1334 132.081 74.6144C132.654 75.2573 133.066 76.0277 133.283 76.8617C133.456 77.5365 133.536 78.2319 133.521 78.9281C133.467 78.9768 133.432 79.0432 133.422 79.1153C133.413 79.1874 133.429 79.2605 133.469 79.3215C133.509 79.3825 133.568 79.4275 133.638 79.4486C133.707 79.4696 133.782 79.4653 133.849 79.4365C134.938 78.9695 135.836 78.3707 136.883 77.916C136.986 77.9029 137.085 77.8674 137.174 77.8121C137.262 77.7567 137.337 77.6828 137.394 77.5955C137.482 77.3762 137.518 77.1408 137.503 76.9054C137.411 75.4903 136.911 74.1321 136.063 72.995C136.975 72.6079 137.883 72.2115 138.787 71.8058C138.857 71.77 138.91 71.7087 138.936 71.6345C138.963 71.5603 138.959 71.4789 138.927 71.4071C138.895 71.3353 138.836 71.2787 138.763 71.2489C138.691 71.219 138.609 71.2183 138.536 71.2468C132.616 73.904 126.525 76.161 120.303 78.0027C120.657 74.5592 120.984 71.0352 121.259 67.4783C121.554 67.4346 122.199 67.272 123.866 66.8718C123.84 67.7413 124.505 69.2679 124.561 69.7149C124.57 69.7895 124.606 69.8582 124.663 69.9077C124.72 69.9573 124.793 69.9842 124.868 69.9832C125.666 69.6112 126.531 69.4027 127.411 69.3698C127.456 69.3704 127.5 69.3613 127.54 69.343C127.581 69.3247 127.617 69.2978 127.646 69.264C127.676 69.2309 127.697 69.1915 127.71 69.1488C127.722 69.106 127.725 69.061 127.718 69.0171C127.578 68.0116 127.321 67.0259 126.951 66.0805C131.585 64.8003 136.112 63.1595 140.49 61.1733C140.56 61.1373 140.614 61.0756 140.64 61.001C140.666 60.9264 140.662 60.8446 140.629 60.7728C140.596 60.7009 140.537 60.6445 140.463 60.6153C140.39 60.586 140.308 60.5862 140.235 60.6159C134.174 63.3697 127.83 65.4523 121.315 66.8265C121.433 65.2762 121.54 63.7212 121.637 62.1624C124.119 62.0079 126.555 61.4147 128.83 60.4104C134.977 58.019 140.967 55.2419 146.765 52.0957C146.344 56.8312 145.231 60.806 144.538 65.3114Z" fill="#4B1010"/>
<path d="M119.698 44.0808C119.577 44.0149 119.439 43.987 119.301 44.0007C119.164 44.0144 119.034 44.069 118.928 44.1575C112.65 47.2965 106.702 47.5005 100.428 48.4735C96.8966 48.9888 92.3444 48.9267 88.6533 48.9872C95.9919 54.0623 105.316 57.0488 113.994 58.4949C116.056 58.8471 118.152 58.9501 120.238 58.8016C121.886 58.5531 123.511 58.1663 125.094 57.6454C133.583 54.8989 142.206 52.4828 149.992 48.0901C138.282 49.0785 126.786 47.0343 119.698 44.0808Z" fill="white"/>
<path d="M113.944 58.7975C104.317 57.3737 95.2461 53.9555 88.3623 49.1633C87.5556 48.7654 88.1 48.2264 88.4274 48.4595C88.6322 48.6036 88.738 48.714 89.0232 48.6435C89.996 48.6192 90.9691 48.6064 91.9422 48.6051C98.9587 48.5691 98.8874 48.3422 104.15 47.6482C109.31 46.9666 113.887 46.3317 118.753 43.9065C118.906 43.7894 119.089 43.7182 119.281 43.7012C119.472 43.6842 119.665 43.7222 119.836 43.8107C126.851 46.7297 138.29 48.7738 149.969 47.7878C150.021 47.7833 150.073 47.7923 150.121 47.8138C150.168 47.8353 150.21 47.8686 150.241 47.9106C150.272 47.9526 150.291 48.0019 150.298 48.0537C150.304 48.1055 150.298 48.1581 150.278 48.2064C150.253 48.2712 150.206 48.3253 150.145 48.3598C142.638 52.5968 134.734 55.1072 125.185 57.9441C123.592 58.488 121.952 58.8783 120.285 59.1096C118.167 59.2821 116.035 59.1772 113.944 58.7975ZM89.5653 49.2362C96.7382 53.99 106.011 56.9037 114.051 58.1933C116.086 58.5402 118.156 58.6432 120.216 58.5C121.841 58.2731 123.441 57.8916 124.993 57.3607C133.997 54.6832 141.519 52.3055 148.609 48.5032C137.361 49.2354 126.405 47.2089 119.581 44.3673C119.5 44.3209 119.406 44.3021 119.314 44.3137C119.252 44.3165 119.192 44.339 119.144 44.3781C117.381 45.2842 115.529 46.0075 113.618 46.5365C110.536 47.3431 107.398 47.9178 104.23 48.2555C96.3963 49.2876 99.6787 49.0721 89.5653 49.2354V49.2362Z" fill="#4B1010"/>
<path d="M120.626 56.489C120.541 56.4821 120.458 56.4693 120.376 56.4507C114.2 55.3849 107.815 54.2808 102.5 50.8917C102.45 50.8587 102.41 50.8115 102.386 50.7561C102.362 50.7007 102.355 50.6394 102.366 50.58C102.376 50.5205 102.404 50.4655 102.445 50.4217C102.487 50.3779 102.54 50.3472 102.599 50.3335C102.639 50.3247 102.679 50.3238 102.719 50.3308C102.759 50.3378 102.797 50.3525 102.831 50.3742C108.096 53.7325 114.524 54.8213 120.678 55.8802C120.734 55.8898 120.787 55.9151 120.83 55.9532C120.872 55.9913 120.904 56.0406 120.92 56.0956C120.936 56.1506 120.936 56.209 120.921 56.2642C120.905 56.3193 120.875 56.3691 120.833 56.4077C120.776 56.4597 120.702 56.4887 120.626 56.489Z" fill="#4B1010"/>
<path d="M109.661 49.6558C109.597 49.6097 109.553 49.5404 109.538 49.4626C109.524 49.3847 109.54 49.3043 109.584 49.2381C109.627 49.1719 109.694 49.1251 109.772 49.1075C109.849 49.0899 109.93 49.1029 109.998 49.1436C115.551 52.8363 122.118 54.7047 128.783 54.4886C128.844 54.4862 128.904 54.502 128.956 54.5341C129.007 54.5663 129.048 54.6132 129.073 54.6688C129.094 54.7147 129.103 54.7651 129.1 54.8154C129.096 54.8658 129.081 54.9145 129.054 54.9573C129.028 55.0002 128.991 55.0358 128.947 55.061C128.903 55.0863 128.854 55.1003 128.804 55.102C122.012 55.3221 115.32 53.4183 109.661 49.6558Z" fill="#4B1010"/>
<path d="M114.91 48.5029C114.841 48.459 114.793 48.3899 114.775 48.3106C114.758 48.2314 114.772 48.1484 114.815 48.0796C114.859 48.0111 114.928 47.9626 115.007 47.9447C115.087 47.9269 115.17 47.9412 115.239 47.9846C120.882 51.5589 127.609 53.0177 134.226 52.102C134.265 52.0965 134.306 52.0989 134.345 52.1092C134.384 52.1194 134.421 52.1371 134.453 52.1615C134.485 52.1858 134.512 52.2163 134.532 52.2511C134.553 52.2859 134.566 52.3243 134.571 52.3642C134.577 52.4042 134.574 52.4448 134.564 52.4838C134.554 52.5227 134.536 52.5593 134.512 52.5914C134.488 52.6236 134.457 52.6506 134.422 52.6709C134.388 52.6912 134.349 52.7045 134.309 52.71C127.549 53.6451 120.675 52.1545 114.91 48.5029Z" fill="#4B1010"/>
</svg>
