<svg width="154" height="154" viewBox="0 0 154 154" fill="none" xmlns="http://www.w3.org/2000/svg">
<path d="M52.4416 90.4394C52.7399 84.8951 51.053 79.4304 49.0173 74.2702C46.9218 68.9628 44.0902 63.4269 38.9767 60.8889C39.3685 62.2047 37.9033 63.2965 36.5998 63.7443C35.8864 64.0525 35.1004 64.1527 34.3325 64.0334C33.9508 63.9679 33.6024 63.7758 33.3433 63.488C33.0843 63.2001 32.9298 62.8334 32.9048 62.4469L31.813 63.1938C36.0017 65.9801 37.9056 67.5075 38.6371 73.0289C39.6926 80.3754 40.0459 87.8058 39.6921 95.2193C43.2222 95.5621 52.1564 95.7009 52.4416 90.4394Z" fill="#FFB43B"/>
<path d="M37.3999 60.103C37.5708 60.6121 37.2465 60.8943 36.7374 61.1197C35.9784 61.4547 35.1594 61.6326 34.3298 61.6426C34.1866 61.6534 34.0428 61.6311 33.9096 61.5775C33.7329 61.4728 33.5929 61.3162 33.5086 61.1289C33.1369 60.4739 32.8243 59.7869 32.5747 59.0763C33.9164 59.0113 35.2394 58.7341 36.4943 58.2551C36.8684 58.833 37.1724 59.4533 37.3999 60.103Z" fill="white"/>
<path d="M37.4091 60.2804C37.4183 60.231 37.4183 60.1803 37.4091 60.1309C37.1668 59.4768 36.8539 58.851 36.476 58.2646C35.2214 58.7447 33.8988 59.0229 32.5571 59.0889C32.6499 59.3688 32.7618 59.6302 32.8738 59.9009C34.3456 60.3259 35.8871 60.4549 37.4091 60.2804Z" fill="#FFE55D"/>
<path d="M54.0337 92.3787C49.0721 96.3926 43.3568 97.4676 32.8876 95.7562C29.2685 98.7526 28.5991 102.58 27.0511 106.882C25.6518 110.857 24.1374 114.795 22.6193 118.742C22.6193 120.842 20.5291 124.135 19.7539 126.114C18.7827 128.602 17.8031 131.056 16.815 133.475C14.9487 138.057 13.222 142.806 10.6465 146.987C13.6441 147.683 16.7872 147.378 19.5952 146.119C22.3826 144.869 24.9857 143.244 27.3317 141.288C27.9822 140.819 28.5742 140.274 29.0952 139.664C29.6834 138.854 30.1547 137.965 30.4953 137.023L41.6898 110.064C42.4373 109.846 43.2211 109.779 43.9947 109.869L46.1876 120.917C49.1607 116.293 51.7451 111.43 53.9141 106.379C54.8824 104.235 55.5511 101.968 55.9015 99.6413C56.1023 98.3674 56.0402 97.0658 55.719 95.8168C55.3978 94.5677 54.8242 93.3977 54.0337 92.3787Z" fill="white"/>
<path d="M60.0654 92.6609C60.1372 92.9828 60.1402 93.3164 60.0741 93.6396C60.008 93.9628 59.8744 94.2684 59.682 94.5363C58.0805 96.789 55.7868 98.4567 53.1501 99.2856H53.0573C52.8518 96.6265 52.5574 93.4368 52.3381 90.7747C51.8515 84.7044 50.5039 78.7342 48.3357 73.0436C47.4165 70.592 46.0883 68.3139 44.4076 66.3062C43.8809 65.6859 39.331 60.1476 38.5474 60.7089C42.7645 57.7508 48.5787 59.2521 53.3287 57.648C54.2684 57.2346 55.2657 56.9672 56.2861 56.8552C57.1959 56.895 58.0895 57.1103 58.9176 57.4893C64.5148 59.604 66.0016 59.9728 67.8479 61.9687C62.9558 64.3147 57.7567 65.9577 52.4048 66.849C53.5059 67.9501 53.9675 69.936 54.5601 71.3728C57.3204 78.0765 58.8999 85.4879 60.0654 92.6609Z" fill="white"/>
<path d="M63.8189 63.4798C63.7666 63.3927 63.682 63.3299 63.5835 63.3052C63.4851 63.2805 63.3808 63.2958 63.2936 63.3479C60.1661 65.2241 57.5745 65.9847 52.6765 66.457C51.9864 65.0864 51.0947 63.827 50.0312 62.7207C49.9599 62.6516 49.8646 62.6128 49.7653 62.6126C49.666 62.6123 49.5705 62.6506 49.4989 62.7193C49.4272 62.7881 49.3851 62.8819 49.3812 62.9812C49.3774 63.0804 49.4122 63.1772 49.4784 63.2513C50.5505 64.3882 51.4447 65.6808 52.1305 67.085C56.34 75.4717 58.3995 84.7072 59.6884 92.7274C59.752 92.9991 59.7567 93.2813 59.702 93.5549C59.6474 93.8286 59.5348 94.0873 59.3717 94.3138C57.886 96.3817 55.8038 97.9462 53.4041 98.7978C53.2094 96.3012 52.6611 90.066 52.6305 89.7302C52.6681 89.6947 52.6982 89.6519 52.7189 89.6045C52.7396 89.557 52.7504 89.5059 52.7508 89.4541C52.7861 83.8193 52.8344 76.1035 50.2612 70.5438C50.0457 70.0769 49.3066 70.3744 49.6363 71.0867C51.3722 74.8376 51.8461 79.547 51.9619 83.9382C51.5042 80.3423 50.4883 76.8398 48.9508 73.5571C48.8573 73.3678 48.1695 73.7059 48.2608 73.8953C50.7458 78.9459 51.4044 84.5431 51.9557 90.8105C52.2057 93.5539 52.474 96.7329 52.6734 99.3153C52.6809 99.4117 52.7246 99.5017 52.7957 99.5673C52.8668 99.6328 52.9601 99.6691 53.0568 99.6688C53.1273 99.6751 53.1984 99.6691 53.2669 99.6511C55.9776 98.7833 58.3373 97.0667 59.9974 94.7547C60.2169 94.4459 60.3699 94.0948 60.4467 93.7238C60.5235 93.3528 60.5225 92.9699 60.4436 92.5993C59.1693 84.6666 57.2915 75.4679 53.0491 67.1908C57.885 66.7039 60.5126 65.9104 63.687 64.0057C63.7302 63.9799 63.7679 63.9457 63.7979 63.9053C63.8279 63.8649 63.8496 63.8189 63.8619 63.7701C63.8741 63.7212 63.8766 63.6704 63.8693 63.6206C63.8619 63.5708 63.8448 63.523 63.8189 63.4798Z" fill="#4B1010"/>
<path d="M52.3419 93.9283C52.3686 93.453 52.3534 92.9763 52.2967 92.5037C52.3649 92.4516 52.4332 92.3994 52.5014 92.3457C52.541 92.3147 52.5741 92.2761 52.5989 92.2323C52.6236 92.1884 52.6394 92.1401 52.6455 92.0901C52.6515 92.0401 52.6477 91.9895 52.6341 91.941C52.6206 91.8925 52.5976 91.8471 52.5666 91.8075C52.5355 91.7679 52.497 91.7347 52.4531 91.71C52.4092 91.6853 52.3609 91.6695 52.3109 91.6634C52.261 91.6574 52.2103 91.6612 52.1618 91.6748C52.1133 91.6883 52.0679 91.7113 52.0283 91.7423C50.3202 93.0779 48.3535 94.0444 46.2526 94.5806C44.1518 95.1169 41.9624 95.2112 39.8232 94.8576C39.7733 94.8505 39.7225 94.8532 39.6737 94.8657C39.6248 94.8782 39.579 94.9002 39.5386 94.9304C39.4983 94.9606 39.4643 94.9985 39.4386 95.0419C39.4129 95.0852 39.396 95.1332 39.3888 95.1831C39.3817 95.233 39.3844 95.2838 39.3969 95.3326C39.4094 95.3815 39.4314 95.4274 39.4616 95.4677C39.4919 95.508 39.5297 95.542 39.5731 95.5677C39.6164 95.5934 39.6644 95.6103 39.7143 95.6175C39.5125 96.075 39.5004 96.594 39.6806 97.0605C39.5816 97.0333 39.4758 97.0464 39.3864 97.0968C39.2969 97.1472 39.231 97.2309 39.2029 97.3296C39.1767 97.4278 39.1906 97.5324 39.2415 97.6204C39.2924 97.7084 39.3761 97.7726 39.4743 97.7989C40.4402 98.0583 41.4426 98.1542 42.4401 98.0826C46.169 97.9437 49.7747 96.7109 52.8081 94.5379C52.8481 94.5073 52.8817 94.4691 52.907 94.4255C52.9323 94.3819 52.9487 94.3337 52.9553 94.2838C52.962 94.2338 52.9588 94.1831 52.9458 94.1344C52.9328 94.0857 52.9104 94.04 52.8798 94C52.8492 93.96 52.811 93.9264 52.7674 93.9011C52.7238 93.8758 52.6756 93.8594 52.6257 93.8528C52.5758 93.8461 52.525 93.8494 52.4763 93.8623C52.4276 93.8753 52.3819 93.8977 52.3419 93.9283Z" fill="#4B1010"/>
<path d="M10.9447 147.502C10.8799 147.502 10.8163 147.486 10.7596 147.454C10.703 147.423 10.6552 147.378 10.6208 147.323C10.5863 147.268 10.5663 147.206 10.5626 147.141C10.5589 147.076 10.5717 147.012 10.5996 146.953C14.6059 138.591 26.2122 108.931 28.0462 102.789C28.0769 102.693 28.1438 102.614 28.2325 102.567C28.3213 102.52 28.4248 102.51 28.5209 102.539C28.617 102.567 28.698 102.633 28.7466 102.72C28.7952 102.808 28.8074 102.911 28.7808 103.008C26.9406 109.169 15.3059 138.904 11.2912 147.286C11.2597 147.351 11.2105 147.406 11.1492 147.444C11.0878 147.483 11.0169 147.503 10.9447 147.502Z" fill="#4B1010"/>
<path d="M55.8295 101.545C55.7278 101.545 55.6303 101.505 55.5584 101.433C55.4865 101.361 55.4461 101.263 55.4461 101.162C55.4461 99.8359 55.3525 99.1174 55.3525 98.3614C55.3525 98.2597 55.3929 98.1622 55.4648 98.0903C55.5367 98.0184 55.6342 97.978 55.7359 97.978C55.8376 97.978 55.9351 98.0184 56.007 98.0903C56.0789 98.1622 56.1193 98.2597 56.1193 98.3614C56.1193 99.1159 56.2128 99.7139 56.2128 101.162C56.2128 101.263 56.1724 101.361 56.1005 101.433C56.0286 101.505 55.9311 101.545 55.8295 101.545Z" fill="#4B1010"/>
<path d="M47.3732 108.578C47.3407 108.482 47.2713 108.403 47.1803 108.358C47.0893 108.312 46.9841 108.305 46.8878 108.338C45.4206 108.832 43.8967 109.139 42.3525 109.251C42.0592 109.249 41.7699 109.318 41.5091 109.452C41.2828 109.612 41.0967 109.822 40.9655 110.066C38.4705 114.161 31.8458 134.584 29.6881 138.794C29.6652 138.839 29.6513 138.888 29.6472 138.938C29.6432 138.989 29.6491 139.039 29.6646 139.087C29.6801 139.135 29.7048 139.18 29.7375 139.218C29.7701 139.256 29.81 139.288 29.8549 139.311C29.8998 139.334 29.9487 139.348 29.9989 139.352C30.0492 139.356 30.0997 139.35 30.1476 139.334C30.1956 139.319 30.24 139.294 30.2784 139.261C30.3168 139.229 30.3483 139.189 30.3713 139.144C32.4569 135.072 40.2953 111.41 41.894 110.109C42.2168 109.955 42.2774 110.074 43.7051 109.873C44.5907 113.851 45.0231 116.102 45.7753 120.355C45.7841 120.404 45.8026 120.452 45.8297 120.494C45.8568 120.537 45.892 120.573 45.9333 120.602C45.9746 120.631 46.0212 120.651 46.0704 120.662C46.1196 120.673 46.1704 120.674 46.22 120.665C46.2696 120.657 46.317 120.638 46.3594 120.611C46.4019 120.584 46.4385 120.549 46.4674 120.507C46.4962 120.466 46.5166 120.419 46.5275 120.37C46.5383 120.321 46.5394 120.27 46.5305 120.221C45.7768 115.972 45.3444 113.716 44.4603 109.751C45.3667 109.585 46.26 109.355 47.1332 109.061C47.2286 109.028 47.3073 108.959 47.3522 108.869C47.3971 108.778 47.4047 108.674 47.3732 108.578Z" fill="#4B1010"/>
<path d="M39.1164 33.4894C38.5099 32.6406 47.0461 27.6537 47.8972 27.2473C51.0434 25.7082 54.4684 24.8215 57.9662 24.6403C57.1818 22.6652 55.8872 20.9337 54.2147 19.6227C52.5421 18.3117 50.5515 17.4682 48.4462 17.1783C41.8085 16.2797 38.5552 21.1079 37.9786 27.1921C37.7784 29.3098 37.829 31.7159 39.1164 33.4894Z" fill="#FFE55D"/>
<path d="M36.9607 61.0361C36.036 61.7101 33.4337 62.3519 33.1439 60.6719C33.0145 60.7512 32.9025 60.8556 32.8144 60.979C32.7263 61.1025 32.6639 61.2424 32.6309 61.3904C32.6151 61.64 32.6468 61.8903 32.7244 62.128C32.8215 62.4493 32.9465 62.7615 33.0978 63.0611C33.1813 63.2586 33.3131 63.4319 33.4812 63.5649C34.3793 64.0245 35.4085 64.16 36.3949 63.9483C37.001 63.8188 37.5513 63.5024 37.9681 63.0436C38.3849 62.5849 38.6472 62.0069 38.7181 61.3911C38.6767 60.8477 38.4826 60.3271 38.1584 59.8891C37.9521 59.61 37.5887 59.3294 37.3088 59.5249C37.7719 59.9688 37.4737 60.662 36.9607 61.0361Z" fill="#FFB43B"/>
<path d="M37.3101 59.1032L36.9229 58.3694C39.6357 56.7784 40.6033 52.9792 40.0965 50.0249C39.8784 48.8382 39.5019 47.6862 38.977 46.5998C38.7291 45.9706 38.4661 45.3472 38.188 44.7297C38.6112 44.5266 38.9807 44.2269 39.2667 43.8548C39.5528 43.4827 39.7475 43.0486 39.835 42.5874C39.8745 42.2042 39.7984 41.8179 39.6163 41.4783C39.4343 41.1387 39.1548 40.8614 38.8137 40.6821C39.2631 40.3234 39.5832 39.8279 39.7254 39.2708C39.8677 38.7137 39.8243 38.1254 39.6019 37.5951C39.2364 36.8081 38.7 36.1125 38.0318 35.5589C37.3635 35.0053 36.5803 34.6076 35.739 34.3947C33.96 33.8887 32.1065 33.6962 30.2614 33.8258C28.3026 33.768 26.3508 34.0847 24.5108 34.7589C24.4822 34.7717 24.4562 34.7897 24.4341 34.8118C21.6692 36.0739 18.9963 37.6542 17.3033 40.311C15.8595 42.5859 15.2461 45.4697 16.703 47.8757C15.516 50.3009 17.0641 53.0237 19.0845 54.4391C19.7514 54.893 20.4409 55.3129 21.1501 55.6973C21.5189 56.1992 21.9958 56.6118 22.5455 56.9046C23.0952 57.1974 23.7037 57.3628 24.326 57.3888C24.9372 57.7498 25.5275 58.145 26.0941 58.5726C26.3936 58.8494 26.7289 59.0848 27.0909 59.2727C27.4811 59.3497 27.8838 59.3343 28.267 59.2278C28.6502 59.1213 29.0031 58.9266 29.2976 58.6593C30.2369 59.0523 31.2403 59.2698 32.258 59.301L32.8154 60.432C32.5224 60.663 32.3224 60.9918 32.2519 61.3582C32.2316 61.6533 32.268 61.9495 32.3592 62.2308C32.4602 62.5665 32.59 62.8928 32.7472 63.2061C32.8677 63.4847 33.0617 63.7254 33.3085 63.9023C35.6992 65.1245 38.7884 64.1929 39.1005 61.3582C39.0551 60.7427 38.8354 60.1528 38.4671 59.6576C38.3546 59.4575 38.1832 59.2969 37.9761 59.1977C37.7691 59.0986 37.5366 59.0655 37.3101 59.1032ZM36.2367 58.7083L37.0878 60.3223C37.0017 60.4789 36.8836 60.6156 36.7412 60.7234C35.9559 61.2395 35.002 61.4334 34.0775 61.2647L33.1114 59.3125C34.1785 59.2791 35.2332 59.074 36.2351 58.7053L36.2367 58.7083ZM36.3133 63.5726C35.4392 63.7623 34.5267 63.6543 33.721 63.2659C33.5965 63.1653 33.4997 63.0347 33.4396 62.8864C33.1775 62.4344 33.0357 61.9228 33.0278 61.4004C33.8482 62.6011 36.1516 62.0836 37.192 61.3444C37.57 61.0748 37.8297 60.6701 37.9174 60.2142C38.1481 60.5521 38.2919 60.9416 38.336 61.3483C38.2746 61.8845 38.0461 62.3879 37.6828 62.7871C37.3196 63.1863 36.8399 63.4611 36.3118 63.5726H36.3133Z" fill="#4B1010"/>
<path d="M26.8557 53.4026C26.9191 53.7045 26.8622 54.0192 26.697 54.2797C26.5224 54.4417 26.2969 54.538 26.0591 54.552C25.8213 54.566 25.586 54.4968 25.3936 54.3564C24.4535 53.5896 24.6015 53.0299 23.7497 52.2302C23.3072 52.0446 21.9148 51.5271 21.1941 52.6389C21.0231 53.045 20.9641 53.4896 21.0233 53.9262C21.0825 54.3629 21.2577 54.7757 21.5307 55.1216C21.959 55.8354 22.6435 56.3589 23.4446 56.5851C24.2457 56.8114 25.1029 56.7235 25.8413 56.3392C25.5086 55.9986 25.1999 55.6353 24.9174 55.252C24.6467 54.9353 25.1137 54.4683 25.3844 54.7858C26.6101 56.5099 28.3943 57.7572 30.4345 58.3162C32.4748 58.8752 34.6456 58.7114 36.5789 57.8528C37.2573 57.4373 37.8427 56.8865 38.2986 56.2347C38.7546 55.5828 39.0712 54.844 39.2288 54.0643C39.6932 52.514 39.735 50.8677 39.3499 49.2959C38.5383 46.6596 37.4144 44.1298 36.0023 41.7602C35.9291 41.8732 35.8207 41.959 35.6939 42.0043C35.5671 42.0496 35.429 42.052 35.3007 42.011C34.5662 41.6199 34.56 40.8095 34.6482 41.3531C34.7093 41.7423 34.616 42.1399 34.3883 42.4614C34.1606 42.7829 33.8164 43.0028 33.4291 43.0743C33.0417 43.1459 32.6416 43.0634 32.3141 42.8445C31.9866 42.6255 31.7575 42.2874 31.6755 41.9021C31.7625 42.4039 31.6964 42.9203 31.4858 43.3841C31.2752 43.8478 30.9299 44.2374 30.4947 44.5021C29.4497 44.9315 28.3302 44.1479 27.4622 43.4195C27.736 43.8337 27.8598 44.3292 27.8129 44.8235C27.7661 45.3178 27.5515 45.7812 27.2048 46.1367C26.8582 46.4922 26.4003 46.7183 25.9073 46.7774C25.4143 46.8366 24.9159 46.7253 24.4949 46.4619C24.9089 46.9954 25.1105 47.6633 25.0608 48.3366C25.0185 48.6656 24.8474 48.9643 24.585 49.1672C24.3227 49.3701 23.9905 49.4605 23.6615 49.4185C25.0922 50.4352 26.6503 51.6582 26.8557 53.4026Z" fill="white"/>
<path d="M36.5536 46.212C36.5452 45.4575 37.568 45.1385 37.8778 45.7519C38.1875 46.3653 38.3555 47.1182 37.7858 47.2946C37.6299 47.3277 37.4685 47.324 37.3144 47.2837C37.1603 47.2434 37.0177 47.1676 36.898 47.0625C36.7783 46.9573 36.6849 46.8257 36.6251 46.678C36.5653 46.5303 36.5408 46.3707 36.5536 46.212Z" fill="#4B1010"/>
<path d="M30.4071 48.9385C30.3987 48.184 31.4215 47.8651 31.7313 48.4785C32.0411 49.0919 32.209 49.8448 31.6393 50.0212C31.4834 50.0543 31.322 50.0505 31.1679 50.0102C31.0138 49.9699 30.8712 49.8942 30.7515 49.789C30.6318 49.6839 30.5384 49.5522 30.4786 49.4046C30.4188 49.2569 30.3943 49.0973 30.4071 48.9385Z" fill="#4B1010"/>
<path d="M27.9741 53.0827C27.9741 53.7318 28.232 54.3543 28.691 54.8133C29.15 55.2723 29.7725 55.5302 30.4216 55.5302C31.0707 55.5302 31.6932 55.2723 32.1522 54.8133C32.6112 54.3543 32.869 53.7318 32.869 53.0827C32.869 52.4336 32.6112 51.8111 32.1522 51.3521C31.6932 50.8931 31.0707 50.6353 30.4216 50.6353C29.7725 50.6353 29.15 50.8931 28.691 51.3521C28.232 51.8111 27.9741 52.4336 27.9741 53.0827Z" fill="#FFE55D"/>
<path d="M37.3794 49.2753C37.3794 49.5491 37.4333 49.8203 37.5381 50.0734C37.643 50.3264 37.7966 50.5563 37.9902 50.75C38.1839 50.9436 38.4138 51.0973 38.6668 51.2021C38.9199 51.3069 39.1911 51.3608 39.4649 51.3608C39.7388 51.3608 40.01 51.3069 40.2631 51.2021C40.5161 51.0973 40.746 50.9436 40.9397 50.75C41.1333 50.5563 41.2869 50.3264 41.3918 50.0734C41.4966 49.8203 41.5505 49.5491 41.5505 49.2753C41.5505 49.0014 41.4966 48.7302 41.3918 48.4771C41.2869 48.2241 41.1333 47.9942 40.9397 47.8005C40.746 47.6069 40.5161 47.4533 40.2631 47.3485C40.01 47.2436 39.7388 47.1897 39.4649 47.1897C39.1911 47.1897 38.9199 47.2436 38.6668 47.3485C38.4138 47.4533 38.1839 47.6069 37.9902 47.8005C37.7966 47.9942 37.643 48.2241 37.5381 48.4771C37.4333 48.7302 37.3794 49.0014 37.3794 49.2753Z" fill="#FFE55D"/>
<path d="M33.5366 47.1411C33.5379 47.5368 33.6955 47.9161 33.9752 48.1961C34.7988 49.0538 35.7017 49.8317 36.6719 50.5194C37.01 50.7578 37.3382 50.1966 36.9985 49.9504C36.1244 49.3189 35.3038 48.6165 34.5449 47.8503C34.2006 47.5014 34.219 47.4232 34.2382 47.1411C34.2724 46.5188 34.4312 45.9097 34.7051 45.3499C34.814 44.9121 34.1684 44.7894 34.0373 45.1498C33.7092 45.7623 33.5372 46.4462 33.5366 47.1411Z" fill="#4B1010"/>
<path d="M33.1348 52.33C33.192 53.2157 33.4237 54.0813 33.8164 54.8772C34.0157 55.2758 34.3222 55.611 34.7014 55.8452C35.0806 56.0793 35.5176 56.2032 35.9633 56.2029C37.2139 56.1093 37.8296 54.6533 37.6149 51.3877C36.4962 52.6237 34.5034 53.1773 33.1348 52.33Z" fill="#FFE55D"/>
<path d="M37.9975 51.3624C37.9922 51.2874 37.965 51.2156 37.9192 51.1559C37.8734 51.0962 37.8111 51.0513 37.74 51.0268C37.6689 51.0023 37.5921 50.9992 37.5193 51.018C37.4465 51.0368 37.3808 51.0766 37.3304 51.1324C36.8906 51.6344 36.3166 52.0005 35.6759 52.1875C35.0352 52.3745 34.3544 52.3748 33.7136 52.1882C33.8194 52.0856 33.914 51.972 33.9958 51.8493C34.0238 51.8074 34.0432 51.7604 34.0531 51.711C34.0629 51.6616 34.0629 51.6108 34.0531 51.5613C34.0433 51.5119 34.0238 51.4649 33.9958 51.423C33.9678 51.3812 33.9319 51.3452 33.89 51.3172C33.8481 51.2892 33.8011 51.2697 33.7517 51.2599C33.7023 51.2501 33.6514 51.2501 33.602 51.2599C33.5526 51.2697 33.5056 51.2892 33.4637 51.3172C33.4218 51.3452 33.3858 51.3811 33.3579 51.423C33.2385 51.6015 33.0788 51.7493 32.8916 51.8544C32.7044 51.9595 32.4951 52.019 32.2806 52.028C32.2302 52.029 32.1806 52.0399 32.1344 52.0601C32.0883 52.0803 32.0466 52.1094 32.0117 52.1457C31.9413 52.219 31.9028 52.3173 31.9049 52.419C31.9069 52.5207 31.9492 52.6174 32.0226 52.6879C32.0959 52.7583 32.1942 52.7968 32.2959 52.7947C32.4622 52.7889 32.6272 52.7632 32.7874 52.718C32.8842 53.5272 33.1175 54.314 33.4775 55.0451C33.7118 55.5105 34.0718 55.9008 34.5168 56.1719C34.9617 56.4429 35.4737 56.5838 35.9947 56.5786C38.3256 56.4107 38.0795 52.6107 37.9975 51.3624ZM35.9633 55.8188C35.5895 55.8196 35.2229 55.7161 34.9046 55.5202C34.5863 55.3242 34.329 55.0434 34.1614 54.7093C33.8907 54.1575 33.7005 53.5699 33.5963 52.9642C34.2247 53.1305 34.8829 53.1498 35.52 53.0207C36.157 52.8916 36.7558 52.6175 37.2698 52.2197C37.3288 54.5398 36.8818 55.7498 35.9633 55.8188Z" fill="#4B1010"/>
<path d="M28.0436 48.1082C28.3323 47.4455 28.7965 46.8741 29.3861 46.4559C29.7259 46.2274 30.1258 46.1048 30.5352 46.1035C30.9447 46.1023 31.3453 46.2225 31.6864 46.449C31.7669 46.5068 31.822 46.5936 31.8399 46.6912C31.8577 46.7888 31.8371 46.8894 31.7823 46.9721C31.7276 47.0548 31.6429 47.113 31.546 47.1346C31.4492 47.1561 31.3478 47.1393 31.2631 47.0877C31.0493 46.9456 30.7983 46.8698 30.5416 46.8698C30.2849 46.8698 30.0339 46.9456 29.8201 47.0877C29.349 47.4247 28.978 47.8831 28.7467 48.4141C28.7061 48.5074 28.6302 48.5807 28.5355 48.6179C28.4409 48.6552 28.3354 48.6533 28.2421 48.6127C28.1489 48.5721 28.0756 48.4962 28.0384 48.4016C28.0011 48.307 28.003 48.2014 28.0436 48.1082Z" fill="#4B1010"/>
<path d="M35.739 45.6309C35.679 45.631 35.6198 45.6171 35.5662 45.5901C35.5126 45.5632 35.4661 45.5241 35.4304 45.4759C35.3947 45.4277 35.3708 45.3719 35.3606 45.3128C35.3504 45.2537 35.3542 45.193 35.3717 45.1356C35.577 44.4638 36.0139 43.8865 36.6046 43.5063C36.9553 43.3052 37.3696 43.2456 37.7627 43.3397C38.1559 43.4337 38.4983 43.6743 38.7201 44.0123C38.7739 44.0976 38.792 44.2007 38.7704 44.2993C38.7488 44.3978 38.6892 44.4838 38.6045 44.5387C38.5199 44.5936 38.417 44.6129 38.3182 44.5925C38.2194 44.572 38.1327 44.5134 38.0768 44.4295C37.9642 44.257 37.7905 44.1336 37.5905 44.0842C37.3906 44.0349 37.1794 44.0631 36.9995 44.1634C36.5701 44.4443 36.2536 44.8675 36.1055 45.3588C36.0816 45.4374 36.0331 45.5063 35.9671 45.5554C35.9012 45.6044 35.8212 45.6309 35.739 45.6309Z" fill="#4B1010"/>
<path d="M39.508 45.1339C39.4858 45.0882 39.4548 45.0474 39.4168 45.0138C39.3787 44.9802 39.3344 44.9544 39.2863 44.9381C39.2382 44.9218 39.1874 44.9151 39.1367 44.9186C39.086 44.9221 39.0366 44.9356 38.9912 44.9584C37.9538 45.4805 35.4419 46.5417 35.1398 46.8231C34.7482 46.7494 34.3431 46.8095 33.9897 46.9937C33.6364 47.178 33.3552 47.4757 33.1915 47.839C33.1051 47.8194 33.0147 47.8302 32.9354 47.8697C31.5008 48.5866 28.8663 49.6762 28.67 49.9821L25.1713 51.616C25.0922 51.653 25.0281 51.7158 24.9896 51.7941C24.9511 51.8724 24.9404 51.9614 24.9593 52.0466C24.9783 52.1318 25.0257 52.208 25.0938 52.2625C25.1619 52.3171 25.2466 52.3468 25.3338 52.3468C25.4558 52.3468 25.2119 52.4441 28.8509 50.7442C29.1884 51.2759 29.7031 51.6711 30.3039 51.86C30.9046 52.0488 31.5528 52.0192 32.1338 51.7762C32.7148 51.5333 33.1913 51.0928 33.4788 50.5325C33.7664 49.9722 33.8466 49.3283 33.7052 48.7147C33.7572 48.6543 33.7891 48.5793 33.7965 48.5C33.8093 48.3324 33.8635 48.1707 33.9541 48.0292C34.0447 47.8877 34.1689 47.7708 34.3157 47.689C34.4625 47.6072 34.6273 47.5631 34.7953 47.5605C34.9633 47.5579 35.1293 47.597 35.2786 47.6742C35.6397 48.2159 36.1803 48.6128 36.8053 48.7952C37.4302 48.9775 38.0995 48.9335 38.6952 48.671C39.8024 48.1611 40.3253 46.8208 39.508 45.1339ZM32.9285 49.8441C32.8254 50.1928 32.6248 50.5047 32.3502 50.743C32.0756 50.9813 31.7385 51.1361 31.3788 51.1891C31.0191 51.242 30.6518 51.191 30.3201 51.0419C29.9885 50.8928 29.7064 50.652 29.5073 50.3478C30.504 49.8157 31.7546 49.2966 32.9178 48.7377C33.0324 49.0978 33.0361 49.4841 32.9285 49.8464V49.8441ZM39.1154 46.9971C38.8854 48.3773 36.8151 48.5789 35.9227 47.2525C36.8427 46.7633 37.8855 46.3485 38.9682 45.824C39.1157 46.1971 39.1663 46.6015 39.1154 46.9994V46.9971Z" fill="#4B1010"/>
<path d="M45.1819 67.8012C45.3682 67.9975 45.1819 68.3517 45.3222 68.5756C45.6757 68.9498 48.2497 69.2657 48.4107 67.5681C49.7909 68.2866 50.1144 69.8837 49.8568 71.431C49.7869 71.9212 49.6388 72.397 49.4182 72.8403C48.5265 74.5333 46.3857 74.1438 44.9297 75.1175C44.4322 74.2694 43.7728 73.5274 42.989 72.9338C42.9269 72.8892 42.8749 72.832 42.8364 72.7659C42.7978 72.6999 42.7735 72.6265 42.7651 72.5505C42.7929 72.4573 42.8405 72.3712 42.9047 72.2982C43.3465 71.7223 43.6384 71.0457 43.7542 70.3292C43.8378 69.8162 43.5771 69.0786 43.7542 68.6308C43.8907 68.3727 44.0968 68.1581 44.3492 68.0115C44.6016 67.8648 44.8901 67.7919 45.1819 67.8012Z" fill="white"/>
<path d="M44.602 75.3155C44.1196 74.5145 43.4931 73.8097 42.7541 73.2368C42.6499 73.1615 42.563 73.0648 42.4991 72.9532C42.4353 72.8416 42.3959 72.7177 42.3838 72.5897C42.393 72.3868 42.4746 72.1939 42.6138 72.0461C43.0081 71.5248 43.2684 70.9148 43.3721 70.2695C43.4488 69.8095 43.1689 69.0611 43.3944 68.4907C43.563 68.1612 43.8209 67.8859 44.1385 67.6961C44.4562 67.5063 44.8209 67.4096 45.1909 67.4172C45.2915 67.4205 45.3868 67.4632 45.4562 67.5361C45.5414 67.6516 45.6022 67.7834 45.6348 67.9233C45.6673 68.0632 45.671 68.2082 45.6455 68.3496C45.769 68.4201 47.9021 68.8288 48.0225 67.5307C48.0279 67.4679 48.0488 67.4074 48.0833 67.3546C48.1177 67.3018 48.1647 67.2583 48.22 67.2279C48.2752 67.1976 48.3371 67.1814 48.4002 67.1807C48.4632 67.18 48.5255 67.1949 48.5814 67.224C48.957 67.419 49.2886 67.6891 49.5555 68.0175C49.8225 68.3459 50.0191 68.7257 50.1333 69.1332C50.4763 70.4275 50.3447 71.8019 49.7622 73.0076C48.7164 74.8838 46.5296 74.5104 45.1433 75.4359C45.1002 75.4647 45.0518 75.4845 45.0008 75.494C44.9499 75.5036 44.8975 75.5027 44.8469 75.4915C44.7963 75.4802 44.7485 75.4588 44.7064 75.4286C44.6643 75.3983 44.6288 75.3599 44.602 75.3155ZM43.172 72.5836C43.9016 73.1531 44.5371 73.8339 45.0551 74.6009C46.5166 73.8341 48.3131 74.0358 49.0844 72.6564C49.5738 71.623 49.6837 70.4504 49.3949 69.3441C49.2672 68.8872 49.0029 68.4802 48.6374 68.1778C47.9312 69.6922 45.4723 69.2942 45.0436 68.8418C44.92 68.6567 44.8639 68.4347 44.8849 68.2131C44.7175 68.25 44.56 68.3228 44.4234 68.4264C44.2868 68.5301 44.1743 68.6621 44.0936 68.8135C44.0062 69.0435 44.2156 69.8869 44.1327 70.3945C44.0002 71.1929 43.6699 71.9455 43.172 72.5836Z" fill="#4B1010"/>
<path d="M43.1483 71.478C42.4583 72.2249 41.7873 72.9816 41.0858 73.7085C40.8067 73.9983 38.6322 75.6584 38.6038 76.0134C38.7698 73.5659 38.2785 71.1186 37.1809 68.9249C36.0833 66.7311 34.4192 64.8706 32.3609 63.5361C30.0546 62.0501 26.1725 67.9303 25.2133 69.555C23.5326 72.4735 22.5309 75.7332 22.2828 79.0919C22.0986 80.8173 22.3324 82.5617 22.9644 84.1777C23.3286 85.0533 25.2317 87.9662 26.4447 87.6956L23.6453 98.4829C23.4336 99.0257 23.4107 99.6239 23.5801 100.181C23.9146 100.752 24.4503 101.178 25.0822 101.375C27.2838 102.465 29.6087 103.286 32.0067 103.82C34.4278 104.357 36.9612 104.006 39.1451 102.831L39.7585 87.0607C39.8812 84.0182 41.3748 84.5112 44.6013 78.8212C44.9847 78.1419 46.6815 75.7327 46.5987 74.9207C46.4216 73.1672 44.7907 72.2341 43.1483 71.478Z" fill="white"/>
<path d="M46.9547 74.884C46.7561 72.8904 44.9818 71.8645 43.2743 71.1269C43.2003 71.0948 43.1181 71.0869 43.0394 71.1043C42.9606 71.1216 42.8894 71.1633 42.8357 71.2235C41.6948 72.4986 40.4741 73.8305 39.1714 75.0626C39.0243 72.7065 38.4618 70.395 37.5099 68.2347C36.4783 65.9019 34.6117 64.0392 32.2768 63.0124C32.5099 62.879 32.7458 62.7512 32.9845 62.629C33.1731 62.5332 32.825 61.8492 32.6364 61.9458C26.5791 65.0312 22.5299 71.7602 21.9019 79.0443C21.7288 80.8453 21.975 82.6619 22.6212 84.3518C23.3247 85.7664 24.4014 86.9618 25.7349 87.8091C25.2749 89.808 23.4308 97.2999 22.9631 99.3525C22.9431 99.4409 22.9551 99.5335 22.9969 99.6139C24.6132 102.735 32.7637 105.035 38.2007 103.547C38.6026 103.477 38.9702 103.276 39.2466 102.976C39.473 102.65 39.5874 102.258 39.5724 101.861C40.0709 96.4196 40.2095 90.9511 39.9872 85.4912C41.9329 83.5807 43.591 81.3981 44.9098 79.0114C45.3729 78.1871 47.0574 75.8723 46.9547 74.884ZM30.3837 64.2706C30.7002 64.0225 31.0293 63.7909 31.3698 63.5767C32.0966 63.4786 35.3308 65.2229 36.8068 68.5437C37.807 70.8143 38.3597 73.2566 38.4346 75.7366C38.015 76.1121 37.5801 76.4703 37.1311 76.81C36.1768 74.0777 34.533 71.6381 32.3589 69.7276C32.8785 69.2862 33.4489 68.9083 34.058 68.602C34.1296 68.5659 34.1881 68.5082 34.2252 68.437C34.2623 68.3659 34.2761 68.2849 34.2648 68.2055C34.2535 68.1261 34.2175 68.0522 34.1619 67.9943C34.1064 67.9364 34.0341 67.8974 33.9552 67.8828C30.1721 67.185 30.432 67.2533 30.34 67.182C30.3015 67.1033 30.2853 67.0155 30.2932 66.9282C30.2764 66.0414 30.3066 65.1543 30.3837 64.2706ZM36.4732 77.2609C35.8982 77.6259 34.8339 78.2086 34.5211 77.6067C34.4065 77.3628 34.3418 77.0985 34.3309 76.8292C34.3127 75.7145 34.4184 74.6013 34.6461 73.51C35.4158 74.6754 36.0301 75.9364 36.4732 77.2609ZM38.6592 102.487C38.4897 102.654 38.2718 102.763 38.0366 102.798C33.1816 104.124 25.4129 102.244 23.7437 99.3793C24.1999 97.3857 25.9902 90.1254 26.4319 88.2039C27.4206 88.7068 28.4966 89.0155 29.6016 89.1133C32.5772 89.4851 35.5853 88.7452 38.0489 87.0354C39.2228 94.2988 38.8264 96.3315 39.173 96.6558C39.0876 98.3866 38.9662 100.116 38.8088 101.845C38.8216 102.069 38.7697 102.292 38.6592 102.487ZM39.324 90.6169C39.1625 89.25 38.9693 87.8901 38.7443 86.537C38.913 86.409 39.0802 86.2771 39.2458 86.1398C39.2995 87.6278 39.325 89.1199 39.3225 90.6161L39.324 90.6169ZM44.6698 77.941C43.7134 79.6116 42.6468 81.2166 41.477 82.7454C38.098 86.9856 34.1331 88.8733 29.6806 88.3511C28.3403 88.2363 27.0518 87.7796 25.9384 87.0246C24.825 86.2696 23.9238 85.2416 23.3212 84.0389C22.7272 82.4674 22.5031 80.7801 22.6664 79.108C23.0547 73.6711 25.5267 68.594 29.5671 64.9354C29.5268 65.5924 29.5122 66.2508 29.5234 66.909C29.507 67.1671 29.5748 67.4235 29.7166 67.6397C29.8053 67.7464 29.9144 67.8343 30.0375 67.8982C30.1606 67.962 30.2953 68.0006 30.4336 68.0116L32.7898 68.4479C32.3346 68.7453 31.9063 69.0822 31.5101 69.4546C31.4704 69.4918 31.4392 69.5369 31.4183 69.5871C31.3974 69.6372 31.3875 69.6913 31.3891 69.7456C31.3907 69.7999 31.4038 69.8532 31.4275 69.9021C31.4513 69.9509 31.4852 69.9941 31.5269 70.0289C32.4643 70.8093 33.3094 71.6942 34.0457 72.6665C33.702 74.0346 33.5401 75.4419 33.5642 76.8522C33.5728 77.2311 33.6636 77.6037 33.8303 77.9441C33.9167 78.1308 34.0502 78.2918 34.2177 78.4113C34.3852 78.5308 34.5809 78.6047 34.7856 78.6257C36.2654 78.8128 39.104 76.5632 43.2199 71.942C44.6414 72.5814 46.04 73.4494 46.1902 74.9614C46.2432 75.4598 45.1406 77.198 44.6698 77.9402V77.941Z" fill="#4B1010"/>
<path d="M44.7306 66.9287C43.2311 64.6414 41.1659 62.7804 38.7354 61.5261C38.645 61.4795 38.5769 61.3988 38.546 61.3019C38.5151 61.205 38.5239 61.0997 38.5706 61.0094C38.6172 60.919 38.6979 60.8508 38.7948 60.8199C38.8917 60.789 38.997 60.7978 39.0874 60.8445C41.6363 62.1591 43.8021 64.1102 45.3747 66.5085C45.4023 66.5508 45.4213 66.5981 45.4306 66.6477C45.4399 66.6973 45.4393 66.7483 45.4289 66.7977C45.4185 66.8471 45.3985 66.894 45.37 66.9357C45.3415 66.9774 45.3051 67.013 45.2628 67.0406C45.2205 67.0682 45.1732 67.0872 45.1235 67.0965C45.0739 67.1058 45.0229 67.1052 44.9735 67.0948C44.9241 67.0844 44.8772 67.0644 44.8356 67.0359C44.7939 67.0074 44.7582 66.971 44.7306 66.9287Z" fill="#4B1010"/>
<path d="M44.7213 61.1171C43.838 60.5355 42.8942 60.0514 41.9066 59.6733C42.5537 59.5483 43.21 59.4547 43.8648 59.3934C43.9152 59.3887 43.9641 59.3742 44.0088 59.3506C44.0536 59.327 44.0932 59.2948 44.1255 59.2559C44.1578 59.217 44.1821 59.1721 44.197 59.1238C44.212 59.0755 44.2172 59.0247 44.2126 58.9744C44.2079 58.924 44.1933 58.8751 44.1697 58.8304C44.1461 58.7857 44.114 58.746 44.0751 58.7137C44.0362 58.6814 43.9913 58.6571 43.943 58.6422C43.8947 58.6273 43.8439 58.622 43.7935 58.6267C41.9492 58.7985 40.136 59.2152 38.4018 59.8657C38.3102 59.9039 38.237 59.9761 38.1976 60.0671C38.1582 60.1581 38.1556 60.2609 38.1903 60.3538C38.225 60.4467 38.2944 60.5225 38.3839 60.5654C38.4734 60.6082 38.576 60.6146 38.6701 60.5834C39.2672 60.3605 39.8737 60.166 40.4896 59.9999C41.8246 60.4306 43.1028 61.0206 44.2965 61.7573C44.3814 61.8136 44.4852 61.8339 44.5851 61.8137C44.6849 61.7935 44.7727 61.7345 44.829 61.6496C44.8854 61.5647 44.9057 61.4609 44.8855 61.361C44.8652 61.2611 44.8062 61.1734 44.7213 61.1171Z" fill="#4B1010"/>
<path d="M21.9751 145.43C35.039 149.163 48.7001 150.018 62.2685 150.096C81.267 150.204 100.591 148.808 118.35 142.061C131.085 137.224 135.602 131.771 139.15 118.5C144.739 97.5942 144.558 75.5739 142.183 54.0374C140.388 37.7563 137.293 22.1599 127.01 9.68486C120.739 2.07718 112.081 4.52541 103.576 5.95309C92.3811 7.83239 50.4698 12.8768 42.0532 18.3269C67.9218 7.01657 80.2871 105.554 21.9751 145.43Z" fill="white"/>
<path d="M142.564 53.9953C140.744 37.5102 137.722 22.2035 127.306 9.43948C121.424 2.37465 113.489 3.79621 105.813 5.17099C94.033 7.28031 53.6047 11.9828 42.884 17.4167C39.2542 19.2569 37.9653 23.1091 37.5988 27.1828C37.4071 29.207 37.3688 31.7833 38.8087 33.7615C38.8416 33.8068 38.8841 33.8443 38.9331 33.8713C38.982 33.8984 39.0363 33.9145 39.0921 33.9184C39.148 33.9222 39.204 33.9138 39.2562 33.8938C39.3084 33.8737 39.3556 33.8424 39.3945 33.8022C43.8873 29.1319 49.8261 26.1163 56.2477 25.2445C56.3903 25.4837 56.5308 25.7288 56.6694 25.9798C63.5532 38.4011 65.2163 61.2042 60.8098 82.7192C55.3253 109.488 41.4578 131.647 21.7616 145.115C21.7014 145.156 21.6541 145.213 21.6254 145.28C21.5966 145.347 21.5875 145.421 21.5992 145.493C21.6109 145.565 21.6428 145.632 21.6912 145.687C21.7397 145.741 21.8027 145.78 21.8728 145.8C35.9756 149.83 50.8689 150.418 62.2689 150.478C81.2935 150.585 100.701 149.208 118.488 142.418C131.321 137.566 135.958 131.958 139.523 118.597C144.431 100.269 145.398 79.7412 142.564 53.9953ZM39.176 32.9288C38.1485 31.2067 38.1945 29.0115 38.3602 27.2549C38.6301 24.2592 39.554 20.4354 42.3641 18.6129C47.3265 16.5288 52.0535 18.6251 55.8106 24.5337C49.5045 25.4617 43.6684 28.407 39.176 32.9288ZM138.781 118.4C135.293 131.472 130.853 136.925 118.214 141.703C99.145 148.982 78.3039 149.804 62.2705 149.712C51.1319 149.651 36.6457 149.087 22.8642 145.281C77.7465 106.948 69.4618 15.9553 45.6681 17.0541C59.0218 12.1139 94.2799 8.01179 105.948 5.92547C113.749 4.52768 121.119 3.20811 126.713 9.92713C137.013 22.5494 139.996 37.7287 141.802 54.0796C144.625 79.7266 143.665 100.165 138.781 118.4Z" fill="#4B1010"/>
<path d="M46.6679 136.042C46.7324 135.964 46.8249 135.915 46.9254 135.905C47.0259 135.896 47.1262 135.926 47.2046 135.989C49.932 138.225 68.5532 140.785 76.4331 138.862C76.4821 138.85 76.5329 138.847 76.5826 138.855C76.6324 138.863 76.6802 138.88 76.7232 138.906C76.7663 138.933 76.8037 138.967 76.8335 139.008C76.8632 139.048 76.8847 139.094 76.8966 139.143C76.9085 139.192 76.9107 139.243 76.903 139.293C76.8953 139.343 76.8779 139.39 76.8517 139.433C76.8256 139.476 76.7912 139.514 76.7505 139.544C76.7099 139.573 76.6638 139.595 76.6148 139.607C67.4545 141.843 45.0225 138.046 46.6679 136.042Z" fill="#4B1010"/>
<path d="M99.257 137.471C99.2556 137.421 99.2642 137.371 99.2823 137.324C99.3003 137.277 99.3275 137.234 99.3622 137.197C99.3968 137.161 99.4384 137.131 99.4844 137.111C99.5304 137.09 99.58 137.079 99.6304 137.078C109.887 136.796 119.887 133.809 128.618 128.42C128.661 128.392 128.709 128.372 128.759 128.363C128.81 128.354 128.862 128.354 128.912 128.365C128.962 128.376 129.009 128.397 129.051 128.427C129.093 128.457 129.128 128.494 129.155 128.538C129.182 128.582 129.2 128.63 129.208 128.681C129.216 128.732 129.213 128.783 129.201 128.833C129.188 128.883 129.166 128.929 129.135 128.97C129.104 129.011 129.066 129.046 129.021 129.071C120.176 134.532 110.046 137.559 99.6549 137.845C99.6042 137.847 99.5536 137.838 99.506 137.821C99.4585 137.803 99.4149 137.776 99.3779 137.741C99.3409 137.706 99.3111 137.665 99.2904 137.618C99.2696 137.572 99.2583 137.522 99.257 137.471Z" fill="#4B1010"/>
<path d="M48.5304 144.111C46.5569 143.948 44.6414 143.363 42.9132 142.396C42.8693 142.372 42.8306 142.338 42.7995 142.299C42.7683 142.259 42.7452 142.214 42.7316 142.165C42.718 142.117 42.714 142.066 42.72 142.016C42.726 141.966 42.7417 141.918 42.7664 141.874C42.7911 141.83 42.8242 141.791 42.8638 141.76C42.9034 141.729 42.9487 141.706 42.9973 141.692C43.0458 141.678 43.0965 141.674 43.1466 141.68C43.1966 141.686 43.245 141.702 43.2889 141.727C44.9288 142.643 46.7463 143.197 48.6186 143.349C57.2415 144.666 66.1296 146.024 74.8828 144.706C74.9834 144.691 75.0858 144.716 75.1677 144.776C75.2495 144.837 75.304 144.927 75.3191 145.028C75.3343 145.128 75.3088 145.231 75.2484 145.313C75.188 145.394 75.0976 145.449 74.9971 145.464C66.1856 146.791 57.3319 145.456 48.5304 144.111Z" fill="#4B1010"/>
<path d="M96.9386 143.536C96.8369 143.535 96.74 143.493 96.6691 143.42C96.5982 143.347 96.5592 143.249 96.5606 143.147C96.562 143.046 96.6038 142.949 96.6767 142.878C96.7496 142.807 96.8477 142.768 96.9493 142.769C107.123 142.906 117.155 140.379 126.049 135.437C126.138 135.388 126.243 135.375 126.34 135.403C126.438 135.431 126.521 135.497 126.57 135.586C126.62 135.675 126.632 135.779 126.604 135.877C126.576 135.975 126.51 136.058 126.422 136.107C117.41 141.112 107.246 143.673 96.9386 143.536Z" fill="#4B1010"/>
<path d="M106.249 72.7116C106.243 72.6614 106.248 72.6108 106.263 72.5624C106.277 72.5141 106.301 72.4691 106.333 72.43C106.365 72.3909 106.404 72.3585 106.448 72.3346C106.493 72.3106 106.541 72.2957 106.591 72.2906C111.143 71.8246 115.61 70.7436 119.871 69.0772C119.966 69.0401 120.072 69.0421 120.165 69.0829C120.258 69.1237 120.332 69.1998 120.369 69.2946C120.406 69.3893 120.404 69.495 120.363 69.5882C120.322 69.6815 120.246 69.7547 120.151 69.7918C115.825 71.4829 111.29 72.5804 106.669 73.0543C106.619 73.0594 106.568 73.0546 106.52 73.0401C106.472 73.0257 106.427 73.0018 106.388 72.97C106.349 72.9382 106.316 72.899 106.292 72.8546C106.269 72.8103 106.254 72.7617 106.249 72.7116Z" fill="#4B1010"/>
<path d="M95.2465 79.3481C95.2423 79.2979 95.248 79.2474 95.2633 79.1994C95.2787 79.1514 95.3033 79.1069 95.3359 79.0685C95.3684 79.03 95.4082 78.9984 95.453 78.9753C95.4978 78.9522 95.5467 78.9382 95.5969 78.9341C107.047 77.9987 118.364 75.8361 129.352 72.4834C129.401 72.4671 129.452 72.4606 129.503 72.4645C129.554 72.4683 129.604 72.4824 129.65 72.5058C129.695 72.5292 129.736 72.5616 129.769 72.6009C129.802 72.6402 129.826 72.6857 129.841 72.7348C129.856 72.7838 129.861 72.8353 129.856 72.8863C129.851 72.9373 129.835 72.9867 129.81 73.0316C129.786 73.0765 129.752 73.116 129.712 73.1477C129.672 73.1795 129.626 73.2028 129.576 73.2164C118.535 76.5851 107.165 78.7586 95.6597 79.6993C95.6095 79.7034 95.559 79.6975 95.5111 79.6821C95.4631 79.6667 95.4187 79.6419 95.3803 79.6093C95.342 79.5767 95.3104 79.5369 95.2874 79.492C95.2644 79.4472 95.2505 79.3983 95.2465 79.3481Z" fill="#4B1010"/>
<path d="M98.9747 83.8733C98.9691 83.7718 99.0039 83.6722 99.0717 83.5965C99.1394 83.5207 99.2344 83.4749 99.3359 83.4692C107.725 82.9954 116.01 81.379 123.962 78.6647C124.01 78.6469 124.061 78.6388 124.112 78.641C124.163 78.6432 124.213 78.6556 124.26 78.6776C124.306 78.6995 124.347 78.7305 124.381 78.7687C124.415 78.807 124.442 78.8516 124.458 78.9001C124.475 78.9486 124.481 78.9999 124.478 79.051C124.474 79.1021 124.46 79.152 124.437 79.1977C124.414 79.2433 124.382 79.2839 124.343 79.3169C124.303 79.35 124.258 79.3749 124.209 79.3901C116.192 82.1276 107.838 83.7575 99.3788 84.2344C99.2773 84.24 99.1778 84.2052 99.102 84.1375C99.0262 84.0697 98.9805 83.9747 98.9747 83.8733Z" fill="#4B1010"/>
<path d="M85.8116 34.9079C89.9268 46.2458 93.7712 58.638 90.1322 70.1346C103.538 68.2025 116.807 65.4127 129.856 61.7824C130.33 61.7003 130.765 61.4681 131.097 61.1199C131.319 60.7766 131.442 60.3785 131.452 59.9698C133.318 43.4471 129.032 25.4462 116.736 14.2478C107.08 17.6284 98.1808 18.9181 87.9485 19.819C85.2519 20.0567 80.7541 19.5391 78.4585 20.8549C81.2763 25.5205 83.9078 29.6641 85.8116 34.9079Z" fill="#FFB43B"/>
<path d="M50.1748 130.462C57.8546 132.637 65.9637 132.642 73.944 132.637C76.9305 132.637 79.7245 133.348 82.2771 131.367C83.9132 130.031 85.2975 128.413 86.3646 126.59C92.6519 116.44 98.3259 105.604 100.427 93.8271C94.5949 95.777 88.2983 96.1803 82.1935 96.4119C78.0838 96.5512 73.9694 96.4265 69.8757 96.0384C69.3443 102.096 65.1793 108.766 62.1591 113.964C61.0404 115.885 52.2466 131.022 50.1748 130.462Z" fill="#FFB43B"/>
<path d="M101.759 130.388C109.869 129.765 117.785 127.605 125.088 124.024C126.514 123.356 127.835 122.482 129.007 121.43C130.186 120.117 131.133 118.613 131.807 116.983C136.327 106.638 137.856 95.2323 136.22 84.0618C136.631 86.7676 116.269 92.5903 114.161 93.2812C114.161 102.453 110.527 113.483 106.63 121.705C106.092 122.835 103.01 130.304 101.759 130.388Z" fill="#FFB43B"/>
<path d="M43.6327 49.5506L44.4079 49.434C44.4079 49.434 45.3494 49.2929 45.4898 50.2337L48.132 67.8889C48.132 67.8889 48.2731 68.8305 47.3315 68.9708L46.5563 69.0873C46.5563 69.0873 45.6147 69.2276 45.4744 68.2868L42.8322 50.6317C42.8322 50.6317 42.6911 49.6909 43.6327 49.5506Z" fill="#FFE55D"/>
<path d="M46.4161 69.4769C46.0968 69.4759 45.7883 69.3606 45.5465 69.1519C45.3048 68.9432 45.1457 68.6548 45.0981 68.339L42.4566 50.6838C42.4306 50.5104 42.4391 50.3335 42.4815 50.1633C42.5239 49.9932 42.5994 49.833 42.7037 49.692C42.808 49.551 42.9391 49.432 43.0894 49.3417C43.2398 49.2514 43.4065 49.1916 43.5799 49.1657L44.3551 49.0499C44.5285 49.0239 44.7052 49.0323 44.8753 49.0747C45.0454 49.117 45.2055 49.1925 45.3464 49.2967C45.4873 49.401 45.6063 49.532 45.6966 49.6822C45.7869 49.8325 45.8466 49.9991 45.8725 50.1724L48.5147 67.8299C48.5666 68.1801 48.4775 68.5366 48.2669 68.8212C48.0563 69.1058 47.7415 69.2952 47.3914 69.3481C47.0698 69.4143 46.7439 69.4573 46.4161 69.4769ZM44.5537 49.8021C44.477 49.8021 44.477 49.8067 43.6926 49.9248C43.6188 49.9356 43.5479 49.961 43.4839 49.9993C43.4198 50.0377 43.3641 50.0883 43.3197 50.1483C43.2753 50.2083 43.2432 50.2765 43.2252 50.3489C43.2072 50.4213 43.2038 50.4966 43.215 50.5704L45.8564 68.2248C45.8674 68.2986 45.8928 68.3696 45.9312 68.4337C45.9697 68.4977 46.0203 68.5536 46.0804 68.598C46.1404 68.6425 46.2086 68.6746 46.2811 68.6927C46.3536 68.7107 46.4289 68.7143 46.5028 68.7032L47.278 68.5867C47.4269 68.5643 47.561 68.4838 47.6507 68.3628C47.7403 68.2418 47.7784 68.0901 47.7564 67.9411L45.1142 50.2867C45.0945 50.1521 45.027 50.029 44.9241 49.9401C44.8212 49.8511 44.6897 49.8021 44.5537 49.8021Z" fill="#4B1010"/>
<path d="M62.0363 40.8401C57.4112 47.566 51.3018 50.725 40.0221 52.6396C40.0221 52.6396 38.9587 52.855 39.1634 54.6554C39.3681 56.4557 40.5911 56.4473 40.5911 56.4473C51.8968 54.9283 58.6511 56.1183 65.0082 61.1735C60.9068 56.4611 59.4439 46.4665 62.0363 40.8401Z" fill="#FFE55D"/>
<path d="M71.0964 40.43C67.794 35.7689 63.7279 36.2665 61.6999 40.6508C57.1653 47.2288 51.1747 50.3563 39.9464 52.2648C39.8889 52.2763 38.5402 52.5715 38.7825 54.7C38.9765 56.3952 40.0553 56.8545 40.6419 56.8277C51.8456 55.3256 58.4673 56.5149 64.658 61.386C67.9036 65.1561 72.0487 64.5335 73.8759 59.0091C75.703 53.4847 74.4678 45.1877 71.0964 40.43ZM40.5943 56.0617C40.5039 56.0617 39.7026 55.9988 39.5447 54.6103C39.3867 53.2217 40.0814 53.0192 40.086 53.0162C50.4034 51.268 56.3986 48.4855 60.8917 43.007C59.7286 48.596 60.5775 54.4162 63.2886 59.44C57.4268 55.5495 50.9002 54.6754 40.5943 56.0617Z" fill="#4B1010"/>
<path d="M64.5846 50.4052C63.8883 49.515 62.5044 49.4851 61.2017 49.6055C61.3231 51.1445 61.5836 52.6694 61.9799 54.1615C62.5431 53.8896 63.1268 53.6627 63.7258 53.4829C64.0058 53.36 64.255 53.1765 64.4554 52.9456C64.6558 52.7146 64.8023 52.4421 64.8845 52.1475C64.9667 51.853 64.9824 51.5439 64.9305 51.2426C64.8786 50.9413 64.7605 50.6553 64.5846 50.4052Z" fill="white"/>
<path d="M96.6083 62.8287C96.5316 62.8287 97.3635 62.9882 80.1952 59.6206C80.1447 59.6122 80.0964 59.5937 80.0531 59.5663C80.0098 59.5388 79.9725 59.503 79.9433 59.4609C79.9141 59.4188 79.8936 59.3712 79.8831 59.3211C79.8726 59.2709 79.8723 59.2192 79.8821 59.1689C79.892 59.1186 79.9118 59.0708 79.9404 59.0283C79.9691 58.9858 80.0059 58.9495 80.0489 58.9214C80.0918 58.8934 80.1399 58.8743 80.1903 58.8652C80.2407 58.8561 80.2925 58.8572 80.3425 58.8685L96.6819 62.0689C96.7759 62.0869 96.8598 62.1395 96.917 62.2163C96.9743 62.2931 97.0006 62.3886 96.991 62.4839C96.9814 62.5792 96.9365 62.6674 96.8651 62.7312C96.7937 62.795 96.701 62.8298 96.6052 62.8287H96.6083Z" fill="#4B1010"/>
<path d="M85.1304 71.4978C84.9886 71.4978 85.5797 71.793 76.7077 66.974C76.6183 66.9254 76.5519 66.8433 76.523 66.7457C76.4942 66.6482 76.5053 66.5431 76.5539 66.4538C76.6025 66.3644 76.6846 66.298 76.7822 66.2691C76.8798 66.2403 76.9848 66.2514 77.0742 66.3L85.3137 70.7794C85.3877 70.8205 85.446 70.885 85.4795 70.9627C85.513 71.0405 85.5198 71.1272 85.4989 71.2092C85.4779 71.2912 85.4304 71.3641 85.3638 71.4163C85.2971 71.4685 85.2151 71.4971 85.1304 71.4978Z" fill="#4B1010"/>
<path d="M47.0576 59.2079C46.9616 59.2077 46.8692 59.1714 46.7986 59.1062C46.728 59.0411 46.6845 58.9518 46.6766 58.8561C46.6687 58.7604 46.697 58.6652 46.7559 58.5893C46.8148 58.5135 46.9001 58.4625 46.9947 58.4465C50.0223 57.9444 53.0289 57.3239 56.0079 56.5864C56.0568 56.5743 56.1076 56.572 56.1573 56.5795C56.2071 56.5871 56.2549 56.6043 56.2981 56.6304C56.3412 56.6564 56.3787 56.6906 56.4086 56.7312C56.4385 56.7717 56.4601 56.8178 56.4721 56.8666C56.4842 56.9155 56.4866 56.9663 56.479 57.0161C56.4715 57.0659 56.4542 57.1137 56.4282 57.1568C56.4022 57.1999 56.3679 57.2375 56.3274 57.2674C56.2868 57.2972 56.2408 57.3188 56.1919 57.3309C52.0124 58.3668 47.2961 59.2079 47.0576 59.2079Z" fill="#4B1010"/>
<path d="M80.8036 49.3344C80.7937 49.2332 80.8245 49.1323 80.889 49.0538C80.9536 48.9753 81.0467 48.9257 81.1478 48.9158C83.9948 48.639 86.8747 48.2203 89.7063 47.6706C89.8045 47.6549 89.9049 47.678 89.9864 47.7349C90.0678 47.7919 90.124 47.8783 90.143 47.9759C90.162 48.0735 90.1424 48.1746 90.0882 48.258C90.034 48.3414 89.9496 48.4004 89.8527 48.4227C86.9973 48.9773 84.1173 49.3965 81.2222 49.6787C81.121 49.6885 81.0201 49.6578 80.9416 49.5932C80.8631 49.5287 80.8134 49.4356 80.8036 49.3344Z" fill="#4B1010"/>
<path d="M72.4212 33.2011C72.3443 33.2012 72.2691 33.1781 72.2055 33.1348C72.1419 33.0916 72.0927 33.0302 72.0645 32.9587C72.0362 32.8872 72.0301 32.8088 72.0469 32.7337C72.0638 32.6587 72.1028 32.5905 72.159 32.5379L78.0744 26.9859C78.1111 26.9514 78.1543 26.9245 78.2014 26.9066C78.2485 26.8888 78.2986 26.8805 78.349 26.882C78.3993 26.8836 78.4488 26.8951 78.4947 26.9158C78.5406 26.9365 78.582 26.966 78.6165 27.0027C78.651 27.0394 78.6779 27.0826 78.6957 27.1297C78.7136 27.1768 78.7219 27.2269 78.7203 27.2773C78.7188 27.3276 78.7073 27.3771 78.6866 27.423C78.6659 27.469 78.6363 27.5103 78.5996 27.5448C72.139 33.6083 72.6374 33.2011 72.4212 33.2011Z" fill="#4B1010"/>
<path d="M77.4223 39.6585C77.3346 39.6573 77.2499 39.626 77.1825 39.5698C77.1151 39.5137 77.069 39.4361 77.0518 39.3501C77.0347 39.264 77.0476 39.1747 77.0884 39.097C77.1291 39.0193 77.1953 38.958 77.2759 38.9232L93.4106 32.3169C93.5047 32.2784 93.6103 32.2788 93.7041 32.3182C93.798 32.3575 93.8723 32.4325 93.9109 32.5266C93.9494 32.6208 93.949 32.7264 93.9096 32.8202C93.8703 32.914 93.7953 32.9884 93.7012 33.0269C76.4378 40.1033 77.5396 39.6585 77.4223 39.6585Z" fill="#4B1010"/>
<path d="M103.709 67.4654C102.991 61.8681 102.537 55.8952 104.782 50.669C105.564 48.7942 106.857 47.1774 108.515 46.0033C109.344 45.4323 110.296 45.0667 111.294 44.9368C112.292 44.8069 113.307 44.9165 114.254 45.2565C115.338 45.7585 116.295 46.4983 117.053 47.4211C120.811 51.918 121.635 58.0965 122.214 63.9384L103.709 67.4654Z" fill="#FFE55D"/>
<path d="M102.795 38.8367C104.9 41.7166 109.526 42.4987 112.22 40.1616C116.611 36.3517 114.347 26.4752 107.899 26.65C102.281 26.8018 99.7694 34.697 102.795 38.8367Z" fill="#FFE55D"/>
<path d="M102.485 39.0621C99.2483 34.6502 101.979 26.4238 107.888 26.2666C114.756 26.1025 117.082 36.4383 112.471 40.4514C109.593 42.9395 104.705 42.1114 102.485 39.0621ZM108.061 27.031C102.719 27.031 100.184 34.6157 103.104 38.6089C105.092 41.3286 109.458 42.0401 111.968 39.8702C116.08 36.2934 113.994 27.031 108.061 27.031Z" fill="#4B1010"/>
<path d="M103.709 67.8491C103.615 67.8498 103.524 67.8161 103.454 67.7544C103.383 67.6926 103.337 67.6071 103.326 67.514C102.591 61.7879 102.071 55.7575 104.43 50.5121C105.227 48.5671 106.568 46.8928 108.292 45.6893C109.172 45.0866 110.183 44.7006 111.241 44.5627C112.299 44.4247 113.374 44.5389 114.38 44.8957C115.534 45.4149 116.551 46.1975 117.349 47.1806C121.094 51.5097 121.94 57.3147 122.592 63.9011C122.602 64.0028 122.571 64.1043 122.506 64.1834C122.442 64.2625 122.348 64.3126 122.247 64.3228C122.145 64.333 122.043 64.3023 121.964 64.2376C121.885 64.1729 121.835 64.0795 121.825 63.9778C121.186 57.5241 120.363 51.8424 116.757 47.6736C116.04 46.7867 115.126 46.0794 114.088 45.608C113.201 45.2963 112.252 45.1985 111.319 45.3224C110.387 45.4463 109.497 45.7885 108.721 46.3211C107.116 47.4428 105.868 49.0033 105.127 50.8158C102.844 55.8916 103.358 61.8002 104.078 67.4182C104.085 67.4712 104.081 67.5251 104.065 67.5763C104.05 67.6275 104.024 67.6749 103.989 67.7155C103.954 67.756 103.911 67.7889 103.863 67.8119C103.815 67.8349 103.762 67.8476 103.709 67.8491Z" fill="#4B1010"/>
<path d="M112.229 58.3221C112.172 58.3221 112.115 58.3092 112.063 58.2842C112.011 58.2592 111.965 58.2229 111.929 58.1779C111.591 57.7587 111.407 57.2363 111.407 56.6977C111.407 56.1591 111.591 55.6367 111.929 55.2175C112.526 54.5128 113.161 53.8422 113.832 53.2086C115.511 51.3324 114.71 48.4647 112.177 48.6081C109.887 48.6403 108.073 50.7243 108.945 52.8781C109.067 53.182 109.268 53.4471 109.529 53.6452C109.789 53.8433 110.098 53.967 110.424 54.003C110.525 54.0141 110.617 54.0651 110.681 54.1445C110.745 54.224 110.774 54.3254 110.763 54.4266C110.752 54.5278 110.701 54.6203 110.621 54.684C110.542 54.7476 110.44 54.7771 110.339 54.7659C109.876 54.7144 109.436 54.5384 109.065 54.2564C108.694 53.9745 108.407 53.5973 108.234 53.1649C107.15 50.4867 109.373 47.8797 112.149 47.8421C112.581 47.8055 113.014 47.8601 113.423 48.0025C113.832 48.1448 114.205 48.3717 114.52 48.6684C114.835 48.9651 115.084 49.3248 115.25 49.7241C115.417 50.1234 115.497 50.5533 115.486 50.9858C115.454 52.0073 115.063 52.9847 114.381 53.7461C113.725 54.365 113.105 55.0196 112.521 55.7067C112.295 55.9902 112.173 56.3422 112.174 56.7047C112.176 57.0671 112.3 57.4183 112.528 57.7002C112.573 57.7566 112.601 57.8245 112.609 57.896C112.617 57.9676 112.605 58.0399 112.574 58.1048C112.542 58.1697 112.494 58.2245 112.433 58.2629C112.372 58.3014 112.301 58.3218 112.229 58.3221Z" fill="#4B1010"/>
<path d="M112.846 62.1559C112.517 62.1491 112.199 62.0372 111.938 61.8365C111.678 61.6359 111.488 61.3571 111.397 61.041C111.306 60.7249 111.319 60.388 111.434 60.0796C111.548 59.7713 111.758 59.5077 112.034 59.3274C112.309 59.1471 112.634 59.0597 112.963 59.0778C113.291 59.0959 113.605 59.2187 113.859 59.4281C114.112 59.6376 114.292 59.9227 114.372 60.2417C114.452 60.5608 114.428 60.8971 114.303 61.2013C114.18 61.4859 113.977 61.7283 113.718 61.8981C113.459 62.0678 113.156 62.1575 112.846 62.1559ZM112.429 61.2757C112.526 61.3342 112.635 61.3716 112.748 61.3856C112.861 61.3995 112.975 61.3896 113.084 61.3565C113.193 61.3234 113.294 61.2679 113.38 61.1935C113.466 61.1191 113.536 61.0274 113.584 60.9245C113.634 60.7913 113.646 60.6467 113.619 60.5071C113.591 60.3674 113.525 60.2383 113.428 60.1344C113.33 60.0304 113.206 59.9558 113.068 59.919C112.931 59.8821 112.786 59.8845 112.65 59.9259C112.513 59.9673 112.391 60.0461 112.298 60.1532C112.204 60.2603 112.142 60.3916 112.119 60.5321C112.096 60.6726 112.113 60.8167 112.168 60.9481C112.222 61.0795 112.313 61.193 112.429 61.2757Z" fill="#4B1010"/>
<path d="M90.1325 70.5089C90.0723 70.509 90.0129 70.4949 89.9592 70.4678C89.9055 70.4407 89.8589 70.4013 89.8232 70.3529C89.7875 70.3044 89.7638 70.2483 89.7538 70.1889C89.7439 70.1296 89.748 70.0687 89.766 70.0113C90.0727 69.0229 90.3027 68.1711 90.476 67.3399C90.4997 67.2433 90.56 67.1597 90.6442 67.1067C90.7284 67.0537 90.83 67.0356 90.9273 67.0561C91.0247 67.0766 91.1103 67.1341 91.166 67.2166C91.2217 67.299 91.2431 67.3999 91.2258 67.4979C91.0809 68.1879 90.903 68.8857 90.6753 69.6578L92.8759 69.335C92.9765 69.3203 93.0789 69.3461 93.1605 69.4069C93.2422 69.4676 93.2963 69.5583 93.311 69.659C93.3258 69.7596 93.2999 69.862 93.2392 69.9436C93.1784 70.0252 93.0877 70.0793 92.9871 70.0941C92.9449 70.1002 90.1754 70.5089 90.1325 70.5089Z" fill="#4B1010"/>
<path d="M95.6838 69.659C95.588 69.6582 95.4959 69.6215 95.4258 69.5562C95.3556 69.4909 95.3125 69.4016 95.3049 69.3061C95.2973 69.2105 95.3258 69.1156 95.3847 69.04C95.4436 68.9644 95.5287 68.9136 95.6232 68.8977C97.4793 68.5976 99.3323 68.2817 101.182 67.95C101.282 67.932 101.386 67.9545 101.469 68.0126C101.553 68.0707 101.61 68.1596 101.628 68.2597C101.646 68.3599 101.623 68.4631 101.565 68.5466C101.507 68.6302 101.418 68.6872 101.318 68.7052C100.333 68.8816 95.8717 69.659 95.6838 69.659ZM104.021 68.2022C103.925 68.2018 103.834 68.1659 103.764 68.1016C103.693 68.0373 103.65 67.9491 103.641 67.8543C103.632 67.7595 103.659 67.6648 103.716 67.5886C103.773 67.5125 103.857 67.4604 103.95 67.4424C105.797 67.0938 107.641 66.7285 109.481 66.3467C109.581 66.3264 109.685 66.3464 109.77 66.4025C109.854 66.4586 109.914 66.5461 109.934 66.6457C109.954 66.7454 109.934 66.849 109.878 66.9338C109.822 67.0187 109.734 67.0778 109.635 67.0981C109.087 67.2101 104.205 68.2007 104.021 68.2007V68.2022ZM112.317 66.5207C112.222 66.5211 112.13 66.4862 112.06 66.423C111.989 66.3597 111.945 66.2725 111.934 66.1782C111.924 66.0839 111.949 65.9892 112.005 65.9125C112.061 65.8357 112.143 65.7822 112.236 65.7624C114.073 65.3642 115.906 64.9499 117.736 64.5195C117.785 64.508 117.836 64.5062 117.886 64.5144C117.936 64.5225 117.983 64.5403 118.026 64.5668C118.069 64.5933 118.106 64.628 118.135 64.6689C118.165 64.7098 118.186 64.7561 118.197 64.8051C118.209 64.8542 118.211 64.905 118.203 64.9547C118.195 65.0044 118.177 65.0521 118.15 65.0949C118.124 65.1377 118.089 65.1749 118.048 65.2043C118.007 65.2337 117.961 65.2548 117.912 65.2663C117.405 65.3852 112.491 66.5207 112.317 66.5207ZM120.563 64.6184C120.469 64.6185 120.379 64.5842 120.309 64.5219C120.238 64.4597 120.193 64.3738 120.182 64.2806C120.171 64.1874 120.195 64.0934 120.248 64.0163C120.302 63.9392 120.382 63.8845 120.473 63.8624C122.298 63.4162 124.12 62.9533 125.937 62.4738C125.987 62.4585 126.039 62.4534 126.09 62.4587C126.142 62.464 126.192 62.4796 126.237 62.5047C126.282 62.5297 126.322 62.5637 126.354 62.6045C126.385 62.6453 126.408 62.6922 126.422 62.7422C126.435 62.7922 126.438 62.8443 126.43 62.8955C126.423 62.9467 126.405 62.9958 126.378 63.04C126.351 63.0841 126.316 63.1223 126.273 63.1523C126.231 63.1823 126.183 63.2035 126.133 63.2145C125.613 63.3518 120.743 64.6184 120.563 64.6184H120.563ZM128.757 62.4968C128.664 62.4967 128.575 62.4629 128.505 62.4018C128.435 62.3407 128.39 62.2564 128.378 62.1645C128.365 62.0727 128.387 61.9794 128.438 61.9021C128.489 61.8247 128.566 61.7685 128.656 61.7439L129.755 61.4372C130.161 61.3703 130.535 61.1746 130.821 60.879C130.977 60.6072 131.063 60.3002 131.069 59.9865C131.139 59.344 131.198 58.7306 131.249 58.1164C131.258 58.0147 131.306 57.9205 131.384 57.8545C131.462 57.7885 131.563 57.7561 131.664 57.7645C131.766 57.7728 131.86 57.8212 131.926 57.899C131.992 57.9768 132.025 58.0776 132.016 58.1793C131.965 58.8014 131.905 59.4212 131.837 60.0387C131.822 60.506 131.679 60.9603 131.424 61.3521C131.03 61.7873 130.503 62.08 129.926 62.1848C129.545 62.3184 129.153 62.4227 128.756 62.4968H128.757ZM131.805 55.7226H131.788C131.687 55.7184 131.591 55.6741 131.522 55.5993C131.453 55.5245 131.417 55.4255 131.421 55.3239C131.498 53.4477 131.493 51.5668 131.41 49.7128C131.407 49.6625 131.415 49.6123 131.432 49.565C131.449 49.5176 131.476 49.4741 131.51 49.437C131.544 49.3998 131.585 49.3697 131.63 49.3484C131.676 49.327 131.725 49.3149 131.775 49.3126C131.826 49.3096 131.876 49.3168 131.924 49.3336C131.972 49.3505 132.016 49.3768 132.053 49.4109C132.09 49.445 132.12 49.4862 132.141 49.5322C132.162 49.5781 132.174 49.6278 132.176 49.6783C132.257 51.4894 132.266 53.3894 132.187 55.3523C132.184 55.4517 132.142 55.5459 132.07 55.615C131.999 55.6841 131.903 55.7227 131.804 55.7226H131.805ZM131.605 47.2669C131.509 47.2673 131.416 47.2316 131.345 47.1668C131.274 47.1021 131.23 47.013 131.222 46.9173C131.058 45.0535 130.809 43.1981 130.477 41.3568C130.46 41.2571 130.483 41.1547 130.541 41.0718C130.599 40.9889 130.687 40.9322 130.787 40.9142C130.886 40.8962 130.989 40.9183 131.072 40.9756C131.156 41.033 131.213 41.1209 131.232 41.2203C131.564 43.0605 131.818 44.9513 131.986 46.8498C131.99 46.9027 131.984 46.956 131.967 47.0063C131.95 47.0567 131.923 47.1029 131.887 47.1421C131.851 47.1813 131.807 47.2127 131.759 47.2342C131.71 47.2556 131.658 47.2668 131.604 47.2669H131.605ZM130.289 38.9093C130.202 38.9091 130.118 38.8796 130.051 38.8256C129.983 38.7716 129.935 38.6962 129.916 38.6119C129.496 36.7898 128.984 34.9903 128.383 33.2201C128.366 33.1724 128.36 33.122 128.363 33.0717C128.366 33.0215 128.379 32.9724 128.402 32.9272C128.424 32.882 128.455 32.8417 128.493 32.8084C128.531 32.7752 128.575 32.7498 128.622 32.7336C128.67 32.7174 128.72 32.7107 128.771 32.714C128.821 32.7172 128.87 32.7304 128.915 32.7526C128.96 32.7749 129.001 32.8058 129.034 32.8436C129.067 32.8815 129.092 32.9255 129.109 32.9732C129.718 34.7679 130.236 36.5923 130.661 38.4393C130.675 38.4957 130.675 38.5544 130.663 38.611C130.65 38.6676 130.625 38.7206 130.589 38.766C130.553 38.8115 130.507 38.8482 130.455 38.8734C130.403 38.8987 130.346 38.9117 130.288 38.9116L130.289 38.9093ZM127.767 30.8393C127.69 30.8393 127.616 30.8164 127.552 30.7734C127.489 30.7305 127.44 30.6696 127.411 30.5986C126.715 28.8654 125.92 27.1738 125.03 25.5319C124.986 25.443 124.978 25.3407 125.008 25.2463C125.038 25.152 125.103 25.0728 125.19 25.0256C125.277 24.9783 125.379 24.9665 125.475 24.9927C125.57 25.0189 125.652 25.0811 125.703 25.1661C126.608 26.8335 127.416 28.5519 128.123 30.3126C128.146 30.3708 128.155 30.4338 128.148 30.4963C128.142 30.5587 128.12 30.6185 128.085 30.6705C128.05 30.7225 128.002 30.7651 127.947 30.7945C127.891 30.824 127.83 30.8394 127.767 30.8393ZM123.944 23.3006C123.879 23.3007 123.815 23.2843 123.758 23.2529C123.701 23.2215 123.653 23.1762 123.619 23.1212C122.628 21.541 121.535 20.0275 120.346 18.5905C120.281 18.5122 120.25 18.4113 120.26 18.31C120.269 18.2087 120.318 18.1153 120.397 18.0503C120.475 17.9854 120.576 17.9541 120.677 17.9636C120.778 17.973 120.872 18.0223 120.937 18.1005C122.147 19.5638 123.26 21.105 124.269 22.7141C124.305 22.7721 124.325 22.8388 124.327 22.9072C124.329 22.9756 124.312 23.0433 124.279 23.1031C124.246 23.163 124.197 23.2129 124.138 23.2476C124.08 23.2823 124.012 23.3006 123.944 23.3006Z" fill="#4B1010"/>
<path d="M118.743 16.5633C118.427 16.5633 118.546 16.3984 116.649 14.6595C115.841 14.9493 115.026 15.2322 114.212 15.5152C114.164 15.5338 114.113 15.5426 114.061 15.5409C114.01 15.5393 113.959 15.5273 113.912 15.5057C113.866 15.4841 113.824 15.4533 113.789 15.4151C113.755 15.377 113.728 15.3322 113.711 15.2836C113.694 15.2349 113.687 15.1834 113.691 15.132C113.694 15.0806 113.708 15.0304 113.731 14.9845C113.755 14.9386 113.787 14.8978 113.826 14.8646C113.866 14.8314 113.911 14.8065 113.961 14.7913C114.845 14.4846 115.73 14.1779 116.606 13.8597C116.671 13.8361 116.742 13.8307 116.81 13.8442C116.879 13.8577 116.942 13.8896 116.994 13.9364C117.695 14.5705 118.371 15.2311 119.021 15.9169C119.072 15.9714 119.107 16.0396 119.12 16.1133C119.133 16.187 119.124 16.2628 119.094 16.3315C119.065 16.4003 119.016 16.4588 118.953 16.5C118.891 16.5412 118.818 16.5632 118.743 16.5633Z" fill="#4B1010"/>
<path d="M83.7123 20.2829C83.6106 20.284 83.5127 20.2447 83.44 20.1736C83.3673 20.1025 83.3258 20.0054 83.3247 19.9038C83.3236 19.8021 83.3629 19.7041 83.434 19.6314C83.5051 19.5588 83.6022 19.5173 83.7039 19.5162C85.409 19.5519 87.1148 19.4981 88.8143 19.3552C88.8646 19.3505 88.9154 19.3558 88.9637 19.3708C89.0119 19.3858 89.0568 19.4102 89.0957 19.4425C89.1346 19.4748 89.1667 19.5145 89.1902 19.5592C89.2138 19.604 89.2283 19.6529 89.2329 19.7033C89.2375 19.7536 89.2322 19.8044 89.2172 19.8527C89.2022 19.9009 89.1779 19.9458 89.1456 19.9847C89.1132 20.0235 89.0736 20.0557 89.0288 20.0792C88.9841 20.1028 88.9352 20.1173 88.8848 20.1219C87.1665 20.2962 85.4381 20.35 83.7123 20.2829ZM91.4036 19.8719C91.3019 19.8771 91.2023 19.8417 91.1268 19.7735C91.0512 19.7052 91.0058 19.6098 91.0006 19.5081C90.9955 19.4064 91.0309 19.3069 91.0991 19.2313C91.1673 19.1557 91.2628 19.1104 91.3645 19.1052C93.2047 18.9158 94.8716 18.7218 96.4611 18.5133C96.5118 18.505 96.5636 18.5069 96.6135 18.5191C96.6635 18.5312 96.7104 18.5532 96.7517 18.5839C96.7929 18.6145 96.8276 18.6531 96.8536 18.6974C96.8796 18.7417 96.8965 18.7908 96.9031 18.8417C96.9098 18.8927 96.9062 18.9444 96.8925 18.9939C96.8788 19.0435 96.8552 19.0897 96.8233 19.1299C96.7914 19.1702 96.7517 19.2036 96.7066 19.2282C96.6615 19.2528 96.6119 19.2681 96.5607 19.2731C95.5486 19.4088 91.6627 19.8719 91.4036 19.8719ZM99.0527 18.9258C98.9564 18.925 98.864 18.888 98.7937 18.8222C98.7234 18.7563 98.6805 18.6665 98.6735 18.5705C98.6664 18.4745 98.6958 18.3793 98.7556 18.3039C98.8155 18.2286 98.9016 18.1785 98.9967 18.1636C100.684 17.9129 102.378 17.6177 104.043 17.2849C104.142 17.2646 104.246 17.2847 104.331 17.3409C104.416 17.397 104.475 17.4846 104.495 17.5843C104.516 17.6841 104.496 17.7878 104.44 17.8727C104.383 17.9576 104.296 18.0168 104.196 18.0371C103.021 18.271 99.3586 18.9258 99.0519 18.9258H99.0527ZM106.627 17.5111C106.533 17.5113 106.442 17.4766 106.371 17.4137C106.301 17.3508 106.256 17.2641 106.245 17.1702C106.235 17.0763 106.26 16.9818 106.315 16.9049C106.369 16.828 106.451 16.7741 106.543 16.7536C108.209 16.3774 109.865 15.9601 111.51 15.5022C111.607 15.4768 111.711 15.4906 111.798 15.5407C111.885 15.5907 111.949 15.6731 111.976 15.77C112.003 15.8669 111.991 15.9705 111.943 16.0585C111.894 16.1466 111.813 16.212 111.716 16.2406C110.545 16.5673 106.873 17.5111 106.627 17.5111Z" fill="#4B1010"/>
<path d="M79.933 23.646C79.8668 23.6461 79.8016 23.6289 79.744 23.5962C79.6863 23.5636 79.6381 23.5166 79.6041 23.4597L78.158 21.0521C78.1312 21.0072 78.114 20.9573 78.1072 20.9054C78.1005 20.8536 78.1044 20.8009 78.1188 20.7506C78.1331 20.7004 78.1576 20.6536 78.1907 20.6131C78.2238 20.5727 78.2649 20.5394 78.3113 20.5154C79.1867 20.0671 80.1398 19.7905 81.1192 19.7003C81.1695 19.6957 81.2203 19.701 81.2686 19.716C81.3169 19.731 81.3617 19.7554 81.4006 19.7877C81.4395 19.82 81.4716 19.8597 81.4951 19.9044C81.5187 19.9492 81.5332 19.9981 81.5378 20.0485C81.5424 20.0988 81.5371 20.1496 81.5221 20.1978C81.5071 20.2461 81.4828 20.291 81.4505 20.3299C81.4181 20.3687 81.3785 20.4009 81.3337 20.4244C81.289 20.448 81.2401 20.4625 81.1897 20.4671C80.4452 20.5357 79.7167 20.7239 79.0321 21.0245L80.2589 23.0702C80.2925 23.1281 80.3103 23.1937 80.3107 23.2606C80.3111 23.3275 80.2939 23.3933 80.261 23.4515C80.228 23.5097 80.1804 23.5583 80.1229 23.5925C80.0654 23.6266 79.9999 23.645 79.933 23.646Z" fill="#4B1010"/>
<path d="M91.3266 64.958C91.2722 64.9584 91.2183 64.9472 91.1685 64.9251C91.1187 64.9031 91.0742 64.8706 91.0379 64.83C91.0016 64.7894 90.9744 64.7415 90.9581 64.6895C90.9418 64.6376 90.9367 64.5827 90.9433 64.5287C91.1719 62.6268 91.2488 60.7097 91.1733 58.7957C91.1696 58.6941 91.2063 58.5952 91.2755 58.5207C91.3446 58.4463 91.4405 58.4023 91.5421 58.3985C91.5925 58.396 91.643 58.4037 91.6904 58.421C91.7378 58.4383 91.7813 58.4649 91.8183 58.4993C91.8554 58.5336 91.8851 58.575 91.9059 58.6211C91.9266 58.6671 91.938 58.7168 91.9393 58.7673C92.0173 60.7217 91.9404 62.6792 91.7092 64.6214C91.6978 64.7147 91.6525 64.8005 91.582 64.8625C91.5114 64.9246 91.4206 64.9585 91.3266 64.958ZM91.3489 56.27C91.2537 56.2705 91.1618 56.2356 91.091 56.1722C91.0201 56.1087 90.9754 56.0211 90.9655 55.9265C90.7615 54.0151 90.4582 52.1156 90.0569 50.2357C90.0465 50.1864 90.046 50.1356 90.0552 50.086C90.0645 50.0365 90.0835 49.9893 90.111 49.9472C90.1385 49.905 90.1741 49.8686 90.2156 49.8402C90.2572 49.8117 90.304 49.7918 90.3532 49.7814C90.4025 49.771 90.4534 49.7705 90.5029 49.7797C90.5524 49.789 90.5996 49.808 90.6418 49.8355C90.684 49.863 90.7203 49.8986 90.7488 49.9401C90.7772 49.9817 90.7972 50.0284 90.8075 50.0777C91.2143 51.9837 91.5214 53.9096 91.7276 55.8475C91.7331 55.9007 91.7274 55.9544 91.7109 56.0052C91.6943 56.056 91.6674 56.1028 91.6317 56.1426C91.5961 56.1823 91.5525 56.2142 91.5038 56.2362C91.4551 56.2581 91.4023 56.2696 91.3489 56.27ZM89.774 47.7131C89.6888 47.713 89.6061 47.6845 89.5389 47.6322C89.4717 47.5798 89.4238 47.5066 89.4029 47.424C88.9252 45.5566 88.391 43.704 87.8011 41.8689C87.7755 41.7734 87.7877 41.6717 87.8352 41.5851C87.8827 41.4984 87.9619 41.4334 88.0562 41.4037C88.1505 41.374 88.2527 41.3819 88.3413 41.4257C88.4299 41.4696 88.4982 41.5459 88.5318 41.6389C89.1258 43.4881 89.664 45.3547 90.1458 47.2362C90.1601 47.2927 90.1612 47.3518 90.1492 47.4088C90.1371 47.4659 90.1122 47.5195 90.0764 47.5655C90.0405 47.6114 89.9946 47.6486 89.9422 47.6742C89.8898 47.6998 89.8323 47.7131 89.774 47.7131ZM87.2583 39.3831C87.1782 39.3831 87.1003 39.358 87.0352 39.3114C86.9702 39.2647 86.9214 39.199 86.8956 39.1232C86.3842 37.6227 85.5223 35.1591 84.925 33.6877C84.9041 33.6407 84.8928 33.59 84.8919 33.5386C84.8909 33.4872 84.9003 33.4361 84.9195 33.3884C84.9387 33.3406 84.9674 33.2973 85.0037 33.2608C85.04 33.2244 85.0833 33.1957 85.1309 33.1763C85.1786 33.157 85.2297 33.1474 85.2811 33.1482C85.3325 33.149 85.3833 33.1601 85.4303 33.1809C85.4773 33.2018 85.5197 33.2318 85.5549 33.2694C85.5901 33.3069 85.6173 33.3511 85.6351 33.3994C86.2423 34.8938 87.108 37.3704 87.6217 38.8755C87.6415 38.9333 87.6472 38.995 87.6383 39.0554C87.6294 39.1158 87.6063 39.1733 87.5707 39.2229C87.5352 39.2726 87.4883 39.313 87.4339 39.3409C87.3796 39.3688 87.3193 39.3832 87.2583 39.3831ZM84.1207 31.2671C84.0476 31.2672 83.976 31.2464 83.9143 31.2071C83.8526 31.1679 83.8035 31.1118 83.7726 31.0455C82.9603 29.3035 82.0608 27.6035 81.0775 25.952C81.0254 25.8646 81.0102 25.7602 81.0352 25.6616C81.0601 25.5631 81.1232 25.4784 81.2105 25.4264C81.2979 25.3743 81.4023 25.3591 81.5009 25.384C81.5995 25.409 81.6841 25.4721 81.7361 25.5594C82.7322 27.2326 83.644 28.9546 84.4681 30.7189C84.4954 30.7773 84.5076 30.8417 84.5034 30.9061C84.4993 30.9705 84.4789 31.0328 84.4443 31.0872C84.4097 31.1416 84.3619 31.1865 84.3053 31.2175C84.2487 31.2485 84.1852 31.2648 84.1207 31.2648V31.2671Z" fill="#4B1010"/>
<path d="M120.208 107.497C119.901 109.774 121.449 112.378 123.735 112.508C126.02 112.638 127.803 110.372 128.503 108.16C129.095 106.613 129.095 104.902 128.503 103.355C126.077 98.1377 120.63 104.333 120.208 107.497Z" fill="#FFE55D"/>
<path d="M113.601 127.98C113.601 128.223 113.275 127.878 113.367 127.654C115.069 123.393 117.801 119.619 121.317 116.671C122.247 115.905 123.641 115.207 124.538 116.009C124.925 116.44 125.155 116.989 125.191 117.568C125.534 119.776 125.575 122.02 125.312 124.239L113.601 127.98Z" fill="#FFE55D"/>
<path d="M123.921 112.897C121.294 112.897 119.485 110.013 119.827 107.447C120.121 105.242 122.848 101.389 125.511 100.991C128.585 100.526 130.178 104.858 128.86 108.297C128.153 110.538 126.313 112.897 123.921 112.897ZM120.587 107.547C120.312 109.607 121.708 112.009 123.756 112.126C125.839 112.234 127.489 110.094 128.137 108.044C129.248 105.14 128.047 101.379 125.625 101.749C123.472 102.075 120.875 105.4 120.587 107.547Z" fill="#4B1010"/>
<path d="M113.554 128.447C113.452 128.429 113.356 128.389 113.271 128.329C113.186 128.27 113.116 128.193 113.065 128.103C113.013 128.013 112.983 127.913 112.974 127.81C112.966 127.707 112.981 127.603 113.017 127.507C114.738 123.185 117.507 119.36 121.076 116.376C122.533 115.181 123.922 114.939 124.797 115.722C125.257 116.222 125.532 116.865 125.577 117.543C125.923 119.774 125.963 122.041 125.696 124.283C125.691 124.333 125.675 124.382 125.651 124.426C125.626 124.47 125.593 124.509 125.553 124.54C125.514 124.572 125.468 124.595 125.42 124.609C125.371 124.623 125.32 124.627 125.27 124.621C125.22 124.615 125.172 124.599 125.128 124.574C125.084 124.549 125.045 124.516 125.014 124.476C124.983 124.437 124.96 124.391 124.946 124.342C124.933 124.294 124.929 124.243 124.935 124.193C125.194 122.008 125.154 119.798 124.815 117.625C124.788 117.121 124.591 116.642 124.256 116.264C123.421 115.519 121.867 116.718 121.564 116.967C118.136 119.835 115.466 123.501 113.788 127.644C113.866 127.695 113.926 127.77 113.959 127.858C113.991 127.946 113.995 128.042 113.968 128.132C113.942 128.222 113.888 128.301 113.813 128.358C113.739 128.414 113.648 128.445 113.554 128.447Z" fill="#4B1010"/>
<path d="M101.758 130.771C101.656 130.774 101.558 130.737 101.483 130.667C101.409 130.598 101.365 130.502 101.362 130.4C101.359 130.298 101.396 130.2 101.465 130.125C101.535 130.051 101.631 130.007 101.733 130.004C101.822 129.999 101.767 129.999 101.859 129.927C102.254 129.621 103.05 128.561 104.602 125.268C104.62 125.218 104.649 125.172 104.686 125.134C104.723 125.096 104.768 125.066 104.817 125.046C104.866 125.026 104.919 125.016 104.972 125.018C105.025 125.019 105.078 125.032 105.126 125.055C105.174 125.078 105.216 125.11 105.251 125.15C105.286 125.191 105.312 125.238 105.328 125.288C105.343 125.339 105.348 125.393 105.342 125.446C105.336 125.498 105.319 125.549 105.292 125.595C104.633 127.106 103.834 128.552 102.905 129.913C104.362 129.785 105.819 129.606 107.256 129.376C107.355 129.362 107.455 129.388 107.536 129.448C107.616 129.507 107.67 129.596 107.686 129.695C107.702 129.794 107.679 129.895 107.621 129.977C107.563 130.059 107.476 130.115 107.378 130.133C104.774 130.55 102.042 130.771 101.758 130.771ZM110.072 129.631C109.977 129.631 109.885 129.595 109.815 129.532C109.744 129.468 109.7 129.38 109.69 129.286C109.681 129.191 109.706 129.096 109.763 129.02C109.819 128.943 109.902 128.89 109.995 128.872C111.812 128.495 113.61 128.034 115.384 127.491C115.433 127.475 115.484 127.469 115.535 127.472C115.586 127.476 115.636 127.49 115.682 127.514C115.727 127.537 115.768 127.57 115.8 127.609C115.833 127.648 115.858 127.694 115.873 127.743C115.888 127.792 115.893 127.843 115.888 127.894C115.882 127.945 115.867 127.995 115.842 128.04C115.817 128.084 115.784 128.124 115.744 128.156C115.703 128.187 115.657 128.211 115.608 128.224C113.729 128.799 110.387 129.63 110.072 129.63V129.631ZM118.025 126.621C119.772 125.999 121.49 125.298 123.174 124.52C123.266 124.483 123.368 124.482 123.46 124.518C123.552 124.554 123.627 124.624 123.668 124.714C123.71 124.804 123.715 124.906 123.683 124.999C123.65 125.093 123.583 125.17 123.495 125.216C121.791 126.004 120.051 126.714 118.281 127.343C118.186 127.375 118.082 127.368 117.992 127.324C117.902 127.28 117.833 127.203 117.799 127.108C117.766 127.014 117.77 126.91 117.812 126.819C117.855 126.728 117.931 126.657 118.025 126.621ZM125.854 124.033C125.768 124.033 125.685 124.004 125.618 123.951C125.55 123.899 125.502 123.825 125.482 123.742C125.461 123.659 125.469 123.571 125.504 123.493C125.539 123.415 125.599 123.35 125.674 123.31C126.787 122.723 127.819 121.997 128.748 121.149C129.119 120.74 129.466 120.311 129.788 119.863C129.847 119.78 129.937 119.725 130.038 119.708C130.138 119.692 130.241 119.716 130.323 119.776C130.406 119.835 130.461 119.925 130.478 120.025C130.494 120.125 130.47 120.228 130.411 120.311C130.064 120.792 129.69 121.253 129.289 121.691C128.307 122.594 127.212 123.367 126.033 123.991C125.977 124.019 125.916 124.033 125.854 124.033ZM106.108 123.266C106.044 123.266 105.982 123.25 105.926 123.22C105.87 123.189 105.822 123.146 105.787 123.092C105.752 123.039 105.731 122.978 105.726 122.915C105.721 122.851 105.731 122.787 105.757 122.729C106.67 120.653 107.003 120.114 108.043 117.622C108.084 117.53 108.159 117.459 108.252 117.422C108.344 117.385 108.448 117.385 108.541 117.424C108.633 117.462 108.707 117.535 108.746 117.627C108.785 117.719 108.787 117.823 108.751 117.916C107.677 120.49 107.404 120.892 106.459 123.039C106.428 123.106 106.378 123.163 106.315 123.202C106.252 123.241 106.18 123.262 106.106 123.26L106.108 123.266ZM131.508 118.052C131.444 118.052 131.38 118.036 131.324 118.005C131.268 117.974 131.22 117.929 131.185 117.875C131.151 117.821 131.13 117.759 131.126 117.695C131.121 117.631 131.133 117.567 131.16 117.508C131.925 115.819 132.62 114.099 133.242 112.352C133.258 112.303 133.284 112.258 133.317 112.22C133.35 112.181 133.391 112.15 133.437 112.127C133.483 112.104 133.533 112.091 133.584 112.088C133.635 112.085 133.686 112.092 133.734 112.109C133.782 112.126 133.827 112.153 133.864 112.187C133.902 112.221 133.933 112.263 133.954 112.309C133.976 112.356 133.988 112.406 133.99 112.457C133.992 112.508 133.983 112.559 133.965 112.606C133.335 114.376 132.631 116.118 131.856 117.83C131.825 117.896 131.776 117.952 131.714 117.992C131.653 118.031 131.581 118.052 131.508 118.052ZM109.43 115.543C109.368 115.543 109.307 115.528 109.252 115.499C109.197 115.47 109.15 115.428 109.115 115.377C109.08 115.326 109.058 115.268 109.05 115.206C109.043 115.144 109.05 115.082 109.072 115.024C109.685 113.407 110.399 111.308 110.887 109.751C110.917 109.654 110.985 109.573 111.076 109.526C111.166 109.479 111.271 109.469 111.368 109.5C111.465 109.53 111.546 109.598 111.593 109.689C111.64 109.779 111.65 109.884 111.619 109.981C111.127 111.546 110.407 113.662 109.789 115.295C109.762 115.368 109.713 115.431 109.649 115.476C109.585 115.521 109.508 115.545 109.43 115.545V115.543ZM134.471 110.2C134.411 110.201 134.352 110.187 134.298 110.16C134.245 110.133 134.198 110.094 134.163 110.046C134.127 109.998 134.103 109.943 134.092 109.884C134.082 109.825 134.085 109.765 134.103 109.707C134.634 107.931 135.08 106.13 135.44 104.311C135.461 104.213 135.52 104.127 135.604 104.072C135.688 104.017 135.79 103.997 135.888 104.016C135.987 104.036 136.074 104.093 136.131 104.176C136.187 104.258 136.209 104.36 136.192 104.459C135.828 106.302 135.376 108.127 134.837 109.927C134.814 110.007 134.765 110.076 134.699 110.125C134.633 110.175 134.553 110.202 134.471 110.202V110.2ZM112.048 107.564C111.989 107.564 111.93 107.551 111.877 107.524C111.824 107.498 111.778 107.46 111.742 107.413C111.707 107.366 111.682 107.311 111.671 107.253C111.66 107.195 111.662 107.135 111.678 107.078C112.177 105.29 112.599 103.482 112.944 101.659C112.963 101.559 113.021 101.47 113.104 101.413C113.188 101.356 113.292 101.334 113.392 101.353C113.491 101.371 113.58 101.429 113.637 101.513C113.695 101.597 113.717 101.7 113.698 101.8C113.349 103.645 112.922 105.474 112.417 107.283C112.395 107.364 112.347 107.436 112.28 107.487C112.214 107.538 112.132 107.566 112.048 107.566V107.564ZM136.292 102.01C136.237 102.011 136.182 101.999 136.132 101.976C136.081 101.954 136.036 101.92 135.999 101.879C135.963 101.837 135.936 101.788 135.92 101.735C135.905 101.681 135.901 101.625 135.909 101.571C136.18 99.7435 136.364 97.8818 136.459 96.0378C136.461 95.9874 136.474 95.9381 136.495 95.8926C136.517 95.847 136.548 95.8062 136.585 95.7724C136.622 95.7386 136.666 95.7126 136.714 95.6957C136.761 95.6788 136.811 95.6714 136.862 95.674C136.912 95.6765 136.961 95.689 137.007 95.7106C137.052 95.7323 137.093 95.7627 137.127 95.8001C137.161 95.8375 137.187 95.8812 137.204 95.9287C137.221 95.9762 137.228 96.0265 137.226 96.0769C137.129 97.9532 136.943 99.8239 136.669 101.683C136.656 101.773 136.611 101.857 136.542 101.917C136.473 101.977 136.384 102.011 136.292 102.012V102.01ZM113.765 99.3486C113.711 99.3491 113.656 99.3378 113.606 99.3155C113.556 99.2932 113.511 99.2604 113.475 99.2193C113.439 99.1783 113.412 99.1299 113.395 99.0774C113.379 99.025 113.375 98.9698 113.382 98.9154C113.631 97.0819 113.762 95.2343 113.774 93.3841C113.774 93.2824 113.814 93.1849 113.886 93.113C113.958 93.0411 114.055 93.0007 114.157 93.0007C114.259 93.0007 114.356 93.0411 114.428 93.113C114.5 93.1849 114.541 93.2824 114.541 93.3841C114.529 95.2672 114.395 97.1476 114.142 99.0135C114.13 99.1057 114.086 99.1907 114.017 99.2526C113.948 99.3145 113.858 99.3492 113.765 99.3501V99.3486ZM136.921 93.6425C136.819 93.6425 136.722 93.6021 136.65 93.5302C136.578 93.4583 136.538 93.3608 136.538 93.2591C136.543 91.4045 136.46 89.5507 136.289 87.704C136.284 87.6536 136.289 87.6029 136.304 87.5546C136.319 87.5063 136.344 87.4614 136.376 87.4226C136.408 87.3837 136.448 87.3516 136.493 87.328C136.537 87.3045 136.586 87.29 136.637 87.2853C136.687 87.2807 136.738 87.286 136.786 87.301C136.834 87.316 136.879 87.3404 136.918 87.3727C136.957 87.405 136.989 87.4447 137.013 87.4894C137.036 87.5342 137.051 87.5831 137.055 87.6334C137.238 89.5963 137.311 91.3759 137.308 93.2614C137.308 93.3121 137.298 93.3622 137.279 93.4089C137.259 93.4557 137.23 93.498 137.194 93.5336C137.158 93.5692 137.115 93.5973 137.068 93.6162C137.021 93.6352 136.971 93.6446 136.92 93.644L136.921 93.6425ZM116.743 92.8657C116.652 92.8656 116.563 92.8326 116.493 92.7726C116.424 92.7127 116.378 92.6298 116.365 92.539C116.351 92.4482 116.371 92.3556 116.42 92.2779C116.469 92.2003 116.544 92.1428 116.631 92.1159C118.419 91.5711 120.201 91.0088 121.977 90.429C122.025 90.4126 122.076 90.4058 122.127 90.4092C122.177 90.4125 122.227 90.4259 122.272 90.4485C122.318 90.4711 122.358 90.5025 122.391 90.5409C122.425 90.5793 122.45 90.6239 122.466 90.6721C122.481 90.7203 122.488 90.7712 122.484 90.8218C122.48 90.8724 122.466 90.9217 122.442 90.9668C122.419 91.012 122.387 91.0521 122.349 91.0848C122.31 91.1175 122.265 91.1422 122.216 91.1574C121.763 91.3069 116.927 92.8673 116.743 92.8673L116.743 92.8657ZM124.632 89.5388C126.626 88.8533 128.394 88.2024 129.879 87.6058C129.926 87.5847 129.977 87.5733 130.029 87.5723C130.08 87.5713 130.132 87.5807 130.18 87.6C130.228 87.6193 130.271 87.6481 130.307 87.6846C130.344 87.7211 130.373 87.7646 130.392 87.8125C130.411 87.8604 130.421 87.9117 130.42 87.9633C130.419 88.0149 130.407 88.0657 130.386 88.1128C130.365 88.1599 130.334 88.2022 130.296 88.2372C130.259 88.2722 130.214 88.2993 130.165 88.3166C128.668 88.9185 126.89 89.5741 124.882 90.2642C124.787 90.2915 124.686 90.2815 124.599 90.2362C124.511 90.191 124.445 90.114 124.413 90.021C124.381 89.9281 124.385 89.8264 124.426 89.737C124.467 89.6475 124.541 89.5771 124.632 89.5404L124.632 89.5388ZM132.6 87.2386C132.512 87.2386 132.428 87.2089 132.36 87.1544C132.292 87.0998 132.244 87.0236 132.225 86.9384C132.206 86.8533 132.217 86.7642 132.256 86.6859C132.294 86.6076 132.358 86.5448 132.437 86.5079C135.598 85.0265 135.843 84.3219 135.843 84.1409C135.827 84.0392 135.852 83.9354 135.912 83.8517C135.972 83.7679 136.062 83.7107 136.163 83.6924C136.212 83.6834 136.262 83.6843 136.31 83.695C136.359 83.7056 136.405 83.7258 136.445 83.7544C136.486 83.7829 136.52 83.8192 136.547 83.8612C136.573 83.9033 136.591 83.9501 136.599 83.9991C136.599 83.9991 136.685 84.5565 136.724 84.8356C136.735 84.9138 136.722 84.9935 136.686 85.0638C136.65 85.1342 136.594 85.1917 136.524 85.2287C136.454 85.2656 136.375 85.28 136.296 85.2701C136.218 85.2601 136.144 85.2262 136.086 85.173C135.095 86.0238 133.973 86.7082 132.762 87.1995C132.711 87.2236 132.655 87.2362 132.599 87.2363L132.6 87.2386Z" fill="#4B1010"/>
<path d="M83.5635 109.336C82.2056 102.801 71.274 110.522 74.7075 114.933C75.1762 115.522 75.8004 115.969 76.5094 116.221C77.2185 116.474 77.9842 116.524 78.7199 116.365C81.3859 115.809 84.1286 112.059 83.5635 109.336Z" fill="#FFE55D"/>
<path d="M77.1997 121.234C76.8911 120.748 76.4584 120.353 75.9461 120.091C75.4338 119.828 74.8607 119.707 74.286 119.74C73.1418 119.83 72.0322 120.175 71.0381 120.749C66.4077 123.346 62.827 127.43 59.4395 131.517L75.3311 132.74C76.8266 129.856 77.6073 126.656 77.6076 123.408C77.6629 122.66 77.5223 121.911 77.1997 121.234Z" fill="#FFE55D"/>
<path d="M77.8655 116.836C77.2016 116.836 76.5463 116.687 75.948 116.399C75.3497 116.112 74.8237 115.693 74.409 115.175C70.6642 110.191 82.4468 102.077 83.9381 109.258C84.5653 112.275 81.3964 116.836 77.8655 116.836ZM75.0139 114.704C75.4402 115.233 76.0051 115.633 76.6454 115.86C77.2858 116.086 77.9766 116.131 78.6407 115.988C81.1081 115.487 83.7081 111.924 83.1875 109.414C81.9676 103.532 72.0137 110.712 75.0139 114.704Z" fill="#4B1010"/>
<path d="M75.3326 133.122C75.2668 133.122 75.202 133.106 75.1447 133.073C75.0873 133.041 75.0392 132.995 75.005 132.938C74.9708 132.882 74.9516 132.818 74.9494 132.752C74.9471 132.686 74.9619 132.621 74.9921 132.563C76.4567 129.733 77.2225 126.594 77.2257 123.408C77.2783 122.717 77.1498 122.025 76.853 121.399C76.5784 120.982 76.1986 120.644 75.7521 120.42C75.3055 120.196 74.8078 120.093 74.309 120.122C73.2239 120.196 72.1713 120.523 71.2358 121.078C66.5257 123.569 62.9181 127.921 59.7346 131.761C59.7026 131.8 59.6632 131.832 59.6186 131.856C59.574 131.88 59.5251 131.895 59.4748 131.9C59.4244 131.905 59.3736 131.9 59.3252 131.885C59.2769 131.87 59.2319 131.846 59.193 131.814C59.154 131.781 59.1218 131.742 59.0983 131.697C59.0747 131.652 59.0603 131.603 59.0557 131.553C59.0512 131.502 59.0567 131.452 59.0719 131.403C59.0871 131.355 59.1116 131.31 59.1442 131.272C62.3722 127.376 66.0304 122.962 70.8594 120.409C71.8954 119.798 73.0603 119.437 74.2607 119.357C74.9035 119.32 75.5446 119.455 76.1177 119.749C76.6908 120.043 77.1752 120.484 77.5209 121.027C77.8864 121.775 78.0482 122.605 77.9901 123.435C77.984 126.735 77.189 129.985 75.6715 132.915C75.6393 132.978 75.5907 133.03 75.5309 133.066C75.4712 133.103 75.4026 133.122 75.3326 133.122Z" fill="#4B1010"/>
<path d="M75.1726 133.049C75.0711 133.045 74.9755 133 74.9067 132.926C74.8378 132.851 74.8014 132.752 74.8053 132.651C74.8066 132.6 74.818 132.55 74.8388 132.504C74.8597 132.458 74.8896 132.417 74.9268 132.382C74.964 132.348 75.0077 132.322 75.0553 132.304C75.1029 132.287 75.1535 132.28 75.204 132.283C77.0826 132.364 78.912 132.513 80.5866 131.865C80.6336 131.847 80.6837 131.838 80.734 131.839C80.7844 131.84 80.834 131.851 80.8801 131.872C80.9261 131.892 80.9677 131.921 81.0025 131.958C81.0373 131.994 81.0645 132.037 81.0827 132.084C81.1009 132.131 81.1096 132.181 81.1084 132.232C81.1072 132.282 81.0961 132.332 81.0758 132.378C81.0554 132.424 81.0262 132.465 80.9897 132.5C80.9533 132.535 80.9104 132.562 80.8634 132.58C79.0393 133.286 77.1539 133.132 75.1726 133.049ZM72.3893 133.02C70.7201 133.02 68.748 133.013 66.7813 132.966C66.7309 132.965 66.6813 132.954 66.6353 132.933C66.5892 132.913 66.5476 132.884 66.5129 132.847C66.4781 132.811 66.4509 132.768 66.4328 132.721C66.4146 132.674 66.4059 132.624 66.4071 132.573C66.4083 132.523 66.4194 132.473 66.4398 132.427C66.4602 132.381 66.4894 132.34 66.5259 132.305C66.5624 132.27 66.6053 132.243 66.6523 132.225C66.6992 132.207 66.7493 132.198 66.7997 132.199C68.7587 132.247 70.7247 132.254 72.3893 132.254C72.491 132.254 72.5885 132.294 72.6604 132.366C72.7323 132.438 72.7727 132.535 72.7727 132.637C72.7727 132.739 72.7323 132.836 72.6604 132.908C72.5885 132.98 72.491 133.02 72.3893 133.02ZM63.9934 132.867C63.2059 132.859 60.5016 132.673 58.3677 132.425C58.2668 132.414 58.1746 132.362 58.1115 132.283C58.0484 132.203 58.0195 132.102 58.0311 132.001C58.0429 131.9 58.0942 131.807 58.1739 131.744C58.2535 131.681 58.355 131.652 58.4559 131.664C60.1834 131.864 62.0006 132.007 64.0102 132.1C64.1119 132.102 64.2085 132.145 64.2789 132.218C64.3492 132.292 64.3874 132.39 64.3852 132.492C64.383 132.594 64.3404 132.69 64.2669 132.761C64.1935 132.831 64.0951 132.869 63.9934 132.867ZM55.6397 132.044C53.7603 131.752 51.9003 131.347 50.07 130.83C49.972 130.803 49.8887 130.738 49.8385 130.649C49.7883 130.561 49.7753 130.456 49.8024 130.358C49.8294 130.26 49.8943 130.177 49.9827 130.127C50.0712 130.077 50.1759 130.064 50.2739 130.091C50.4204 130.061 50.9172 129.97 52.2568 128.395C52.3234 128.32 52.4165 128.275 52.5161 128.268C52.6158 128.261 52.7141 128.294 52.7902 128.358C52.8664 128.423 52.9143 128.515 52.9237 128.614C52.9332 128.714 52.9035 128.813 52.841 128.891C52.3984 129.436 51.903 129.936 51.362 130.383C52.7459 130.737 54.1989 131.038 55.701 131.282C55.7966 131.297 55.8829 131.348 55.9428 131.423C56.0027 131.499 56.0317 131.595 56.0239 131.692C56.0162 131.788 55.9723 131.878 55.901 131.943C55.8297 132.009 55.7364 132.045 55.6397 132.044ZM83.0479 131.078C82.9706 131.078 82.8952 131.055 82.8314 131.011C82.7676 130.968 82.7185 130.906 82.6904 130.834C82.6623 130.762 82.6566 130.684 82.674 130.608C82.6914 130.533 82.7311 130.465 82.7879 130.413C84.1319 129.16 85.2832 127.716 86.2046 126.126C86.2599 126.041 86.3469 125.981 86.4464 125.96C86.5459 125.939 86.6497 125.958 86.7351 126.013C86.8206 126.068 86.8805 126.155 86.9018 126.255C86.9231 126.354 86.9039 126.458 86.8486 126.544C85.8988 128.192 84.7047 129.687 83.307 130.977C83.2368 131.043 83.1442 131.08 83.0479 131.08V131.078ZM54.2664 126.808C54.1961 126.807 54.1274 126.787 54.0677 126.75C54.008 126.713 53.9597 126.66 53.928 126.597C53.8964 126.535 53.8826 126.464 53.8882 126.394C53.8938 126.324 53.9185 126.257 53.9597 126.2C54.8714 124.94 55.9226 123.381 57.0834 121.566C57.1383 121.48 57.225 121.42 57.3244 121.398C57.4237 121.377 57.5276 121.395 57.6133 121.45C57.6989 121.505 57.7592 121.592 57.7809 121.691C57.8026 121.79 57.7839 121.894 57.729 121.98C56.5605 123.806 55.5009 125.378 54.5808 126.649C54.545 126.699 54.4978 126.74 54.4431 126.768C54.3884 126.796 54.3278 126.81 54.2664 126.81V126.808ZM88.0294 124.355C87.961 124.355 87.8938 124.336 87.8348 124.301C87.7759 124.267 87.7273 124.217 87.6941 124.157C87.6609 124.097 87.6444 124.03 87.6462 123.961C87.648 123.893 87.668 123.826 87.7043 123.768C88.7088 122.158 89.6649 120.538 90.5467 118.965C90.5965 118.876 90.6795 118.811 90.7775 118.783C90.8755 118.756 90.9804 118.768 91.0692 118.818C91.158 118.868 91.2233 118.951 91.2508 119.049C91.2784 119.147 91.2659 119.252 91.216 119.341C90.2994 120.973 89.3456 122.583 88.3553 124.171C88.3217 124.228 88.2741 124.275 88.217 124.308C88.1599 124.341 88.0953 124.358 88.0294 124.359V124.355ZM58.893 119.777C58.8248 119.777 58.7579 119.759 58.6992 119.724C58.6405 119.69 58.592 119.64 58.5588 119.58C58.5256 119.521 58.5089 119.454 58.5103 119.385C58.5118 119.317 58.5314 119.251 58.5671 119.193C59.7786 117.232 60.7968 115.512 61.457 114.388C61.5085 114.301 61.5928 114.237 61.6912 114.212C61.7896 114.186 61.8942 114.201 61.9818 114.252C62.0695 114.304 62.133 114.388 62.1586 114.486C62.1841 114.585 62.1695 114.689 62.1179 114.777C61.1681 116.393 60.2019 117.999 59.2196 119.595C59.1859 119.651 59.1385 119.698 59.0817 119.731C59.0249 119.763 58.9607 119.781 58.8953 119.782L58.893 119.777ZM92.2174 117.077C92.1514 117.077 92.0865 117.06 92.0291 117.028C91.9716 116.995 91.9235 116.948 91.8894 116.892C91.8553 116.835 91.8364 116.771 91.8345 116.705C91.8326 116.639 91.8477 116.574 91.8785 116.515C92.7469 114.871 93.5689 113.203 94.3436 111.513C94.3637 111.466 94.393 111.423 94.4298 111.388C94.4666 111.352 94.5102 111.324 94.5579 111.306C94.6056 111.288 94.6566 111.279 94.7077 111.28C94.7589 111.282 94.8092 111.294 94.8557 111.315C94.9023 111.336 94.9441 111.367 94.9787 111.404C95.0133 111.442 95.04 111.486 95.0572 111.534C95.0744 111.583 95.0818 111.634 95.079 111.685C95.0761 111.736 95.0631 111.786 95.0406 111.832C94.2604 113.536 93.432 115.217 92.5563 116.873C92.5245 116.935 92.4763 116.988 92.417 117.024C92.3577 117.061 92.2895 117.081 92.2197 117.082L92.2174 117.077ZM63.1944 112.54C63.1271 112.54 63.0609 112.523 63.0027 112.489C62.9444 112.455 62.896 112.407 62.8624 112.348C62.8289 112.29 62.8113 112.224 62.8114 112.156C62.8115 112.089 62.8294 112.023 62.8632 111.965C63.6729 110.568 64.6804 108.83 65.5974 107.094C65.6449 107.004 65.7262 106.937 65.8234 106.907C65.9206 106.877 66.0258 106.887 66.1157 106.934C66.2057 106.981 66.2732 107.063 66.3032 107.16C66.3333 107.257 66.3235 107.362 66.276 107.452C65.3513 109.201 64.3399 110.947 63.5264 112.35C63.4935 112.408 63.4456 112.457 63.3878 112.491C63.3299 112.526 63.264 112.544 63.1967 112.545L63.1944 112.54ZM95.8158 109.492C95.7525 109.492 95.6903 109.476 95.6345 109.446C95.5788 109.417 95.5313 109.373 95.4963 109.321C95.4613 109.268 95.4399 109.207 95.4339 109.144C95.428 109.081 95.4378 109.018 95.4623 108.96C96.1822 107.247 96.8428 105.51 97.4428 103.752C97.458 103.703 97.4829 103.658 97.5159 103.619C97.549 103.579 97.5895 103.547 97.6352 103.524C97.6809 103.501 97.7308 103.487 97.7819 103.483C97.833 103.48 97.8843 103.486 97.9328 103.503C97.9812 103.52 98.0259 103.546 98.0641 103.58C98.1024 103.614 98.1334 103.655 98.1553 103.702C98.1772 103.748 98.1897 103.798 98.1919 103.849C98.1941 103.901 98.186 103.952 98.1681 104C97.563 105.775 96.8963 107.528 96.1692 109.256C96.1409 109.327 96.0925 109.387 96.03 109.43C95.9675 109.472 95.8937 109.496 95.8181 109.496L95.8158 109.492ZM67.1915 105.153C67.1269 105.153 67.0634 105.136 67.0069 105.105C66.9503 105.074 66.9025 105.029 66.868 104.975C66.8334 104.92 66.8132 104.858 66.8091 104.793C66.8051 104.729 66.8174 104.665 66.8449 104.606C67.6476 102.943 68.312 101.217 68.8316 99.4452C68.8443 99.3956 68.8668 99.3492 68.8977 99.3085C68.9287 99.2678 68.9675 99.2337 69.0118 99.2083C69.0561 99.1828 69.105 99.1664 69.1558 99.1601C69.2065 99.1539 69.258 99.1578 69.3072 99.1717C69.3564 99.1856 69.4023 99.2092 69.4422 99.2411C69.4821 99.273 69.5153 99.3126 69.5397 99.3575C69.5641 99.4024 69.5793 99.4518 69.5844 99.5026C69.5894 99.5535 69.5843 99.6049 69.5692 99.6537C69.0391 101.469 68.3598 103.237 67.5381 104.94C67.5068 105.005 67.458 105.06 67.3971 105.098C67.3362 105.137 67.2658 105.157 67.1938 105.157L67.1915 105.153ZM98.6573 101.593C98.5976 101.593 98.5387 101.579 98.4854 101.552C98.432 101.525 98.3856 101.486 98.35 101.438C98.3143 101.391 98.2903 101.335 98.2799 101.276C98.2695 101.217 98.273 101.157 98.2901 101.1C98.8268 99.2987 99.2868 97.4846 99.6648 95.7073C99.6738 95.6566 99.6928 95.6083 99.7208 95.5652C99.7488 95.5221 99.7851 95.485 99.8277 95.4562C99.8703 95.4275 99.9183 95.4075 99.9687 95.3977C100.019 95.3878 100.071 95.3882 100.121 95.3988C100.172 95.4093 100.219 95.43 100.262 95.4593C100.304 95.4887 100.34 95.5263 100.367 95.5698C100.394 95.6133 100.413 95.6619 100.421 95.7127C100.429 95.7634 100.427 95.8153 100.415 95.8652C100.028 97.7018 99.5639 99.5213 99.0246 101.319C99.0019 101.399 98.9542 101.469 98.8884 101.519C98.8226 101.569 98.7424 101.597 98.6596 101.597L98.6573 101.593ZM69.7831 97.197C69.7281 97.1976 69.6735 97.1862 69.6233 97.1638C69.573 97.1413 69.5281 97.1083 69.4918 97.067C69.4554 97.0257 69.4283 96.977 69.4125 96.9243C69.3966 96.8716 69.3922 96.8161 69.3997 96.7615C69.5063 95.9817 69.4473 95.8859 69.6221 95.7395C69.8874 95.5179 69.8736 95.764 74.6872 95.9695C74.7887 95.9741 74.8841 96.0187 74.9527 96.0936C75.0213 96.1685 75.0573 96.2675 75.053 96.369C75.0518 96.4196 75.0405 96.4695 75.0196 96.5157C74.9987 96.5618 74.9687 96.6033 74.9314 96.6376C74.8941 96.6719 74.8502 96.6983 74.8025 96.7153C74.7547 96.7322 74.7041 96.7393 74.6535 96.7362C73.1707 96.6712 71.6896 96.5746 70.2109 96.4464C70.1956 96.5844 70.1785 96.7232 70.1596 96.8627C70.1488 96.955 70.105 97.0401 70.0361 97.1025C69.9673 97.1648 69.8782 97.2 69.7854 97.2016L69.7831 97.197ZM77.4652 96.8229C77.3635 96.8211 77.2667 96.7791 77.196 96.706C77.1253 96.6329 77.0866 96.5347 77.0883 96.433C77.09 96.3313 77.1321 96.2345 77.2052 96.1638C77.2783 96.0931 77.3765 96.0544 77.4782 96.0561C79.2486 96.0845 81.1479 96.086 83.0509 95.9833C83.1526 95.9785 83.252 96.0143 83.3273 96.0828C83.4026 96.1513 83.4475 96.247 83.4523 96.3486C83.4571 96.4503 83.4213 96.5497 83.3528 96.625C83.2843 96.7003 83.1886 96.7453 83.087 96.75C81.5956 96.8244 79.9011 96.8666 77.4675 96.8275L77.4652 96.8229ZM85.8649 96.602C85.7632 96.6051 85.6645 96.5676 85.5904 96.4979C85.5164 96.4282 85.4731 96.3319 85.47 96.2302C85.467 96.1285 85.5044 96.0298 85.5742 95.9557C85.6439 95.8817 85.7402 95.8383 85.8419 95.8353C87.9888 95.7057 89.7523 95.5539 91.397 95.3553C91.498 95.3431 91.5996 95.3715 91.6796 95.4343C91.7597 95.4971 91.8115 95.589 91.8237 95.69C91.8359 95.791 91.8075 95.8926 91.7447 95.9727C91.6819 96.0527 91.59 96.1045 91.489 96.1167C89.0952 96.4111 86.0428 96.6067 85.8672 96.6067L85.8649 96.602ZM94.2133 95.7226C94.1172 95.7225 94.0246 95.6864 93.9539 95.6213C93.8832 95.5562 93.8395 95.4669 93.8315 95.3711C93.8235 95.2754 93.8517 95.1801 93.9107 95.1042C93.9696 95.0283 94.0549 94.9772 94.1496 94.9612C95.9752 94.6613 97.7787 94.2402 99.5483 93.7007C99.5969 93.684 99.6483 93.6773 99.6995 93.6809C99.7507 93.6845 99.8007 93.6983 99.8464 93.7216C99.8922 93.7448 99.9328 93.7771 99.9659 93.8163C99.999 93.8556 100.024 93.9011 100.039 93.9502C100.054 93.9992 100.059 94.0508 100.054 94.1019C100.049 94.153 100.034 94.2025 100.009 94.2475C99.9842 94.2925 99.9508 94.3321 99.9105 94.364C99.8702 94.3958 99.824 94.4193 99.7745 94.4329C97.9531 94.9902 96.0958 95.4226 94.2156 95.7272L94.2133 95.7226Z" fill="#4B1010"/>
<path d="M24.263 53.2731C24.0511 53.0112 23.7836 52.7997 23.48 52.6538C23.1763 52.508 22.844 52.4314 22.5071 52.4297C22.2779 52.4316 22.054 52.4994 21.8621 52.6248C21.6701 52.7503 21.5183 52.9282 21.4245 53.1374C21.3835 53.2291 21.3801 53.3332 21.4151 53.4274C21.4501 53.5215 21.5206 53.5982 21.6115 53.6409C21.7024 53.6835 21.8065 53.6889 21.9013 53.6556C21.996 53.6224 22.074 53.5534 22.1184 53.4633C22.1465 53.3889 22.1956 53.3244 22.2597 53.2774C22.3238 53.2304 22.4002 53.2031 22.4795 53.1987C22.8892 53.2099 23.2818 53.3646 23.589 53.6358C23.639 53.7222 23.7207 53.7857 23.8168 53.8128C23.9128 53.8399 24.0157 53.8285 24.1035 53.781C24.1912 53.7335 24.257 53.6536 24.2868 53.5583C24.3166 53.463 24.308 53.3599 24.263 53.2708V53.2731Z" fill="#4B1010"/>
</svg>
